# 3ds Max Wavefront OBJ Exporter v0.99 - (c)2007 guruware
# File Created: 15.03.2025 15:37:12

mtllib cola.mtl

#
# object Plano
#

v  0.0635 -0.1015 -0.1240
v  0.0468 -0.0829 0.0898
v  -0.0374 0.1170 0.1039
v  -0.0210 0.0985 -0.1098
v  -0.6389 0.0378 0.0259
v  -0.6453 0.0449 0.1095
v  -0.3294 -0.0975 0.1336
v  -0.3127 -0.1161 -0.0801
v  -0.3244 0.0920 0.1370
v  -0.3079 0.0734 -0.0766
v  -0.8140 0.2070 0.0981
v  -0.6434 0.1192 0.1110
v  -0.8191 0.1969 0.0985
v  -0.6369 0.1120 0.0273
v  -0.8181 0.1957 0.0849
v  -0.8129 0.2058 0.0846
# 16 vertices

vn -0.9217 -0.3860 -0.0378
vn -0.9217 -0.3860 -0.0377
vn 0.4138 0.9091 -0.0469
vn 0.4137 0.9092 -0.0469
vn -0.0492 0.9947 -0.0904
vn 0.0973 -0.9909 0.0934
vn 0.0971 -0.9909 0.0932
vn -0.1168 0.0212 -0.9929
vn -0.1166 0.0213 -0.9930
vn 0.1166 -0.0213 0.9929
vn 0.1168 -0.0209 0.9929
vn 0.0726 0.0056 -0.9973
vn 0.0725 0.0056 -0.9973
vn 0.0725 0.0056 -0.9974
vn -0.0914 -0.9927 0.0789
vn -0.0913 -0.9927 0.0790
vn 0.0832 0.0158 -0.9964
vn 0.0833 0.0161 -0.9964
vn 0.2981 -0.0253 0.9542
vn 0.2981 -0.0255 0.9542
vn 0.8895 -0.4442 0.1073
vn 0.2888 -0.0350 0.9567
vn 0.2888 -0.0350 0.9568
vn 0.6586 0.7524 -0.0145
vn 0.6585 0.7524 -0.0144
vn -0.4594 -0.8873 0.0413
vn -0.4592 -0.8874 0.0416
# 27 vertex normals

vt 1.0000 0.0000 0.0000
vt 1.0000 1.0000 0.0000
vt 0.0000 1.0000 0.0000
vt 0.0000 0.0000 0.0000
# 4 texture coords

o Plano
g Plano
usemtl goddard_base_Goddard_None
s off
f 1/1/1 2/2/1 3/3/1 
f 3/3/2 4/4/2 1/1/2 
f 5/1/3 6/2/3 7/2/3 
f 7/2/4 8/1/4 5/1/4 
f 8/1/5 7/2/5 2/2/5 
f 2/2/5 1/1/5 8/1/5 
f 9/3/6 10/4/6 4/4/6 
f 4/4/7 3/3/7 9/3/7 
f 7/2/8 9/3/8 3/3/8 
f 3/3/9 2/2/9 7/2/9 
f 10/4/10 8/1/10 1/1/10 
f 1/1/11 4/4/11 10/4/11 
f 11/3/12 12/3/13 6/2/13 
f 6/2/14 13/2/14 11/3/14 
f 12/3/15 14/4/15 10/4/15 
f 10/4/16 9/3/16 12/3/16 
f 9/3/17 7/2/17 6/2/17 
f 6/2/18 12/3/18 9/3/18 
f 5/1/19 8/1/19 10/4/19 
f 10/4/20 14/4/20 5/1/20 
f 11/3/21 13/2/21 15/1/21 
f 15/1/21 16/4/21 11/3/21 
f 14/4/22 16/4/23 15/1/23 
f 15/1/23 5/1/23 14/4/23 
f 13/2/24 6/2/24 5/1/24 
f 5/1/25 15/1/25 13/2/25 
f 16/4/26 14/4/26 12/3/26 
f 12/3/27 11/3/27 16/4/27 
# 28 faces

