# 3ds Max Wavefront OBJ Exporter v0.99 - (c)2007 guruware
# File Created: 15.03.2025 15:35:14

mtllib cuerpo.mtl

#
# object Cube
#

v  -1.6950 0.1127 -1.2333
v  -1.6950 0.1127 1.2375
v  1.1732 1.3313 1.2375
v  1.1732 1.3313 -1.2333
v  -1.1020 -1.3026 1.2375
v  1.7662 -0.0839 1.2375
v  -1.1020 -1.3026 -1.2333
v  1.7662 -0.0839 -1.2333
# 8 vertices

vn -0.3910 0.9204 -0.0000
vn 0.0000 0.0000 1.0000
vn -0.9223 -0.3864 -0.0000
vn 0.3911 -0.9204 -0.0000
vn 0.9223 0.3865 -0.0000
vn 0.0000 0.0000 -1.0000
# 6 vertex normals

vt 0.8750 0.5000 0.0000
vt 0.8750 0.7500 0.0000
vt 0.6250 0.7500 0.0000
vt 0.6250 0.5000 0.0000
vt 0.6250 1.0000 0.0000
vt 0.3750 1.0000 0.0000
vt 0.3750 0.7500 0.0000
vt 0.6250 0.0000 0.0000
vt 0.6250 0.2500 0.0000
vt 0.3750 0.2500 0.0000
vt 0.3750 0.0000 0.0000
vt 0.3750 0.5000 0.0000
vt 0.1250 0.7500 0.0000
vt 0.1250 0.5000 0.0000
# 14 texture coords

o Cube
g Cube
usemtl goddard_base_Goddard_Material
s off
f 1/1/1 2/2/1 3/3/1 
f 3/3/1 4/4/1 1/1/1 
f 3/3/2 2/5/2 5/6/2 
f 5/6/2 6/7/2 3/3/2 
f 2/8/3 1/9/3 7/10/3 
f 7/10/3 5/11/3 2/8/3 
f 8/12/4 6/7/4 5/13/4 
f 5/13/4 7/14/4 8/12/4 
f 4/4/5 3/3/5 6/7/5 
f 6/7/5 8/12/5 4/4/5 
f 1/9/6 4/4/6 8/12/6 
f 8/12/6 7/10/6 1/9/6 
# 12 faces

