# 3ds Max Wavefront OBJ Exporter v0.99 - (c)2007 guruware
# File Created: 22.03.2025 20:04:13

mtllib cofre.mtl

#
# object part_015
#

v  -2.4238 0.3719 -8.7520
v  -2.7238 0.6666 -7.6154
v  -2.4034 0.3797 -8.7598
v  -2.1737 0.0882 -9.6143
v  -2.1517 0.0945 -9.6237
v  -2.0783 -0.0152 -9.8777
v  -2.0610 -0.0043 -9.8745
v  -1.9515 -0.1014 -10.1191
v  -0.0084 -0.1485 -10.6285
v  -0.0084 -0.1344 -10.6128
v  0.7346 -0.1547 -10.5727
v  -0.7544 -0.1406 -10.5558
v  -0.7513 -0.1547 -10.5715
v  -1.4282 -0.1485 -10.4127
v  -1.4236 -0.1641 -10.4283
v  -1.7698 -0.1359 -10.2729
v  -1.7792 -0.1500 -10.2854
v  -1.9374 -0.0873 -10.1129
v  -0.0059 0.7042 -7.5580
v  -1.4538 1.1713 -5.0945
v  -2.5028 0.5945 -7.5560
v  -3.2113 1.0286 -5.6824
v  -3.0207 0.8970 -6.4506
v  -0.7217 1.3547 -4.9587
v  -1.6354 1.3296 -4.8373
v  -2.3829 1.2920 -4.6455
v  -3.2151 1.0678 -4.5602
v  -3.3737 1.1180 -4.9738
v  -3.4297 1.1681 -4.3907
v  -3.4075 1.2089 -4.0663
v  -3.3903 1.2105 -4.0788
v  -2.9798 1.2496 -4.3629
v  -3.3715 1.2120 -4.0914
v  1.4459 1.1713 -5.0968
v  -0.0041 1.2011 -5.2492
v  0.7140 1.3547 -4.9598
v  -0.0039 1.3594 -4.9812
v  2.3757 1.2920 -4.6493
v  1.6279 1.3296 -4.8399
v  3.2080 1.0678 -4.5653
v  2.9731 1.2496 -4.3676
v  3.3652 1.2120 -4.0968
v  3.3840 1.2105 -4.0842
v  3.3660 1.1180 -4.9792
v  3.2024 1.0286 -5.6875
v  3.4229 1.1681 -4.3962
v  3.4012 1.2089 -4.0717
v  2.4909 0.5945 -7.5600
v  2.1586 0.0882 -9.6177
v  2.4100 0.3719 -8.7558
v  2.7119 0.6666 -7.6197
v  3.0106 0.8970 -6.4554
v  1.7006 -0.1704 -10.0531
v  -0.0082 -0.1312 -10.3652
v  1.4071 -0.1641 -10.4306
v  1.7631 -0.1500 -10.2882
v  1.9356 -0.1014 -10.1222
v  2.0628 -0.0152 -9.8810
v  -1.7164 -0.1704 -10.0504
v  3.4057 1.1775 -4.4024
v  3.3472 1.1243 -4.9776
v  3.3869 1.1791 -4.4024
v  3.3284 1.1274 -4.9760
v  3.1852 1.0396 -5.6859
v  2.4470 1.1258 -5.5976
v  2.1546 0.9424 -6.7384
v  1.2979 1.1556 -5.9180
v  2.9683 0.9064 -6.4710
v  3.1664 1.0412 -5.6844
v  2.9887 0.9048 -6.4632
v  2.6915 0.6760 -7.6275
v  -0.0064 0.7308 -8.1724
v  -0.0056 0.9738 -7.1050
v  0.9905 0.7199 -8.0948
v  1.1074 0.9597 -7.0275
v  1.9108 0.7026 -7.8699
v  2.6696 0.6760 -7.6338
v  2.3897 0.3797 -8.7637
v  2.3677 0.3797 -8.7699
v  -0.0073 0.4205 -9.2382
v  0.8737 0.4158 -9.1574
v  1.6857 0.4064 -8.9606
v  2.1366 0.0945 -9.6271
v  2.1147 0.0960 -9.6333
v  2.0455 -0.0043 -9.8778
v  2.0283 0.0020 -9.8731
v  1.9215 -0.0873 -10.1159
v  1.9058 -0.0811 -10.1065
v  1.5189 0.1054 -9.8178
v  0.7393 -0.1328 -10.5398
v  0.7947 0.1180 -9.9834
v  1.4150 -0.1406 -10.3945
v  1.7427 -0.1281 -10.2616
v  1.7537 -0.1359 -10.2757
v  1.4119 -0.1485 -10.4149
v  0.7378 -0.1406 -10.5570
v  -0.0079 0.1164 -10.0674
v  -0.0083 -0.1250 -10.5956
v  -0.8881 0.4158 -9.1560
v  -0.8104 0.1180 -9.9821
v  -0.7559 -0.1328 -10.5386
v  -1.0032 0.7199 -8.0933
v  -2.6815 0.6760 -7.6295
v  -1.9231 0.7026 -7.8668
v  -1.6998 0.4064 -8.9579
v  -2.9784 0.9064 -6.4663
v  -2.1651 0.9424 -6.7350
v  -1.1183 0.9597 -7.0258
v  -3.1752 1.0412 -5.6793
v  -3.1941 1.0396 -5.6809
v  -2.4557 1.1258 -5.5937
v  -1.3071 1.1556 -5.9159
v  -0.0047 1.1713 -6.0392
v  -3.3549 1.1243 -4.9723
v  -3.3361 1.1274 -4.9707
v  -3.4125 1.1775 -4.3970
v  -3.3937 1.1791 -4.3970
v  -0.1567 0.2042 -9.8855
v  0.1411 0.2042 -9.8857
v  -0.1570 0.0381 -10.2554
v  0.1408 0.0381 -10.2556
v  -2.1298 0.0960 -9.6300
v  -2.0438 0.0020 -9.8698
v  -1.9217 -0.0811 -10.1035
v  -1.7588 -0.1281 -10.2588
v  -1.5344 0.1054 -9.8154
v  -1.4314 -0.1406 -10.3923
v  -2.3815 0.3797 -8.7661
v  -2.7034 0.6760 -7.6232
v  -2.9988 0.9048 -6.4584
# 130 vertices

vn -0.4261 0.8293 -0.3616
vn -0.4794 0.8170 -0.3204
vn -0.4477 0.8297 -0.3333
vn -0.4128 0.8056 -0.4249
vn -0.4267 0.8033 -0.4154
vn -0.4209 0.7821 -0.4596
vn -0.4137 0.7803 -0.4691
vn -0.4536 0.7499 -0.4816
vn -0.4039 0.7737 -0.4882
vn -0.4337 0.7234 -0.5372
vn -0.4792 0.7968 -0.3681
vn -0.4588 0.7953 -0.3963
vn -0.0196 0.7412 -0.6710
vn 0.0186 0.7412 -0.6710
vn 0.1050 0.7314 -0.6738
vn -0.0893 0.7333 -0.6740
vn -0.1247 0.7106 -0.6924
vn -0.1960 0.6784 -0.7081
vn -0.2222 0.6813 -0.6975
vn -0.2811 0.7052 -0.6509
vn -0.3252 0.7177 -0.6157
vn -0.4119 0.7127 -0.5678
vn -0.0083 -0.9706 0.2406
vn 0.1218 -0.8807 0.4577
vn -0.2253 -0.9599 0.1669
vn -0.4203 -0.9059 0.0510
vn -0.3771 -0.9230 0.0759
vn -0.3379 -0.9328 0.1253
vn -0.4409 -0.8872 0.1360
vn -0.3909 -0.9013 0.1865
vn 0.0982 -0.8150 0.5710
vn 0.1470 -0.7927 0.5917
vn 0.2427 -0.7677 0.5931
vn 0.0110 -0.9550 0.2965
vn -0.4200 -0.9070 0.0302
vn -0.3853 -0.9221 0.0360
vn -0.3622 -0.9277 0.0905
vn 0.0158 -0.9598 0.2803
vn 0.3560 -0.8527 0.3822
vn 0.3105 -0.8542 0.4170
vn 0.3341 -0.8638 0.3772
vn 0.3228 -0.8690 0.3750
vn -0.1211 -0.8807 0.4579
vn 0.0004 -0.8911 0.4539
vn -0.0510 -0.8242 0.5640
vn 0.0004 -0.8610 0.5086
vn 0.0519 -0.8242 0.5639
vn 0.0425 -0.9767 0.2102
vn -0.2417 -0.7677 0.5935
vn -0.1461 -0.7927 0.5919
vn -0.0973 -0.8150 0.5712
vn -0.0106 -0.9550 0.2965
vn -0.3098 -0.8542 0.4175
vn -0.3335 -0.8638 0.3777
vn -0.3222 -0.8690 0.3755
vn 0.3854 -0.9221 0.0354
vn 0.3975 -0.9167 0.0404
vn 0.3624 -0.9277 0.0899
vn -0.0153 -0.9598 0.2803
vn -0.3554 -0.8527 0.3828
vn 0.2256 -0.9599 0.1665
vn 0.4648 -0.8850 0.0286
vn 0.4074 -0.8922 0.1948
vn 0.4411 -0.8872 0.1353
vn 0.3381 -0.9328 0.1248
vn 0.3772 -0.9230 0.0753
vn 0.1748 -0.9770 0.1223
vn 0.0001 -0.9899 0.1420
vn 0.3588 -0.9182 0.1680
vn 0.0074 -0.9999 -0.0104
vn -0.0216 -0.9991 0.0360
vn 0.1741 -0.9840 -0.0390
vn 0.3016 -0.9503 0.0776
vn 0.2966 -0.9305 0.2148
vn -0.1746 -0.9770 0.1226
vn -0.0074 -0.9999 -0.0104
vn 0.0175 -0.9986 0.0506
vn 0.0001 -0.9979 0.0653
vn -0.0133 -0.9978 0.0653
vn -0.1741 -0.9840 -0.0387
vn -0.3015 -0.9503 0.0781
vn -0.2962 -0.9305 0.2153
vn 0.1433 0.9854 -0.0921
vn 0.1130 0.9889 -0.0962
vn 0.1285 0.9871 -0.0959
vn 0.1164 0.9852 -0.1258
vn 0.1277 0.9867 -0.1010
vn 0.1548 0.9824 -0.1044
vn 0.1219 0.9840 -0.1301
vn 0.1402 0.9822 -0.1252
vn 0.0825 0.9915 -0.1009
vn 0.1500 0.9771 -0.1511
vn 0.0974 0.9810 -0.1677
vn 0.0906 0.9750 -0.2030
vn 0.0542 0.9821 -0.1803
vn 0.1143 0.9717 -0.2066
vn 0.0961 0.9804 -0.1722
vn 0.1270 0.9700 -0.2071
vn 0.0684 0.9845 -0.1616
vn 0.1447 0.9764 -0.1602
vn 0.1620 0.9596 -0.2299
vn 0.0294 0.9676 -0.2508
vn -0.0002 0.9795 -0.2014
vn 0.0482 0.9680 -0.2463
vn 0.0499 0.9779 -0.2028
vn 0.0965 0.9626 -0.2530
vn 0.0925 0.9646 -0.2468
vn 0.0683 0.9684 -0.2398
vn 0.0771 0.9596 -0.2707
vn 0.1207 0.9523 -0.2804
vn 0.0338 0.9461 -0.3220
vn 0.0308 0.9597 -0.2795
vn 0.0941 0.9501 -0.2973
vn 0.0858 0.9569 -0.2776
vn 0.1177 0.9409 -0.3176
vn 0.0867 0.9486 -0.3043
vn 0.1483 0.9175 -0.3692
vn 0.1584 0.9106 -0.3818
vn 0.1950 0.8878 -0.4169
vn 0.1326 0.9295 -0.3442
vn 0.1648 0.8987 -0.4065
vn 0.2061 0.8834 -0.4208
vn 0.1644 0.8970 -0.4103
vn 0.1290 0.9067 -0.4015
vn 0.1289 0.9110 -0.3918
vn 0.1289 0.9090 -0.3963
vn 0.1230 0.9287 -0.3500
vn 0.0964 0.9104 -0.4022
vn 0.1014 0.9152 -0.3900
vn 0.1174 0.9082 -0.4017
vn 0.1286 0.9043 -0.4070
vn 0.1248 0.9062 -0.4039
vn 0.1179 0.9205 -0.3725
vn 0.0989 0.9024 -0.4194
vn 0.0946 0.9139 -0.3947
vn 0.0902 0.9247 -0.3698
vn 0.0899 0.9415 -0.3249
vn 0.0952 0.9335 -0.3457
vn 0.0343 0.9500 -0.3103
vn 0.0322 0.9600 -0.2782
vn 0.0364 0.9390 -0.3420
vn 0.0379 0.9245 -0.3793
vn 0.0388 0.9194 -0.3914
vn 0.0409 0.9088 -0.4153
vn 0.0415 0.8985 -0.4370
vn 0.0406 0.9082 -0.4167
vn 0.0432 0.8771 -0.4784
vn -0.0342 0.9463 -0.3215
vn -0.0384 0.9247 -0.3788
vn -0.0393 0.9197 -0.3906
vn -0.0431 0.8989 -0.4360
vn -0.0457 0.8770 -0.4783
vn -0.0488 0.9681 -0.2457
vn -0.0311 0.9601 -0.2781
vn -0.0395 0.9083 -0.4164
vn -0.0298 0.9700 -0.2412
vn -0.0350 0.9495 -0.3119
vn -0.0371 0.9382 -0.3440
vn -0.1068 0.9627 -0.2485
vn -0.0971 0.9628 -0.2522
vn -0.1220 0.9513 -0.2832
vn -0.1187 0.9703 -0.2109
vn -0.0894 0.9747 -0.2047
vn -0.0505 0.9782 -0.2016
vn -0.0980 0.9814 -0.1649
vn -0.0973 0.9797 -0.1752
vn -0.0929 0.9820 -0.1646
vn -0.0544 0.9821 -0.1801
vn 0.0034 0.9835 -0.1808
vn -0.0723 0.9833 -0.1667
vn -0.1255 0.9834 -0.1313
vn -0.1239 0.9845 -0.1242
vn -0.1404 0.9822 -0.1249
vn -0.1211 0.9773 -0.1737
vn -0.1189 0.9877 -0.1017
vn -0.1458 0.9847 -0.0955
vn -0.1528 0.9837 -0.0948
vn -0.1260 0.9872 -0.0978
vn -0.0827 0.9918 -0.0977
vn -0.0737 0.9808 -0.1806
vn -0.0305 0.9835 -0.1784
vn -0.0001 0.9846 -0.1750
vn 0.0302 0.9835 -0.1784
vn 0.0725 0.9822 -0.1736
vn 0.0915 0.9820 -0.1652
vn -0.0003 0.9122 -0.4097
vn -0.1669 0.9207 -0.3527
vn -0.1526 0.9126 -0.3792
vn -0.1751 0.9062 -0.3849
vn -0.1958 0.8877 -0.4167
vn -0.1655 0.8986 -0.4063
vn -0.1651 0.8970 -0.4101
vn -0.2069 0.8834 -0.4205
vn -0.1297 0.9067 -0.4013
vn -0.1263 0.9068 -0.4023
vn -0.1270 0.9078 -0.3996
vn -0.1255 0.9053 -0.4057
vn -0.1312 0.9063 -0.4018
vn -0.1263 0.9112 -0.3921
vn -0.1166 0.9090 -0.4001
vn -0.1163 0.9210 -0.3719
vn -0.0938 0.9171 -0.3874
vn -0.1038 0.9044 -0.4140
vn -0.1039 0.9183 -0.3820
vn -0.1013 0.9022 -0.4192
vn -0.0892 0.9250 -0.3693
vn -0.1350 0.9265 -0.3512
vn -0.1040 0.9456 -0.3084
vn -0.0964 0.9452 -0.3119
vn -0.0959 0.9333 -0.3460
vn -0.1296 0.9110 -0.3916
vn -0.0870 0.9489 -0.3034
vn -0.0715 0.9657 -0.2495
vn -0.1255 0.9685 -0.2151
vn -0.0871 0.9494 -0.3016
vn -0.0875 0.9552 -0.2828
vn 0.4099 0.8065 -0.4261
vn 0.4258 0.8286 -0.3635
vn 0.4277 0.8024 -0.4162
vn 0.4529 0.7498 -0.4824
vn 0.4154 0.7847 -0.4600
vn 0.4785 0.7974 -0.3677
vn 0.4580 0.7960 -0.3957
vn 0.4111 0.7125 -0.5686
vn 0.4889 0.7126 -0.5032
vn 0.4789 0.8172 -0.3206
vn 0.4475 0.8291 -0.3351
vn 0.3109 0.7000 -0.6429
vn 0.4041 0.7275 -0.5544
vn 0.2870 0.7362 -0.6129
vn 0.2199 0.6827 -0.6968
vn 0.1924 0.6792 -0.7082
vn 0.1235 0.7107 -0.6925
vn 0.0566 0.7363 -0.6743
vn 0.4117 0.7779 -0.4746
vn 0.4031 0.7736 -0.4889
vn 0.4203 0.7820 -0.4603
vn -0.4671 0.8314 -0.3012
vn -0.4352 0.8584 -0.2715
vn -0.4383 0.8589 -0.2650
vn -0.4718 0.8463 -0.2474
vn -0.4386 0.8702 -0.2247
vn -0.3737 0.9115 -0.1719
vn -0.3740 0.9166 -0.1409
vn -0.4411 0.8912 -0.1056
vn -0.3947 0.9134 -0.0999
vn -0.3327 0.9393 -0.0842
vn -0.1556 0.9836 -0.0909
vn 0.3967 0.9127 -0.0983
vn 0.3370 0.9377 -0.0852
vn 0.1700 0.9791 -0.1116
vn 0.4385 0.8932 -0.0998
vn 0.3727 0.9168 -0.1436
vn 0.3732 0.9111 -0.1750
vn 0.4384 0.8703 -0.2245
vn 0.4722 0.8465 -0.2460
vn 0.4384 0.8584 -0.2663
vn 0.4350 0.8580 -0.2731
vn 0.4666 0.8315 -0.3016
# 259 vertex normals

vt 0.0233 0.4930 0.0000
vt 0.0118 0.4930 0.0000
vt 0.3137 0.5667 0.0000
vt 0.3393 0.5285 0.0000
vt 0.3648 0.5674 0.0000
vt 0.3722 0.5297 0.0000
vt 0.3710 0.5461 0.0000
vt 0.3688 0.5676 0.0000
vt 0.3660 0.5890 0.0000
vt 0.3636 0.6035 0.0000
vt 0.3264 0.5272 0.0000
vt 0.3425 0.5234 0.0000
vt 0.3542 0.5168 0.0000
vt 0.3684 0.5106 0.0000
vt 0.3725 0.5168 0.0000
vt 0.3714 0.5065 0.0000
vt 0.3699 0.5010 0.0000
vt 0.3644 0.5094 0.0000
vt 0.3137 0.5328 0.0000
vt 0.3137 0.5275 0.0000
vt 0.3568 0.6130 0.0000
vt 0.3137 0.6178 0.0000
vt 0.3525 0.6202 0.0000
vt 0.3360 0.6218 0.0000
vt 0.3584 0.6169 0.0000
vt 0.3620 0.6130 0.0000
vt 0.3626 0.6086 0.0000
vt 0.3137 0.6212 0.0000
vt 0.3355 0.3525 0.0000
vt 0.3248 0.3533 0.0000
vt 0.3052 0.3516 0.0000
vt 0.3255 0.3404 0.0000
vt 0.2812 0.3471 0.0000
vt 0.2837 0.3254 0.0000
vt 0.2455 0.3168 0.0000
vt 0.2723 0.2916 0.0000
vt 0.2547 0.3408 0.0000
vt 0.3159 0.3229 0.0000
vt 0.2155 0.3327 0.0000
vt 0.1953 0.2535 0.0000
vt 0.2315 0.2533 0.0000
vt 0.1989 0.2830 0.0000
vt 0.2351 0.2861 0.0000
vt 0.2067 0.3100 0.0000
vt 0.1772 0.3242 0.0000
vt 0.1597 0.2537 0.0000
vt 0.1627 0.2795 0.0000
vt 0.1700 0.3035 0.0000
vt 0.1478 0.3168 0.0000
vt 0.1394 0.3143 0.0000
vt 0.1311 0.3107 0.0000
vt 0.1411 0.2988 0.0000
vt 0.1162 0.2759 0.0000
vt 0.1348 0.2776 0.0000
vt 0.1215 0.2958 0.0000
vt 0.1261 0.3056 0.0000
vt 0.1314 0.2539 0.0000
vt 0.1138 0.2540 0.0000
vt 0.1616 0.2279 0.0000
vt 0.1338 0.2301 0.0000
vt 0.1153 0.2320 0.0000
vt 0.1977 0.2241 0.0000
vt 0.2123 0.1746 0.0000
vt 0.2044 0.1969 0.0000
vt 0.1679 0.2038 0.0000
vt 0.2512 0.1656 0.0000
vt 0.2429 0.1897 0.0000
vt 0.2337 0.2205 0.0000
vt 0.2779 0.1598 0.0000
vt 0.2808 0.1807 0.0000
vt 0.2707 0.2146 0.0000
vt 0.2676 0.2531 0.0000
vt 0.3123 0.1824 0.0000
vt 0.3012 0.1542 0.0000
vt 0.3220 0.1652 0.0000
vt 0.3207 0.1523 0.0000
vt 0.3315 0.1530 0.0000
vt 0.3071 0.2048 0.0000
vt 0.3033 0.2317 0.0000
vt 0.3032 0.2529 0.0000
vt 0.3042 0.2741 0.0000
vt 0.3091 0.3009 0.0000
vt 0.9985 0.5972 0.0000
vt 0.9255 0.5972 0.0000
vt 0.9985 0.5016 0.0000
vt 0.9255 0.5016 0.0000
vt 0.1744 0.1831 0.0000
vt 0.1452 0.1913 0.0000
vt 0.1370 0.1934 0.0000
vt 0.1287 0.1970 0.0000
vt 0.1235 0.2020 0.0000
vt 0.1193 0.2121 0.0000
vt 0.1392 0.2089 0.0000
# 93 texture coords

o part_015
g part_015
usemtl Porsche_911_GT2_default
s 1
f 1/1/1 2/1/2 3/2/3 
f 4/1/4 1/1/1 5/2/5 
f 4/1/4 5/2/6 6/1/7 
f 7/2/8 6/1/7 5/2/5 
f 6/1/7 7/2/9 8/1/10 
f 3/2/11 5/2/5 1/1/12 
f 9/1/13 10/2/14 11/1/15 
f 10/2/14 9/1/13 12/2/16 
f 13/1/17 12/2/16 9/1/13 
f 12/2/16 13/1/17 14/2/18 
f 15/1/19 14/2/18 13/1/17 
f 14/2/18 15/1/19 16/2/20 
f 17/1/21 16/2/20 15/1/19 
f 16/2/20 17/1/21 18/2/22 
f 8/1/10 18/2/22 17/1/21 
f 18/2/22 8/1/10 7/2/8 
f 19/3/23 20/4/24 21/5/25 
f 22/6/26 23/7/27 21/5/25 
f 2/8/28 21/5/25 23/7/27 
f 21/5/25 2/8/28 1/9/29 
f 1/9/29 4/10/30 21/5/25 
f 24/11/31 25/12/32 20/4/24 
f 26/13/33 20/4/24 25/12/32 
f 27/14/34 20/4/24 26/13/33 
f 20/4/24 27/14/34 21/5/25 
f 21/5/25 27/14/34 22/6/35 
f 22/6/35 27/14/34 28/15/36 
f 28/15/36 27/14/34 29/16/37 
f 29/16/37 27/14/34 30/17/38 
f 31/17/39 30/17/38 27/14/34 
f 26/13/33 32/18/40 27/14/34 
f 33/17/41 27/14/34 32/18/40 
f 31/17/42 27/14/34 33/17/41 
f 19/3/23 34/4/43 35/19/44 
f 36/11/45 35/19/44 34/4/43 
f 37/20/46 35/19/44 36/11/45 
f 24/11/47 35/19/44 37/20/46 
f 20/4/24 35/19/44 24/11/47 
f 19/3/48 35/19/44 20/4/24 
f 38/13/49 39/12/50 34/4/43 
f 36/11/51 34/4/43 39/12/50 
f 34/4/43 40/14/52 38/13/49 
f 38/13/49 40/14/52 41/18/53 
f 41/18/53 40/14/52 42/17/54 
f 43/17/55 42/17/54 40/14/52 
f 44/15/56 40/14/52 45/6/57 
f 46/16/58 40/14/52 44/15/56 
f 47/17/59 40/14/52 46/16/58 
f 40/14/52 47/17/59 43/17/60 
f 40/14/52 48/5/61 45/6/62 
f 49/10/63 50/9/64 48/5/61 
f 51/8/65 48/5/61 50/9/64 
f 52/7/66 48/5/61 51/8/65 
f 45/6/57 48/5/61 52/7/66 
f 53/21/67 48/5/61 54/22/68 
f 48/5/61 53/21/67 49/10/69 
f 53/21/67 54/22/68 55/23/70 
f 11/24/71 55/23/70 54/22/68 
f 55/23/70 56/25/72 53/21/67 
f 57/26/73 53/21/67 56/25/72 
f 58/27/74 53/21/67 57/26/73 
f 53/21/67 58/27/74 49/10/63 
f 59/21/75 15/23/76 54/22/68 
f 13/24/77 54/22/68 15/23/76 
f 9/28/78 54/22/68 13/24/77 
f 54/22/68 9/28/78 11/24/79 
f 15/23/76 59/21/75 17/25/80 
f 17/25/80 59/21/75 8/26/81 
f 8/26/81 59/21/75 6/27/82 
f 6/27/82 59/21/75 4/10/30 
f 4/10/30 59/21/75 21/5/25 
f 54/22/68 21/5/25 59/21/75 
f 21/5/25 54/22/68 19/3/23 
f 48/5/61 19/3/23 54/22/68 
f 19/3/23 48/5/61 34/4/43 
f 40/14/52 34/4/43 48/5/61 
f 43/29/83 60/30/84 42/29/85 
f 60/30/84 61/31/86 62/30/87 
f 61/31/88 63/31/89 62/30/87 
f 41/32/90 62/30/87 63/31/89 
f 42/29/85 62/30/87 41/32/90 
f 62/30/87 42/29/85 60/30/91 
f 61/31/86 64/33/92 63/31/89 
f 65/34/93 66/35/94 67/36/95 
f 66/35/94 65/34/93 68/37/96 
f 69/33/97 68/37/96 65/34/93 
f 68/37/96 69/33/97 70/37/98 
f 70/37/98 69/33/97 64/33/99 
f 64/33/99 69/33/97 63/31/89 
f 65/34/93 63/31/89 69/33/97 
f 63/31/89 65/34/93 41/32/90 
f 38/38/100 41/32/90 65/34/93 
f 70/37/98 71/39/101 68/37/96 
f 72/40/102 73/41/103 74/42/104 
f 75/43/105 74/42/104 73/41/103 
f 74/42/104 75/43/105 76/44/106 
f 66/35/94 76/44/106 75/43/105 
f 76/44/106 66/35/94 77/39/107 
f 68/37/96 77/39/107 66/35/94 
f 71/39/108 77/39/107 68/37/96 
f 77/39/107 71/39/108 78/45/109 
f 77/39/107 79/45/110 76/44/106 
f 80/46/111 72/40/102 81/47/112 
f 76/44/106 82/48/113 74/42/114 
f 82/48/113 76/44/106 79/45/115 
f 77/39/107 78/45/116 79/45/115 
f 83/49/117 79/45/115 78/45/116 
f 84/49/118 83/49/117 85/50/119 
f 83/49/117 84/49/118 79/45/115 
f 82/48/120 79/45/115 84/49/118 
f 86/50/121 84/49/118 85/50/122 
f 85/50/119 87/51/123 86/50/121 
f 88/51/124 86/50/121 87/51/125 
f 89/52/126 86/50/121 88/51/124 
f 86/50/121 89/52/126 84/49/118 
f 82/48/127 84/49/118 89/52/126 
f 90/53/128 91/54/129 92/55/130 
f 89/52/126 92/55/130 91/54/129 
f 92/55/130 89/52/126 93/56/131 
f 88/51/124 93/56/131 89/52/126 
f 93/56/131 88/51/124 94/56/132 
f 87/51/123 94/56/132 88/51/124 
f 93/56/131 94/56/132 92/55/130 
f 95/55/133 92/55/130 94/56/133 
f 96/53/134 90/53/128 95/55/135 
f 92/55/136 95/55/135 90/53/128 
f 91/54/129 81/47/137 89/52/138 
f 74/42/104 82/48/113 81/47/137 
f 89/52/138 81/47/137 82/48/113 
f 74/42/104 81/47/139 72/40/140 
f 81/47/139 91/54/141 80/46/111 
f 80/46/111 91/54/142 97/57/143 
f 90/53/144 97/57/143 91/54/142 
f 97/57/143 90/53/144 98/58/145 
f 96/53/146 98/58/145 90/53/144 
f 10/58/147 98/58/145 96/53/147 
f 99/59/148 97/57/149 100/60/150 
f 98/58/151 100/60/150 97/57/149 
f 100/60/150 98/58/151 101/61/151 
f 10/58/152 101/61/151 98/58/151 
f 99/59/148 102/62/153 80/46/154 
f 12/61/155 101/61/151 10/58/155 
f 72/40/156 80/46/157 102/62/153 
f 80/46/157 97/57/158 99/59/148 
f 103/63/159 104/64/160 105/65/161 
f 106/66/162 104/64/160 103/63/159 
f 107/67/163 104/64/160 106/66/162 
f 104/64/160 107/67/163 102/62/153 
f 108/68/164 102/62/153 107/67/163 
f 102/62/153 108/68/164 72/40/156 
f 73/41/103 72/40/156 108/68/164 
f 109/69/165 106/66/162 110/69/166 
f 106/66/162 109/69/165 107/67/163 
f 111/70/167 107/67/163 109/69/165 
f 107/67/163 111/70/167 108/68/164 
f 112/71/168 108/68/164 111/70/167 
f 108/68/164 112/71/168 73/41/103 
f 113/72/169 73/41/103 112/71/168 
f 73/41/103 113/72/169 75/43/105 
f 67/36/95 75/43/105 113/72/169 
f 75/43/105 67/36/95 66/35/94 
f 111/70/167 26/73/170 112/71/168 
f 110/69/166 114/74/171 109/69/165 
f 115/74/172 109/69/165 114/74/171 
f 109/69/165 115/74/172 111/70/167 
f 32/75/173 111/70/167 115/74/172 
f 111/70/167 32/75/173 26/73/174 
f 114/74/171 116/76/175 115/74/172 
f 31/77/176 33/77/177 117/76/178 
f 32/75/173 117/76/178 33/77/177 
f 115/74/172 117/76/178 32/75/173 
f 117/76/178 115/74/172 116/76/179 
f 116/76/175 31/77/179 117/76/178 
f 26/73/174 25/78/180 112/71/168 
f 24/79/181 112/71/168 25/78/180 
f 112/71/168 24/79/181 113/72/169 
f 37/80/182 113/72/169 24/79/181 
f 36/81/183 113/72/169 37/80/182 
f 113/72/169 36/81/183 67/36/95 
f 39/82/184 67/36/95 36/81/183 
f 67/36/95 39/82/184 65/34/93 
f 38/38/185 65/34/93 39/82/184 
f 118/83/186 119/84/186 120/85/186 
f 121/86/186 120/85/186 119/84/186 
f 3/87/187 122/88/188 5/88/189 
f 7/89/190 5/88/189 122/88/188 
f 7/89/190 123/89/191 18/90/192 
f 123/89/191 7/89/193 122/88/188 
f 18/90/192 124/90/194 16/91/195 
f 125/91/196 16/91/197 124/90/194 
f 16/91/195 125/91/196 14/92/198 
f 124/90/194 126/93/199 125/91/196 
f 127/92/200 125/91/196 126/93/199 
f 125/91/196 127/92/200 14/92/201 
f 127/92/202 126/93/199 101/61/203 
f 100/60/204 101/61/203 126/93/199 
f 101/61/203 12/61/205 127/92/200 
f 14/92/206 127/92/202 12/61/206 
f 105/65/207 126/93/199 128/87/208 
f 128/87/208 103/63/159 105/65/209 
f 126/93/210 105/65/209 100/60/204 
f 123/89/191 124/90/194 18/90/211 
f 124/90/194 123/89/191 126/93/199 
f 122/88/188 126/93/199 123/89/191 
f 126/93/199 122/88/188 128/87/208 
f 3/87/212 128/87/208 122/88/188 
f 129/63/213 128/87/208 3/87/212 
f 128/87/208 129/63/213 103/63/159 
f 130/66/214 103/63/159 129/63/213 
f 103/63/159 130/66/214 106/66/162 
f 110/69/166 106/66/162 130/66/214 
f 100/60/210 105/65/209 99/59/215 
f 104/64/160 99/59/215 105/65/209 
f 99/59/215 104/64/160 102/62/216 
f 83/2/217 78/2/218 49/1/219 
f 85/2/220 83/2/217 58/1/221 
f 50/1/222 49/1/219 78/2/223 
f 87/2/224 85/2/220 57/1/225 
f 78/2/218 71/2/226 50/1/227 
f 56/1/228 87/2/224 57/1/229 
f 87/2/224 56/1/228 94/2/230 
f 94/2/230 56/1/228 95/2/231 
f 55/1/232 95/2/231 56/1/228 
f 95/2/231 55/1/232 96/2/233 
f 11/1/15 96/2/233 55/1/232 
f 96/2/233 11/1/234 10/2/14 
f 58/1/235 57/1/229 85/2/236 
f 49/1/219 58/1/235 83/2/237 
f 3/2/11 2/1/2 129/2/238 
f 23/1/239 129/2/238 2/1/2 
f 129/2/238 23/1/239 130/2/240 
f 22/1/241 130/2/240 23/1/239 
f 130/2/240 22/1/241 110/2/242 
f 28/1/243 110/2/242 22/1/241 
f 110/2/242 28/1/243 114/2/244 
f 29/1/245 114/2/244 28/1/243 
f 114/2/244 29/1/245 116/2/246 
f 30/1/247 116/2/246 29/1/245 
f 116/2/246 30/1/247 31/2/248 
f 46/1/249 43/2/250 47/1/251 
f 43/2/250 46/1/249 60/2/252 
f 44/1/253 60/2/252 46/1/249 
f 60/2/252 44/1/253 61/2/254 
f 45/1/255 61/2/254 44/1/253 
f 61/2/254 45/1/255 64/2/256 
f 52/1/257 64/2/256 45/1/255 
f 64/2/256 52/1/257 70/2/258 
f 51/1/259 70/2/258 52/1/257 
f 70/2/258 51/1/259 71/2/226 
f 50/1/222 71/2/226 51/1/259 
# 0 polygons - 250 triangles

