# 3ds Max Wavefront OBJ Exporter v0.99 - (c)2007 guruware
# File Created: 01.04.2025 17:06:19

mtllib cauchoo.mtl

#
# object cauchooad
#

v  0.6717 -0.5708 1.3193
v  -0.7002 -0.5701 1.3183
v  0.6716 -0.8318 1.1714
v  -0.7003 -0.8312 1.1704
v  0.6717 -1.0575 0.9736
v  -0.7971 -0.9209 1.0447
v  -0.7970 -0.4151 1.3291
v  0.7619 -0.7961 1.1188
v  0.7619 -1.0099 0.9295
v  -0.7002 -1.0569 0.9727
v  0.6717 -1.2374 0.7320
v  -0.7002 -1.2367 0.7311
v  0.6719 -1.3618 0.4581
v  -0.7970 -1.2661 0.5800
v  0.7621 -1.1812 0.6988
v  0.7621 -1.3005 0.4383
v  -0.7001 -1.3612 0.4572
v  0.7684 -0.7760 -0.6829
v  0.7631 -0.7300 -0.7592
v  0.7752 -0.6775 -0.7529
v  0.7631 -0.7954 -0.7015
v  0.7670 -0.8997 -0.5088
v  0.7617 -0.9236 -0.5209
v  0.7735 -0.9333 -0.3927
v  0.7616 -0.9573 -0.4391
v  0.6747 -0.5982 -1.3068
v  0.7649 -0.5712 -1.2485
v  0.6745 -0.8567 -1.1536
v  0.7647 -0.8185 -1.1020
v  0.6723 -1.4308 -0.1343
v  -0.6997 -1.4302 -0.1351
v  0.6724 -1.3713 -0.4289
v  -0.6995 -1.3707 -0.4297
v  0.6728 -1.2516 -0.7051
v  -0.7963 -1.2786 -0.5549
v  -0.7966 -1.3926 0.0134
v  0.7626 -1.3101 -0.4097
v  0.7630 -1.1959 -0.6736
v  -0.6993 -1.2510 -0.7060
v  0.6742 -1.0780 -0.9496
v  -0.6978 -1.0774 -0.9505
v  -0.7944 -0.9430 -1.0275
v  0.7645 -1.0300 -0.9072
v  -0.6974 -0.8561 -1.1545
v  -0.7936 1.1196 -0.8319
v  -0.7935 0.6844 -1.2158
v  -0.7527 0.9021 -0.6723
v  -0.7527 0.5519 -0.9812
v  -0.7528 0.1059 -1.1206
v  -0.7938 1.3610 -0.3057
v  -0.7937 0.1319 -1.3886
v  -0.7528 1.0968 -0.2477
v  -0.7530 -0.3588 -1.0666
v  -0.7941 -0.4440 -1.3224
v  -0.7531 1.1018 0.2196
v  -0.7549 0.9168 0.6497
v  -0.7942 1.3670 0.2745
v  -0.7552 0.5726 0.9648
v  -0.7959 1.1375 0.8063
v  -0.7534 -0.7600 -0.8292
v  -0.7556 0.1298 1.1142
v  -0.7969 0.1612 1.3837
v  -0.7557 -0.3353 1.0701
v  -0.7550 -1.0311 -0.4474
v  -0.7557 -0.7423 0.8414
v  -0.7556 -1.0209 0.4661
v  -0.7555 -1.1230 0.0096
v  -0.7002 -0.2838 1.4078
v  0.6717 -0.2845 1.4088
v  -0.7001 0.0160 1.4369
v  0.7621 -0.2705 1.3454
v  0.7619 -0.5448 1.2597
v  0.6719 0.0154 1.4377
v  0.7663 -1.0522 0.3544
v  0.7675 -0.9553 0.5662
v  0.7939 -1.0550 0.6241
v  0.7925 -0.9013 0.8292
v  0.7661 -0.8173 0.7522
v  0.7925 -0.7108 0.9987
v  0.7939 -0.4859 1.1241
v  0.7927 -0.2416 1.2017
v  0.7675 -0.4409 1.0194
v  0.7661 -0.6440 0.9046
v  0.7621 0.0147 1.3723
v  0.7663 -0.2191 1.0875
v  0.7927 0.0135 1.2250
v  0.7624 0.3002 1.3391
v  0.7663 0.0121 1.1101
v  0.7943 0.2673 1.1953
v  0.7624 0.5720 1.2474
v  0.7677 0.2426 1.0834
v  0.7931 0.5104 1.1142
v  0.7626 0.8185 1.1019
v  0.7666 0.4631 1.0089
v  0.7932 0.7307 0.9826
v  0.7630 1.0300 0.9071
v  0.7668 0.6620 0.8916
v  0.7948 0.9195 0.8108
v  0.7645 1.1959 0.6735
v  0.7682 0.8331 0.7332
v  0.7950 1.0685 0.6009
v  0.7647 1.3101 0.4097
v  0.7684 0.9675 0.5438
v  0.7952 1.1685 0.3661
v  0.7649 1.3662 0.1290
v  0.7687 1.0599 0.3312
v  0.7966 1.2201 0.1149
v  0.7651 1.3633 -0.1578
v  0.7701 1.1049 0.1030
v  0.7955 1.2167 -0.1414
v  0.7652 1.3005 -0.4383
v  0.7689 1.1029 -0.1280
v  0.7957 1.1611 -0.3909
v  0.7654 1.1812 -0.6988
v  0.7691 1.0522 -0.3544
v  0.7971 1.0550 -0.6241
v  0.7654 1.0099 -0.9295
v  0.7705 0.9553 -0.5663
v  0.7959 0.9013 -0.8292
v  0.7654 0.7939 -1.1203
v  0.7693 0.8173 -0.7522
v  0.7959 0.7086 -1.0002
v  0.7654 0.5448 -1.2598
v  0.7693 0.6418 -0.9061
v  0.7971 0.4867 -1.1253
v  0.7654 0.2705 -1.3455
v  0.7705 0.4409 -1.0195
v  0.7957 0.2416 -1.2017
v  0.7652 -0.0147 -1.3723
v  0.7691 0.2199 -1.0886
v  0.7957 -0.0136 -1.2251
v  0.7651 -0.2995 -1.3403
v  0.7691 -0.0121 -1.1102
v  0.7969 -0.2673 -1.1954
v  0.7703 -0.2426 -1.0835
v  0.7953 -0.5104 -1.1142
v  0.7687 -0.4623 -1.0101
v  0.7952 -0.7300 -0.9837
v  0.7687 -0.6620 -0.8916
v  0.7962 -0.9195 -0.8108
v  0.7698 -0.8323 -0.7343
v  0.7934 -1.0677 -0.6021
v  0.7670 -0.9667 -0.5450
v  0.7932 -1.1686 -0.3661
v  0.7624 -1.3662 -0.1291
v  0.7668 -1.0599 -0.3313
v  0.7943 -1.2194 -0.1158
v  0.7624 -1.3633 0.1578
v  0.7679 -1.1052 -0.1048
v  0.7929 -1.2167 0.1416
v  0.7665 -1.1029 0.1279
v  0.7927 -1.1611 0.3909
v  0.7665 0.2286 1.0117
v  0.7666 0.4308 0.9421
v  0.7612 0.2337 1.0364
v  0.7612 0.4426 0.9667
v  0.7733 0.5258 0.8681
v  0.7614 0.5176 0.9207
v  0.7731 0.1072 1.0085
v  0.7610 0.1458 1.0457
v  0.7687 1.0326 0.0971
v  0.7689 1.0297 -0.1165
v  0.7635 1.0579 0.1005
v  0.7635 1.0556 -0.1209
v  0.7756 0.9885 -0.2304
v  0.7637 1.0353 -0.2069
v  0.7752 0.9920 0.2115
v  0.7633 1.0391 0.1863
v  -0.6973 1.4308 0.1343
v  0.6747 1.4301 0.1353
v  0.6745 1.3714 0.4288
v  -0.6971 1.4282 -0.1667
v  0.6749 1.4276 -0.1659
v  -0.6974 1.3720 0.4278
v  0.7691 0.4108 -0.9497
v  0.7691 0.2077 -1.0143
v  0.7638 0.4230 -0.9737
v  0.7638 0.2110 -1.0396
v  0.7757 0.0857 -1.0098
v  0.7638 0.1240 -1.0476
v  0.7757 0.5077 -0.8777
v  0.7638 0.4990 -0.9295
v  -0.6967 1.0582 -0.9747
v  0.6752 1.0576 -0.9738
v  0.6751 1.2375 -0.7322
v  -0.6966 0.8325 -1.1724
v  0.6752 0.8319 -1.1715
v  -0.6967 1.2381 -0.7330
v  0.7663 -0.8894 0.5285
v  0.7663 -0.7624 0.7000
v  0.7610 -0.9119 0.5417
v  0.7609 -0.7802 0.7183
v  0.7729 -0.6613 0.7685
v  0.7609 -0.7142 0.7765
v  0.7729 -0.9251 0.4137
v  0.7610 -0.9485 0.4604
v  -0.6969 1.3625 -0.4592
v  0.6751 1.3619 -0.4583
v  -0.6997 0.5989 1.3057
v  -0.7964 0.7111 1.1982
v  -0.7000 0.3145 1.4015
v  0.6721 0.3139 1.4025
v  0.6723 0.5983 1.3066
v  -0.6978 1.2524 0.7041
v  0.6742 1.2517 0.7049
v  0.6728 1.0781 0.9495
v  -0.6993 1.0788 0.9485
v  -0.6995 0.8574 1.1525
v  0.6724 0.8568 1.1535
v  -0.6969 -0.0155 -1.4378
v  -0.6971 -0.3131 -1.4035
v  -0.6967 0.2852 -1.4097
v  0.6751 -0.0161 -1.4369
v  0.6749 -0.3138 -1.4026
v  0.6751 0.2846 -1.4088
v  0.6910 -0.9316 -0.1866
v  0.6928 -0.8648 -0.6175
v  0.6912 -0.8715 -0.3766
v  0.6910 -1.0412 0.0089
v  0.6910 -0.9496 0.0106
v  0.6908 -0.9274 0.2085
v  0.6914 -0.7744 -0.5500
v  0.6929 -0.6426 -0.6989
v  0.6933 -0.3282 -0.9882
v  0.6931 -0.4831 -0.8183
v  0.6931 -0.3028 -0.9002
v  0.6933 -0.1087 -0.9445
v  0.6936 0.3219 -1.0146
v  0.6933 0.0909 -0.9460
v  0.6935 0.2859 -0.9067
v  0.6935 0.4677 -0.8281
v  0.6936 0.8391 -0.6180
v  0.6935 0.6299 -0.7129
v  0.6935 0.7651 -0.5665
v  0.6933 0.8653 -0.3960
v  0.6933 1.0652 -0.0083
v  0.6933 0.9297 -0.2071
v  0.6931 0.9526 -0.0103
v  0.6931 0.9339 0.1880
v  0.6914 0.8490 0.6077
v  0.6929 0.8738 0.3780
v  0.6914 0.7766 0.5514
v  0.6912 0.6449 0.7003
v  0.6908 0.3387 1.0100
v  0.6910 0.4853 0.8196
v  0.6910 0.3051 0.9015
v  0.6908 0.1109 0.9460
v  0.6907 -0.3138 0.9941
v  0.6908 -0.0887 0.9474
v  0.6907 -0.2826 0.9089
v  0.6907 -0.4665 0.8287
v  0.6905 -0.8553 0.6339
v  0.6908 -0.8631 0.3974
v  -0.7690 -0.7430 0.8538
v  -0.7437 -0.7589 0.7043
v  -0.7690 -0.9047 0.6806
v  -0.6967 0.5715 -1.3203
v  0.6752 0.5709 -1.3194
v  -0.7437 -0.9806 0.3337
v  -0.7689 -1.0257 0.4774
v  -0.7689 -1.1026 0.2536
v  -0.7000 -1.4269 0.1649
v  0.6721 -1.4275 0.1658
v  -0.7434 -1.0312 -0.0944
v  -0.7687 -1.1310 0.0187
v  -0.7685 -1.1111 -0.2179
v  -0.7430 -0.9031 -0.5062
v  -0.7683 -1.0411 -0.4448
v  -0.7682 -0.9250 -0.6519
v  -0.6973 -0.5976 -1.3077
v  -0.7667 -0.7706 -0.8303
v  -0.7414 -0.6186 -0.8313
v  -0.7664 -0.5806 -0.9719
v  -0.7410 -0.2268 -1.0119
v  -0.7662 -0.3656 -1.0730
v  -0.7661 -0.1347 -1.1255
v  -0.7409 0.2033 -1.0172
v  -0.7661 0.1025 -1.1295
v  -0.7660 0.3349 -1.0833
v  -0.7408 0.6003 -0.8476
v  -0.7660 0.5522 -0.9908
v  -0.7660 0.7466 -0.8543
v  -0.7409 0.8928 -0.5309
v  -0.7660 0.9082 -0.6810
v  -0.7661 1.0292 -0.4779
v  -0.7410 1.0324 -0.1226
v  -0.7661 1.1062 -0.2541
v  -0.7662 1.1346 -0.0191
v  -0.7414 0.9928 0.3066
v  -0.7664 1.1147 0.2174
v  -0.7667 1.0447 0.4443
v  0.6894 -0.7132 0.6584
v  0.6894 -0.3844 0.8919
v  -0.7437 -0.4077 0.9521
v  0.6894 -0.9187 0.3108
v  0.6894 0.0115 0.9713
v  -0.7437 0.0157 1.0363
v  0.6896 -0.9657 -0.0904
v  0.6896 0.4057 0.8835
v  -0.7434 0.4363 0.9413
v  0.6900 -0.8454 -0.4752
v  0.6900 0.7294 0.6431
v  -0.7430 0.7818 0.6839
v  0.6917 -0.5781 -0.7784
v  0.6917 0.9275 0.2908
v  0.6919 -0.2109 -0.9471
v  0.6919 0.9659 -0.1115
v  0.6922 0.1927 -0.9518
v  0.6922 0.8373 -0.4940
v  0.6922 0.5634 -0.7911
v  0.7635 -0.3096 1.0134
v  0.6894 -0.2933 0.9583
v  0.7637 -0.0922 1.0556
v  0.6893 -0.4859 0.8767
v  0.6894 -0.0876 0.9985
v  0.7638 0.1287 1.0513
v  0.6894 0.1212 0.9955
v  0.7638 0.3440 1.0025
v  0.6896 0.3265 0.9493
v  0.7640 0.5452 0.9095
v  0.6898 0.5161 0.8610
v  0.7642 0.7225 0.7766
v  0.6900 0.6840 0.7346
v  0.7656 0.8673 0.6094
v  0.6915 0.8219 0.5770
v  0.7659 0.9753 0.4160
v  0.6915 0.9230 0.3934
v  0.7661 1.0393 0.2044
v  0.7661 1.0599 -0.0170
v  0.6919 1.0032 -0.0150
v  0.7663 1.0332 -0.2359
v  0.6917 0.9852 0.1936
v  0.6919 0.9784 -0.2229
v  0.7665 0.9606 -0.4454
v  0.6921 0.9095 -0.4216
v  0.7665 0.8477 -0.6346
v  0.6922 0.8029 -0.6014
v  0.7666 0.6964 -0.7974
v  0.6922 0.6598 -0.7551
v  0.7666 0.5150 -0.9246
v  0.6922 0.4882 -0.8754
v  0.7665 0.3118 -1.0119
v  0.6922 0.2955 -0.9569
v  0.7665 0.0944 -1.0540
v  0.6921 0.0898 -0.9972
v  0.7663 -0.1266 -1.0499
v  0.6919 -0.1190 -0.9941
v  0.7661 -0.3419 -1.0010
v  0.6919 -0.3243 -0.9479
v  0.7661 -0.5430 -0.9079
v  0.6917 -0.5139 -0.8596
v  0.7659 -0.7203 -0.7751
v  0.6915 -0.6818 -0.7332
v  0.7644 -0.8651 -0.6079
v  0.6901 -0.8196 -0.5757
v  0.7642 -0.9731 -0.4145
v  0.6898 -0.9208 -0.3920
v  0.7640 -1.0372 -0.2029
v  0.6898 -0.9830 -0.1922
v  0.7638 -1.0577 0.0184
v  0.6896 -1.0009 0.0164
v  0.7638 -1.0310 0.2375
v  0.6894 -0.9761 0.2244
v  0.7637 -0.9584 0.4469
v  0.6894 -0.9073 0.4229
v  0.7635 -0.8455 0.6361
v  0.7635 -0.5128 0.9260
v  0.6893 -0.6576 0.7564
v  0.7635 -0.6942 0.7989
v  0.6894 -0.8007 0.6028
v  0.7817 1.0210 0.5005
v  0.7817 0.9635 0.6045
v  0.7819 1.0681 0.3907
v  0.7803 0.8951 0.7007
v  0.7801 0.8163 0.7912
v  0.7819 1.1031 0.2773
v  0.7801 0.7300 0.8714
v  0.7799 0.6347 0.9437
v  0.7799 0.5328 1.0048
v  0.7798 0.4242 1.0546
v  0.7798 0.3127 1.0925
v  0.7796 0.1974 1.1196
v  0.7796 0.0781 1.1342
v  0.7796 -0.0405 1.1363
v  0.7794 -0.1584 1.1258
v  0.7794 -0.2755 1.1027
v  0.7794 -0.3889 1.0677
v  0.7794 -0.4987 1.0208
v  0.7794 -0.6026 0.9632
v  0.7794 -0.7893 0.8159
v  0.7794 -0.6989 0.8948
v  0.7794 -0.8696 0.7297
v  0.7794 -0.9419 0.6344
v  0.7794 -1.0029 0.5324
v  0.7796 -1.0527 0.4239
v  0.7796 -1.1178 0.1971
v  0.7796 -1.0907 0.3123
v  0.7798 -1.1344 -0.0409
v  0.7799 -1.1009 -0.2758
v  0.7799 -1.1239 -0.1586
v  0.7801 -1.0189 -0.4990
v  0.7801 -1.0659 -0.3893
v  0.7817 -0.8141 -0.7897
v  0.7819 -0.7278 -0.8700
v  0.7817 -0.8930 -0.6992
v  0.7820 -0.5306 -1.0033
v  0.7819 -0.6326 -0.9422
v  0.7822 -0.3105 -1.0910
v  0.7824 -0.0759 -1.1327
v  0.7820 -0.4231 -1.0538
v  0.7824 0.1605 -1.1242
v  0.7824 0.3911 -1.0663
v  0.7824 0.2776 -1.1013
v  0.7826 0.6048 -0.9617
v  0.7824 0.7904 -0.8152
v  0.7824 0.8718 -0.7281
v  0.7826 0.7011 -0.8933
v  0.7824 0.9441 -0.6329
v  0.7824 1.0051 -0.5310
v  0.7824 1.0557 -0.4234
v  0.7824 1.0928 -0.3108
v  0.7822 1.1200 -0.1955
v  0.7822 1.1345 -0.0761
v  0.7822 1.1365 0.0423
v  0.7820 1.1260 0.1602
v  -0.7668 0.9286 0.6514
v  0.7822 -0.1952 -1.1182
v  0.7824 0.0427 -1.1347
v  0.7824 0.5009 -1.0192
v  0.7798 -1.1323 0.0777
v  -0.7683 0.7742 0.8298
v  -0.7685 0.5842 0.9714
v  0.7803 -0.9613 -0.6030
v  0.6707 -0.6075 0.8670
v  0.6707 -0.9075 0.5448
v  0.6709 -1.0495 0.1283
v  0.6712 -1.0115 -0.3101
v  0.6730 -0.7970 -0.6946
v  0.6733 -0.4450 -0.9589
v  0.6735 -0.0166 -1.0581
v  0.6737 0.4164 -0.9736
v  0.6737 0.7770 -0.7207
v  0.6735 1.0029 -0.3423
v  0.6733 1.0559 0.0940
v  0.6730 0.9264 0.5146
v  0.6712 0.6365 0.8473
v  0.6709 0.2379 1.0328
v  0.6707 -0.2025 1.0389
v  -0.7687 0.3699 1.0714
v  -0.7689 0.1383 1.1251
v  -0.7689 -0.0989 1.1290
v  -0.7690 -0.3313 1.0828
v  -0.7690 -0.5487 0.9903
# 453 vertices

vn -0.0008 -0.1017 -0.9948
vn 0.3036 -0.0026 -0.9528
vn -0.3075 -0.0157 -0.9514
vn -0.0008 0.1017 -0.9948
vn -0.5608 -0.0871 -0.8234
vn 0.5729 0.0875 -0.8149
vn -0.5697 -0.0836 -0.8176
vn -0.3433 0.0955 -0.9344
vn -0.0008 0.3083 -0.9513
vn 0.3069 0.3845 -0.8706
vn -0.3082 0.3738 -0.8748
vn -0.0007 0.5028 -0.8644
vn -0.5664 0.2551 -0.7836
vn 0.5838 0.4059 -0.7032
vn -0.5636 0.2548 -0.7858
vn -0.3467 0.4717 -0.8107
vn 0.9755 0.2184 0.0245
vn 0.9661 0.2516 0.0585
vn 0.9628 0.2679 0.0367
vn 0.9809 0.1941 0.0100
vn 0.9769 0.2124 -0.0240
vn 0.9809 0.1926 -0.0256
vn 0.9630 0.2667 -0.0378
vn 0.9663 0.2505 -0.0600
vn 0.5780 0.7459 0.3311
vn -0.0003 0.9138 -0.4061
vn 0.3042 0.9051 -0.2972
vn -0.3053 0.9010 -0.3083
vn -0.0002 0.9783 -0.2071
vn -0.5615 0.7559 -0.3368
vn 0.5774 0.7986 -0.1699
vn -0.5650 0.7541 -0.3347
vn -0.3379 0.9208 -0.1947
vn 0.0000 1.0000 -0.0000
vn 0.3042 0.9478 0.0952
vn -0.3021 0.9495 0.0848
vn 0.0002 0.9783 0.2071
vn -0.5561 0.8311 0.0017
vn 0.5768 0.7992 0.1692
vn -0.5598 0.8286 0.0029
vn -0.3352 0.9217 0.1954
vn -0.9882 0.0162 -0.1525
vn -0.9887 0.0465 -0.1425
vn -0.9887 -0.0158 -0.1493
vn -0.9882 -0.0477 -0.1459
vn -0.9886 -0.0755 -0.1299
vn -0.9882 0.0768 -0.1324
vn -0.9887 0.1006 -0.1109
vn -0.9886 -0.1220 -0.0878
vn -0.9882 -0.1031 -0.1136
vn -0.9887 0.1332 -0.0692
vn -0.9882 0.1242 -0.0894
vn -0.9886 0.1505 -0.0082
vn -0.9881 0.1509 -0.0287
vn -0.9886 0.1370 0.0618
vn -0.9881 0.1501 0.0331
vn -0.9881 -0.1409 -0.0620
vn -0.9886 -0.1474 -0.0293
vn -0.9886 0.1002 0.1121
vn -0.9881 0.1238 0.0907
vn -0.9880 -0.1544 0.0030
vn -0.9886 0.0463 0.1435
vn -0.9881 0.0765 0.1334
vn -0.9885 -0.1450 0.0436
vn -0.9882 -0.1533 0.0036
vn -0.9885 -0.0157 0.1501
vn -0.9880 0.0161 0.1534
vn -0.9885 -0.0753 0.1310
vn -0.9880 -0.0475 0.1468
vn -0.9885 -0.1220 0.0894
vn -0.9880 -0.1408 0.0635
vn -0.9880 -0.1031 0.1152
vn -0.5630 -0.4131 -0.7158
vn -0.3089 -0.4002 -0.8628
vn 0.3062 -0.3892 -0.8688
vn -0.0008 -0.3096 -0.9509
vn -0.0007 -0.4976 -0.8674
vn 0.5814 -0.2515 -0.7738
vn -0.5690 -0.4094 -0.7132
vn 0.5800 -0.4051 -0.7067
vn -0.3481 -0.2903 -0.8914
vn 0.9745 -0.1079 0.1967
vn 0.9746 -0.0908 0.2045
vn 0.9999 -0.0096 0.0042
vn 0.9999 -0.0125 0.0087
vn 0.9791 0.0571 -0.1954
vn 0.9741 -0.0505 0.2203
vn 0.9737 -0.0760 0.2147
vn 0.9788 0.0223 -0.2036
vn 0.9999 -0.0062 0.0090
vn 0.9788 -0.0216 -0.2036
vn 0.9999 -0.0047 0.0098
vn 0.9771 -0.0179 -0.2122
vn 0.9999 -0.0051 0.0127
vn 0.9787 -0.0672 -0.1938
vn 0.9741 0.0467 0.2211
vn 0.9746 0.0116 0.2238
vn 0.9745 -0.0233 0.2232
vn 0.9787 -0.1024 -0.1781
vn 0.9748 0.0651 0.2136
vn 0.9751 0.0887 0.2030
vn 0.9999 0.0004 0.0104
vn 0.9789 -0.1024 -0.1771
vn 0.9788 -0.1365 -0.1524
vn 0.9742 0.1124 0.1956
vn 0.9745 0.1341 0.1800
vn 0.9999 0.0022 0.0103
vn 0.9770 -0.1387 -0.1621
vn 0.9772 -0.1716 -0.1253
vn 0.9742 0.1554 0.1636
vn 0.9743 0.1676 0.1502
vn 0.9999 0.0044 0.0135
vn 0.9788 -0.1678 -0.1172
vn 0.9788 -0.1867 -0.0842
vn 0.9743 0.1794 0.1362
vn 0.9746 0.1930 0.1132
vn 0.9999 0.0079 0.0083
vn 0.9792 -0.1855 -0.0825
vn 0.9792 -0.1985 -0.0429
vn 0.9738 0.2080 0.0921
vn 0.9741 0.2159 0.0675
vn 1.0000 0.0071 0.0041
vn 0.9768 -0.2081 -0.0514
vn 0.9771 -0.2127 -0.0053
vn 0.9748 0.2195 0.0395
vn 0.9749 0.2218 0.0194
vn 0.9999 0.0109 0.0057
vn 0.9788 -0.2047 -0.0008
vn 0.9788 -0.2004 0.0418
vn 0.9746 0.2241 -0.0008
vn 0.9748 0.2216 -0.0247
vn 0.9999 0.0116 0.0020
vn 0.9792 -0.1982 0.0424
vn 0.9793 -0.1852 0.0819
vn 0.9737 0.2226 -0.0477
vn 0.9740 0.2148 -0.0726
vn 0.9999 0.0105 0.0007
vn 0.9770 -0.1975 0.0808
vn 0.9771 -0.1725 0.1244
vn 0.9746 0.2017 -0.0976
vn 0.9747 0.1929 -0.1133
vn 0.9999 0.0153 -0.0006
vn 0.9793 -0.1609 0.1231
vn 0.9792 -0.1363 0.1506
vn 0.9737 0.1876 -0.1296
vn 0.9741 0.1698 -0.1494
vn 0.9999 0.0106 -0.0050
vn 0.9791 -0.1020 0.1758
vn 0.9740 0.1513 -0.1689
vn 0.9742 0.1304 -0.1841
vn 0.9999 0.0096 -0.0058
vn 0.9770 -0.1118 0.1816
vn 0.9772 -0.0660 0.2020
vn 0.9742 0.1079 -0.1983
vn 0.9743 0.0908 -0.2061
vn 0.9999 0.0126 -0.0103
vn 0.9794 -0.0571 0.1938
vn 0.9793 -0.0215 0.2013
vn 0.9734 0.0760 -0.2163
vn 0.9738 0.0503 -0.2219
vn 0.9999 0.0062 -0.0102
vn 0.9791 0.0218 0.2021
vn 0.9741 0.0230 -0.2247
vn 0.9744 -0.0028 -0.2248
vn 0.9999 0.0050 -0.0099
vn 0.9770 0.0172 0.2126
vn 0.9771 0.0660 0.2023
vn 0.9742 -0.0288 -0.2239
vn 0.9743 -0.0469 -0.2201
vn 0.9999 0.0051 -0.0147
vn 0.9791 0.0681 0.1918
vn 0.9790 0.1024 0.1765
vn 0.9738 -0.0648 -0.2179
vn 0.9743 -0.0890 -0.2069
vn 0.9999 -0.0010 -0.0123
vn 0.9791 0.1024 0.1755
vn 0.9791 0.1359 0.1512
vn 0.9739 -0.1133 -0.1965
vn 0.9742 -0.1345 -0.1812
vn 0.9999 -0.0026 -0.0122
vn 0.9775 0.1378 0.1595
vn 0.9776 0.1707 0.1231
vn 0.9739 -0.1554 -0.1651
vn 0.9741 -0.1676 -0.1518
vn 0.9999 -0.0047 -0.0156
vn 0.9792 0.1670 0.1150
vn 0.9791 0.1863 0.0820
vn 0.9737 -0.1802 -0.1393
vn 0.9742 -0.1937 -0.1160
vn 0.9999 -0.0076 -0.0097
vn 0.9791 0.1989 0.0414
vn 0.9739 -0.2073 -0.0928
vn 0.9741 -0.2153 -0.0684
vn 0.9999 -0.0070 -0.0108
vn 0.9769 0.2081 0.0495
vn 0.9769 0.2136 -0.0053
vn 0.9747 -0.2198 -0.0414
vn 0.9748 -0.2215 -0.0261
vn 0.9999 -0.0111 -0.0126
vn 0.9790 0.2036 -0.0109
vn 0.9788 0.2000 -0.0432
vn 0.9743 -0.2251 -0.0119
vn 0.9748 -0.2222 0.0174
vn 0.9999 -0.0117 -0.0035
vn 0.9792 0.1982 -0.0438
vn 0.9792 0.1851 -0.0835
vn 0.9738 -0.2227 0.0458
vn 0.9741 -0.2148 0.0711
vn 0.9999 -0.0114 -0.0019
vn 0.9770 0.1967 -0.0824
vn 0.9772 0.1716 -0.1254
vn 0.9742 -0.2041 0.0965
vn 0.9744 -0.1950 0.1123
vn 0.9999 -0.0155 -0.0008
vn 0.9791 0.1613 -0.1242
vn 0.9789 0.1363 -0.1522
vn 0.9739 -0.1873 0.1283
vn 0.9743 -0.1696 0.1480
vn 0.9999 -0.0106 0.0034
vn 0.9788 0.1020 -0.1774
vn 0.9742 -0.1513 0.1673
vn 0.9745 -0.1304 0.1826
vn 0.9767 0.1118 -0.1831
vn 0.9768 0.0660 -0.2036
vn 0.9742 -0.1643 -0.1549
vn 0.9770 -0.1831 -0.1094
vn 0.9796 -0.1530 -0.1303
vn 0.9815 -0.1659 -0.0952
vn 0.9645 -0.2324 -0.1257
vn 0.9674 -0.2331 -0.0988
vn 0.9639 -0.1889 -0.1877
vn 0.9586 -0.1601 -0.2354
vn 0.5852 -0.4054 -0.7023
vn 0.9745 -0.1973 0.1072
vn 0.9761 -0.1634 0.1430
vn 0.9794 -0.1722 0.1057
vn 0.9802 -0.1467 0.1327
vn 0.9633 -0.1936 0.1858
vn 0.9590 -0.1611 0.2332
vn 0.9638 -0.2374 0.1214
vn 0.9662 -0.2385 0.0979
vn -0.5583 -0.6712 0.4877
vn -0.3044 -0.8172 0.4894
vn 0.3049 -0.8235 0.4784
vn 0.0003 -0.9131 0.4078
vn 0.0005 -0.8104 0.5858
vn 0.5780 -0.7452 0.3324
vn -0.5636 -0.6692 0.4842
vn 0.5778 -0.6617 0.4778
vn -0.3398 -0.8587 0.3837
vn 0.5812 -0.6588 0.4776
vn 0.9760 0.0416 0.2139
vn 0.9763 0.0856 0.1986
vn 0.9803 0.0473 0.1916
vn 0.9791 0.0831 0.1855
vn 0.9647 0.1160 0.2365
vn 0.9589 0.1736 0.2246
vn 0.9640 0.0472 0.2619
vn 0.9670 0.0216 0.2537
vn -0.5656 -0.0867 0.8201
vn -0.3061 -0.1813 0.9346
vn 0.3087 -0.1928 0.9314
vn 0.0008 -0.3083 0.9513
vn 0.0008 -0.1017 0.9948
vn 0.5832 -0.2514 0.7725
vn -0.5566 -0.0844 0.8265
vn 0.5850 -0.2502 0.7715
vn 0.5834 -0.0826 0.8080
vn -0.3484 -0.2889 0.8917
vn 0.9749 0.0934 -0.2020
vn 0.9758 0.0484 -0.2134
vn 0.9794 0.0756 -0.1871
vn 0.9788 0.0424 -0.2001
vn 0.9639 0.0467 -0.2622
vn 0.9656 0.0212 -0.2593
vn 0.9634 0.1167 -0.2412
vn 0.9590 0.1717 -0.2255
vn 0.5760 -0.0866 0.8129
vn -0.5593 -0.4140 0.7182
vn -0.3059 -0.5475 0.7789
vn -0.3411 -0.6283 0.6993
vn -0.5687 -0.4134 0.7112
vn 0.0007 -0.5028 0.8644
vn 0.3066 -0.5579 0.7712
vn 0.0006 -0.6685 0.7437
vn 0.5796 -0.4099 0.7043
vn 0.5803 -0.5453 0.6050
vn 0.5820 -0.5438 0.6046
vn 0.5849 -0.4058 0.7022
vn -0.5640 -0.6682 -0.4852
vn -0.3072 -0.7183 -0.6242
vn -0.5627 -0.6692 -0.4854
vn -0.3464 -0.6295 -0.6955
vn 0.3070 -0.7099 -0.6338
vn -0.0006 -0.6709 -0.7415
vn -0.0005 -0.8089 -0.5879
vn 0.5811 -0.5444 -0.6050
vn 0.5851 -0.5439 -0.6016
vn 0.5805 -0.6585 -0.4790
vn 0.5817 -0.6581 -0.4781
vn -0.5531 -0.8145 0.1753
vn -0.3013 -0.9465 0.1158
vn 0.3041 -0.9472 0.1014
vn 0.0000 -1.0000 -0.0000
vn 0.0002 -0.9783 0.2071
vn 0.5766 -0.8171 -0.0031
vn -0.5605 -0.8101 0.1720
vn 0.5768 -0.7993 0.1688
vn -0.3335 -0.9427 0.0017
vn -0.5597 -0.8106 -0.1723
vn -0.3039 -0.9110 -0.2788
vn 0.3050 -0.9069 -0.2909
vn -0.0003 -0.9138 -0.4061
vn -0.0002 -0.9783 -0.2071
vn 0.5774 -0.7453 -0.3334
vn -0.5562 -0.8131 -0.1717
vn 0.5807 -0.7438 -0.3310
vn 0.5774 -0.7987 -0.1696
vn -0.3427 -0.8586 -0.3813
vn -0.5612 0.5529 0.6159
vn -0.3425 0.4705 0.8133
vn 0.0006 0.6685 0.7437
vn 0.0007 0.5009 0.8655
vn 0.5803 0.5446 0.6055
vn 0.5760 0.5452 0.6091
vn 0.5809 0.4079 0.7044
vn 0.5795 0.4078 0.7056
vn 1.0000 -0.0092 0.0015
vn 1.0000 -0.0098 -0.0010
vn 0.9999 -0.0154 0.0029
vn 1.0000 -0.0017 -0.0006
vn 1.0000 -0.0001 -0.0010
vn 0.9999 -0.0118 0.0005
vn 1.0000 -0.0058 -0.0048
vn 0.9999 -0.0138 0.0036
vn 1.0000 -0.0082 -0.0006
vn 0.9999 -0.0137 0.0003
vn 1.0000 0.0001 -0.0042
vn 1.0000 0.0003 -0.0075
vn -0.9631 -0.0541 0.2638
vn -0.5632 0.2555 0.7858
vn -0.3056 0.2122 0.9282
vn 0.3066 0.2009 0.9304
vn 0.0008 0.1017 0.9948
vn 0.0008 0.3096 0.9509
vn 0.5836 0.0868 0.8074
vn 0.5745 0.0833 0.8143
vn 0.5832 0.2516 0.7724
vn -0.3418 0.0955 0.9349
vn -0.9756 -0.0880 0.2010
vn -0.9759 -0.0879 0.1998
vn -0.9623 -0.1582 0.2214
vn -0.5662 0.5521 -0.6120
vn -0.3081 0.6964 -0.6481
vn 0.3063 0.7047 -0.6399
vn -0.0005 0.8087 -0.5883
vn -0.0006 0.6685 -0.7437
vn 0.5804 0.6588 -0.4786
vn -0.5624 0.5530 -0.6148
vn 0.5817 0.6578 -0.4785
vn 0.5810 0.5438 -0.6055
vn -0.3484 0.7584 -0.5509
vn -0.9756 -0.1623 0.1476
vn -0.9753 -0.1631 0.1491
vn 0.5793 0.5452 -0.6059
vn -0.9628 -0.2322 0.1380
vn 0.5748 -0.0832 -0.8140
vn 0.5821 0.0826 -0.8089
vn 0.5823 -0.0860 -0.8084
vn -0.9762 -0.2060 0.0681
vn -0.9759 -0.2072 0.0690
vn 0.5838 0.2502 -0.7724
vn 0.5785 0.4099 -0.7052
vn 0.5819 0.2514 -0.7734
vn -0.9632 -0.2673 0.0293
vn -0.5602 0.7563 0.3379
vn -0.9630 -0.2565 -0.0822
vn -0.5566 0.7590 0.3378
vn -0.9764 -0.1878 -0.1071
vn -0.3408 0.7604 0.5529
vn -0.9753 -0.1928 -0.1080
vn 0.0003 0.9138 0.4061
vn 0.0005 0.8089 0.5879
vn -0.9634 -0.2002 -0.1784
vn -0.9764 -0.1277 -0.1743
vn 0.5765 0.6612 0.4801
vn -0.9757 -0.1302 -0.1760
vn 0.5778 0.6608 0.4791
vn -0.9635 -0.1097 -0.2442
vn -0.9761 -0.0463 -0.2124
vn 0.5774 0.7459 -0.3320
vn 0.5808 0.7431 -0.3324
vn -0.9628 -0.0015 -0.2701
vn 0.5766 0.8170 -0.0030
vn -0.9763 0.0448 -0.2119
vn -0.9756 0.0444 -0.2150
vn -0.9632 0.1088 -0.2456
vn -0.9759 0.1278 -0.1769
vn -0.9757 0.1281 -0.1779
vn -0.9624 0.2015 -0.1824
vn 0.9772 -0.0655 -0.2022
vn -0.9762 0.1880 -0.1083
vn -0.9751 0.1914 -0.1123
vn -0.9632 0.2556 -0.0834
vn -0.0454 -0.2749 0.9604
vn -0.0445 0.0000 0.9990
vn -0.0450 0.1394 0.9892
vn -0.0437 -0.4020 0.9146
vn -0.0436 0.0031 0.9990
vn -0.0459 -0.6421 0.7653
vn -0.0453 -0.4069 0.9123
vn -0.0443 0.4069 0.9124
vn -0.0453 0.5290 0.8474
vn -0.0447 -0.7408 0.6702
vn -0.0439 0.4083 0.9118
vn -0.0457 -0.8978 0.4381
vn -0.0449 0.7415 0.6694
vn -0.0455 0.8277 0.5593
vn -0.0444 -0.9496 0.3104
vn -0.0440 0.7438 0.6670
vn -0.0459 -0.9983 0.0351
vn -0.0448 -0.9500 0.3090
vn -0.0450 0.9500 0.3090
vn -0.0460 0.9837 0.1740
vn -0.0445 -0.9939 -0.1011
vn -0.0446 0.9505 0.3076
vn -0.0464 -0.9262 -0.3741
vn -0.0456 -0.9935 -0.1047
vn -0.0458 0.9934 -0.1047
vn -0.0466 0.9693 -0.2414
vn -0.0453 -0.8662 -0.4976
vn -0.0451 0.9932 -0.1071
vn -0.0464 -0.6941 -0.7184
vn -0.0464 0.8657 -0.4984
vn -0.0470 0.7877 -0.6143
vn -0.0453 -0.5885 -0.8072
vn -0.0454 0.8641 -0.5012
vn -0.0465 -0.3420 -0.9385
vn -0.0464 0.5877 -0.8077
vn -0.0466 0.4684 -0.8823
vn -0.0449 -0.2118 -0.9763
vn -0.0449 0.5836 -0.8108
vn -0.0469 0.0700 -0.9964
vn -0.0464 -0.2066 -0.9773
vn -0.0458 0.2066 -0.9773
vn 0.6125 0.2501 0.7499
vn 0.6113 0.2760 0.7417
vn 0.6107 0.3275 0.7210
vn 0.6061 0.1149 0.7870
vn 0.6100 0.4009 0.6835
vn 0.6077 0.4250 0.6709
vn 0.6080 0.4720 0.6384
vn 0.6045 0.5352 0.5900
vn 0.6036 0.5556 0.5718
vn 0.6030 0.5946 0.5318
vn 0.6022 0.6473 0.4673
vn 0.6030 0.6632 0.4433
vn 0.5996 0.6947 0.3972
vn 0.6052 0.7290 0.3198
vn 0.6063 0.7391 0.2935
vn 0.6032 0.7596 0.2432
vn 0.6087 0.7777 0.1569
vn 0.6057 0.7850 0.1303
vn 0.6059 0.7923 0.0722
vn 0.6000 0.8000 -0.0050
vn 0.6028 0.7972 -0.0337
vn 0.5977 0.7970 -0.0869
vn 0.6085 0.7745 -0.1728
vn 0.6042 0.7717 -0.1988
vn 0.6060 0.7540 -0.2534
vn 0.6068 0.6396 -0.4719
vn 0.6056 0.6240 -0.4938
vn 0.6054 0.5882 -0.5361
vn 0.5995 0.7179 -0.3538
vn 0.6042 0.5294 -0.5955
vn 0.6041 0.5077 -0.6142
vn 0.6023 0.4633 -0.6501
vn 0.6044 0.3938 -0.6925
vn 0.6026 0.3712 -0.7064
vn 0.6024 0.3218 -0.7305
vn 0.5999 0.2449 -0.7616
vn 0.6001 0.2173 -0.7699
vn 0.5976 0.1627 -0.7851
vn 0.6011 0.0788 -0.7953
vn 0.6011 0.0508 -0.7976
vn 0.5991 -0.0048 -0.8006
vn 0.6020 -0.0867 -0.7937
vn 0.6048 -0.1149 -0.7880
vn 0.6004 -0.1678 -0.7819
vn 0.6113 -0.2501 -0.7508
vn 0.6101 -0.2760 -0.7427
vn 0.6095 -0.3275 -0.7219
vn 0.6089 -0.4009 -0.6845
vn 0.6066 -0.4250 -0.6718
vn 0.6070 -0.4720 -0.6393
vn 0.6036 -0.5352 -0.5910
vn 0.6027 -0.5556 -0.5727
vn 0.6021 -0.5946 -0.5328
vn 0.6015 -0.6473 -0.4683
vn 0.6023 -0.6632 -0.4443
vn 0.5990 -0.6947 -0.3981
vn 0.6047 -0.7290 -0.3208
vn 0.6058 -0.7391 -0.2945
vn 0.6028 -0.7596 -0.2441
vn 0.6085 -0.7770 -0.1614
vn 0.6053 -0.7843 -0.1361
vn 0.6062 -0.7912 -0.0804
vn 0.6000 -0.8000 0.0002
vn 0.6028 -0.7973 0.0303
vn 0.5978 -0.7970 0.0859
vn 0.6087 -0.7745 0.1719
vn 0.6045 -0.7717 0.1978
vn 0.6064 -0.7540 0.2525
vn 0.5968 -0.7327 0.3271
vn 0.6000 -0.7179 0.3529
vn 0.5948 -0.6958 0.4026
vn 0.6076 -0.6396 0.4709
vn 0.6064 -0.6240 0.4929
vn 0.6063 -0.5882 0.5352
vn 0.6052 -0.5294 0.5945
vn 0.6051 -0.5077 0.6132
vn 0.6034 -0.4633 0.6491
vn 0.6055 -0.3938 0.6916
vn 0.6037 -0.3712 0.7055
vn 0.6036 -0.3218 0.7295
vn 0.6028 0.0594 0.7957
vn 0.6017 0.1678 0.7809
vn 0.6023 -0.0508 0.7966
vn 0.6016 -0.1069 0.7916
vn 0.6013 -0.2174 0.7689
vn 0.6011 -0.2449 0.7607
vn 0.9812 0.1917 -0.0223
vn 0.9808 0.1915 -0.0375
vn 0.9811 0.1780 -0.0756
vn 0.9814 0.1818 -0.0618
vn 0.9820 0.1887 -0.0012
vn 0.9815 0.1903 -0.0214
vn 0.9802 0.1976 -0.0118
vn 0.9784 0.2021 -0.0444
vn 0.9807 0.1911 0.0422
vn 0.9817 0.1903 0.0116
vn 0.9818 0.1802 -0.0602
vn 0.9842 0.1763 0.0168
vn 0.9809 0.1860 0.0576
vn 0.9780 0.2045 0.0415
vn 0.9808 0.1766 0.0826
vn 0.9813 0.1834 0.0580
vn 0.9785 0.1891 0.0822
vn 0.9815 0.1661 0.0950
vn 0.9807 0.1560 0.1175
vn 0.9813 0.1675 0.0951
vn 0.9811 0.1457 0.1276
vn 0.9784 0.1681 0.1206
vn 0.9812 0.1268 0.1458
vn 0.9817 0.1423 0.1266
vn 0.9789 0.1379 0.1506
vn 0.9810 0.0939 0.1695
vn 0.9818 0.1131 0.1528
vn 0.9815 0.0792 0.1743
vn 0.9788 0.1037 0.1767
vn 0.9809 0.0563 0.1861
vn 0.9785 0.0647 0.1957
vn 0.9815 0.0406 0.1873
vn 0.9809 0.0215 0.1933
vn 0.9789 0.0229 0.2030
vn 0.9818 0.0011 0.1899
vn 0.9810 -0.0146 0.1936
vn 0.9815 -0.0390 0.1874
vn 0.9811 -0.0541 0.1860
vn 0.9814 0.0000 0.1922
vn 0.9786 -0.0206 0.2048
vn 0.9788 -0.0616 0.1954
vn 0.9818 -0.0770 0.1739
vn 0.9812 -0.0918 0.1698
vn 0.9816 -0.1113 0.1552
vn 0.9808 -0.1260 0.1488
vn 0.9814 -0.1422 0.1287
vn 0.9810 -0.1539 0.1184
vn 0.9811 -0.1135 0.1564
vn 0.9817 -0.1653 0.0950
vn 0.9813 -0.1737 0.0831
vn 0.9784 -0.1369 0.1547
vn 0.9818 -0.1804 0.0597
vn 0.9809 -0.1892 0.0455
vn 0.9819 -0.1637 0.0949
vn 0.9813 -0.1914 0.0200
vn 0.9798 -0.1998 -0.0037
vn 0.9814 -0.1827 0.0594
vn 0.9798 -0.1952 -0.0429
vn 0.9802 -0.1962 -0.0256
vn 0.9779 -0.2045 -0.0431
vn 0.9781 -0.2070 -0.0215
vn 0.9809 -0.1849 -0.0601
vn 0.9807 -0.1810 -0.0746
vn 0.9813 -0.1667 -0.0962
vn 0.9808 -0.1605 -0.1107
vn 0.9814 -0.1830 -0.0583
vn 0.9810 -0.1440 -0.1297
vn 0.9809 -0.1345 -0.1407
vn 0.9784 -0.1891 -0.0837
vn 0.9815 -0.1135 -0.1544
vn 0.9808 -0.1025 -0.1658
vn 0.9818 -0.1653 -0.0940
vn 0.9813 -0.0793 -0.1754
vn 0.9806 -0.0659 -0.1844
vn 0.9785 -0.1659 -0.1229
vn 0.9812 -0.0404 -0.1888
vn 0.9808 -0.0262 -0.1933
vn 0.9815 -0.0012 -0.1915
vn 0.9808 0.0195 -0.1942
vn 0.9810 0.0387 -0.1900
vn 0.9810 0.0000 -0.1938
vn 0.9808 0.0636 -0.1842
vn 0.9812 0.0390 -0.1889
vn 0.9782 0.0208 -0.2066
vn 0.9814 0.0768 -0.1757
vn 0.9785 0.0616 -0.1971
vn 0.9811 0.1000 -0.1657
vn 0.9790 0.0999 -0.1779
vn 0.9821 0.1112 -0.1518
vn 0.9806 0.1334 -0.1437
vn 0.9810 0.1122 -0.1581
vn 0.9812 0.1422 -0.1302
vn 0.9782 0.1369 -0.1562
vn 0.9809 0.1595 -0.1117
vn 0.9785 0.1659 -0.1229
vn 0.9814 0.1653 -0.0974
vn 0.9817 0.1644 -0.0960
vn -0.9776 0.2098 -0.0189
vn 0.9817 -0.1427 -0.1264
vn 0.9787 -0.1379 -0.1522
vn 0.9785 -0.1037 -0.1783
vn 0.9782 -0.0647 -0.1972
vn -0.9759 0.2171 -0.0224
vn 0.9786 -0.0229 -0.2046
vn 0.9786 -0.1659 0.1214
vn -0.9645 0.2623 0.0314
vn 0.9784 -0.2021 0.0428
vn -0.9757 0.2080 0.0681
vn 0.9816 -0.1898 0.0205
vn 0.9767 -0.2143 -0.0117
vn -0.6017 -0.0893 -0.7937
vn -0.6369 -0.0293 -0.7704
vn -0.6359 0.2865 -0.7166
vn -0.6709 0.1498 -0.7263
vn -0.5714 0.0000 -0.8206
vn -0.5981 0.0798 -0.7974
vn -0.6377 0.5517 -0.5376
vn -0.6711 0.4339 -0.6011
vn -0.6034 0.5273 -0.5983
vn -0.5735 0.6060 -0.5512
vn -0.6362 0.7244 -0.2656
vn -0.6738 0.6374 -0.3739
vn -0.5980 0.7308 -0.3293
vn -0.6714 0.6401 -0.3735
vn -0.5694 0.7809 -0.2568
vn -0.6365 0.7694 0.0536
vn -0.6728 0.7357 -0.0777
vn -0.5948 0.8038 0.0071
vn -0.6790 0.7296 -0.0814
vn -0.5695 0.8179 0.0823
vn -0.6397 0.6798 0.3587
vn -0.6718 0.7054 0.2260
vn -0.6023 0.7308 0.3213
vn -0.6771 0.7020 0.2210
vn -0.5758 0.7119 0.4021
vn -0.6363 0.4780 0.6055
vn -0.6706 0.5547 0.4926
vn -0.5979 0.5394 0.5929
vn -0.6744 0.5539 0.4883
vn -0.5703 0.4867 0.6617
vn -0.6349 0.1896 0.7490
vn -0.6722 0.3048 0.6747
vn -0.5976 0.2507 0.7616
vn -0.5687 0.1735 0.8041
vn -0.6311 -0.1315 0.7645
vn -0.6707 0.0045 0.7417
vn -0.5921 -0.0811 0.8018
vn -0.6643 0.0000 0.7474
vn -0.5639 -0.1654 0.8091
vn -0.6357 -0.4294 0.6416
vn -0.6707 -0.2990 0.6788
vn -0.6032 -0.3917 0.6948
vn -0.6722 -0.2974 0.6780
vn -0.5703 -0.4867 0.6617
vn -0.6364 -0.6522 0.4118
vn -0.6712 -0.5480 0.4993
vn -0.5994 -0.6444 0.4748
vn -0.5712 -0.7084 0.4145
vn -0.6375 -0.7624 0.1113
vn -0.6730 -0.7022 0.2324
vn -0.5991 -0.7825 0.1694
vn -0.5724 -0.8148 0.0920
vn -0.6374 -0.7419 -0.2080
vn -0.6748 -0.7346 -0.0707
vn -0.5990 -0.7842 -0.1617
vn -0.6716 -0.7372 -0.0732
vn -0.5716 -0.7830 -0.2454
vn -0.6351 -0.5939 -0.4940
vn -0.6733 -0.6427 -0.3655
vn -0.5954 -0.6515 -0.4701
vn -0.6674 -0.6453 -0.3717
vn -0.5691 -0.6174 -0.5432
vn -0.6405 -0.3393 -0.6889
vn -0.6738 -0.4365 -0.5963
vn -0.6046 -0.4021 -0.6876
vn -0.6769 -0.4366 -0.5926
vn -0.5762 -0.3363 -0.7449
vn -0.6748 -0.1581 -0.7208
vn -0.6044 -0.2494 -0.7566
vn -0.6716 -0.1565 -0.7242
vn -0.5989 -0.5394 -0.5919
vn -0.6012 -0.7318 -0.3208
vn -0.9627 0.2349 0.1341
vn -0.6011 -0.7992 0.0072
vn -0.9761 0.1614 0.1455
vn -0.5998 -0.7291 0.3295
vn -0.9754 0.1643 0.1467
vn -0.5939 -0.5315 0.6040
vn -0.9633 0.1587 0.2164
vn -0.5922 -0.2412 0.7688
vn -0.9760 0.0888 0.1990
vn -0.5963 0.0896 0.7977
vn -0.5995 0.4036 0.6911
vn -0.9630 0.0573 0.2633
vn -0.6080 0.6391 0.4710
vn -0.9759 0.0007 0.2184
vn -0.5983 0.7845 0.1628
vn -0.9755 0.0012 0.2199
vn -0.5982 0.7834 -0.1686
vn -0.9769 -0.2130 -0.0179
vn -0.6020 0.6433 -0.4731
vn -0.9745 -0.2238 -0.0152
vn -0.5999 0.2398 -0.7633
vn -0.6001 0.3999 -0.6928
vn -0.5704 0.3303 -0.7520
# 736 vertex normals

vt 0.8506 0.3363 0.0000
vt 0.6497 0.3363 0.0000
vt 0.8508 0.2937 0.0000
vt 0.6497 0.2937 0.0000
vt 0.8506 0.2516 0.0000
vt 0.6235 0.2570 0.0000
vt 0.6235 0.3361 0.0000
vt 0.8767 0.2937 0.0000
vt 0.8767 0.2516 0.0000
vt 0.6497 0.2516 0.0000
vt 0.2284 0.4770 0.0000
vt 0.2085 0.4785 0.0000
vt 0.2097 0.4728 0.0000
vt 0.2274 0.4826 0.0000
vt 0.2756 0.4770 0.0000
vt 0.2764 0.4826 0.0000
vt 0.2941 0.4728 0.0000
vt 0.2953 0.4785 0.0000
vt 0.8767 0.3363 0.0000
vt 0.9448 0.1067 0.0000
vt 0.9856 0.1996 0.0000
vt 0.9160 0.1281 0.0000
vt 0.9509 0.2072 0.0000
vt 0.9512 0.2935 0.0000
vt 0.8703 0.0387 0.0000
vt 0.9858 0.3011 0.0000
vt 0.8525 0.0700 0.0000
vt 0.9165 0.3726 0.0000
vt 0.9453 0.3935 0.0000
vt 0.7715 0.0431 0.0000
vt 0.6868 0.0522 0.0000
vt 0.7751 0.0071 0.0000
vt 0.6128 0.0953 0.0000
vt 0.6755 0.0177 0.0000
vt 0.8533 0.4302 0.0000
vt 0.5627 0.1651 0.0000
vt 0.5303 0.1503 0.0000
vt 0.8711 0.4613 0.0000
vt 0.7759 0.4926 0.0000
vt 0.5452 0.2496 0.0000
vt 0.7722 0.4568 0.0000
vt 0.5630 0.3344 0.0000
vt 0.5305 0.3487 0.0000
vt 0.6133 0.4043 0.0000
vt 0.5095 0.2494 0.0000
vt 0.5896 0.4310 0.0000
vt 0.6873 0.4477 0.0000
vt 0.6763 0.4817 0.0000
vt 0.9138 0.3726 0.0000
vt 0.9350 0.3353 0.0000
vt 0.9451 0.3400 0.0000
vt 0.9587 0.2969 0.0000
vt 0.9792 0.3013 0.0000
vt 0.9480 0.2944 0.0000
vt 0.9844 0.2521 0.0000
vt 0.9634 0.2521 0.0000
vt 0.9792 0.2023 0.0000
vt 0.9587 0.2067 0.0000
vt 0.9451 0.1636 0.0000
vt 0.9641 0.1550 0.0000
vt 0.9480 0.2092 0.0000
vt 0.9524 0.2521 0.0000
vt 0.9397 0.1119 0.0000
vt 0.9350 0.1683 0.0000
vt 0.9226 0.1244 0.0000
vt 0.9070 0.0749 0.0000
vt 0.9138 0.1311 0.0000
vt 0.8928 0.0909 0.0000
vt 0.8672 0.0458 0.0000
vt 0.8855 0.0990 0.0000
vt 0.8567 0.0640 0.0000
vt 0.8225 0.0256 0.0000
vt 0.8513 0.0739 0.0000
vt 0.8159 0.0458 0.0000
vt 0.7744 0.0153 0.0000
vt 0.8125 0.0564 0.0000
vt 0.7722 0.0362 0.0000
vt 0.7256 0.0153 0.0000
vt 0.7712 0.0475 0.0000
vt 0.7278 0.0362 0.0000
vt 0.6775 0.0256 0.0000
vt 0.7288 0.0475 0.0000
vt 0.6841 0.0458 0.0000
vt 0.6328 0.0458 0.0000
vt 0.6875 0.0564 0.0000
vt 0.6431 0.0643 0.0000
vt 0.5930 0.0749 0.0000
vt 0.6487 0.0739 0.0000
vt 0.6072 0.0907 0.0000
vt 0.5603 0.1119 0.0000
vt 0.6145 0.0990 0.0000
vt 0.5771 0.1244 0.0000
vt 0.5359 0.1550 0.0000
vt 0.5862 0.1311 0.0000
vt 0.5549 0.1636 0.0000
vt 0.5208 0.2023 0.0000
vt 0.5649 0.1683 0.0000
vt 0.5413 0.2067 0.0000
vt 0.5156 0.2521 0.0000
vt 0.5520 0.2092 0.0000
vt 0.5364 0.2521 0.0000
vt 0.5208 0.3013 0.0000
vt 0.5476 0.2521 0.0000
vt 0.5410 0.2969 0.0000
vt 0.5359 0.3487 0.0000
vt 0.5520 0.2944 0.0000
vt 0.5549 0.3400 0.0000
vt 0.5603 0.3918 0.0000
vt 0.5649 0.3353 0.0000
vt 0.5771 0.3792 0.0000
vt 0.5930 0.4287 0.0000
vt 0.5862 0.3726 0.0000
vt 0.6070 0.4139 0.0000
vt 0.6328 0.4578 0.0000
vt 0.6145 0.4046 0.0000
vt 0.6433 0.4396 0.0000
vt 0.6775 0.4780 0.0000
vt 0.6487 0.4297 0.0000
vt 0.6841 0.4578 0.0000
vt 0.7253 0.4884 0.0000
vt 0.7275 0.4674 0.0000
vt 0.7744 0.4884 0.0000
vt 0.7288 0.4561 0.0000
vt 0.7722 0.4674 0.0000
vt 0.8225 0.4780 0.0000
vt 0.8159 0.4578 0.0000
vt 0.8672 0.4578 0.0000
vt 0.8125 0.4472 0.0000
vt 0.8567 0.4396 0.0000
vt 0.9070 0.4287 0.0000
vt 0.8511 0.4300 0.0000
vt 0.8928 0.4130 0.0000
vt 0.9397 0.3918 0.0000
vt 0.8855 0.4046 0.0000
vt 0.9226 0.3792 0.0000
vt 0.9641 0.3487 0.0000
vt 0.4051 0.0794 0.0000
vt 0.3667 0.0516 0.0000
vt 0.4090 0.0753 0.0000
vt 0.3694 0.0467 0.0000
vt 0.3492 0.0440 0.0000
vt 0.3517 0.0388 0.0000
vt 0.4176 0.0936 0.0000
vt 0.4218 0.0897 0.0000
vt 0.1373 0.0516 0.0000
vt 0.0992 0.0792 0.0000
vt 0.1346 0.0464 0.0000
vt 0.0952 0.0750 0.0000
vt 0.0866 0.0936 0.0000
vt 0.0822 0.0897 0.0000
vt 0.1548 0.0440 0.0000
vt 0.1526 0.0386 0.0000
vt 0.0283 0.2972 0.0000
vt 0.0428 0.3422 0.0000
vt 0.0226 0.2982 0.0000
vt 0.0377 0.3446 0.0000
vt 0.0524 0.3586 0.0000
vt 0.0475 0.3615 0.0000
vt 0.0263 0.2783 0.0000
vt 0.0207 0.2788 0.0000
vt 0.4612 0.3424 0.0000
vt 0.4757 0.2974 0.0000
vt 0.4664 0.3449 0.0000
vt 0.4814 0.2984 0.0000
vt 0.4774 0.2783 0.0000
vt 0.4834 0.2791 0.0000
vt 0.4514 0.3588 0.0000
vt 0.4565 0.3615 0.0000
vt 0.3379 0.4408 0.0000
vt 0.2515 0.4841 0.0000
vt 0.2958 0.4545 0.0000
vt 0.3871 0.4357 0.0000
vt 0.3758 0.4190 0.0000
vt 0.4088 0.3897 0.0000
vt 0.2520 0.4589 0.0000
vt 0.2082 0.4545 0.0000
vt 0.1154 0.4349 0.0000
vt 0.1661 0.4408 0.0000
vt 0.1282 0.4190 0.0000
vt 0.0955 0.3897 0.0000
vt 0.0276 0.3214 0.0000
vt 0.0694 0.3542 0.0000
vt 0.0514 0.3141 0.0000
vt 0.0423 0.2715 0.0000
vt 0.0325 0.1778 0.0000
vt 0.0423 0.2275 0.0000
vt 0.0514 0.1847 0.0000
vt 0.0694 0.1448 0.0000
vt 0.1137 0.0594 0.0000
vt 0.0955 0.1093 0.0000
vt 0.1280 0.0799 0.0000
vt 0.1664 0.0579 0.0000
vt 0.2527 0.0198 0.0000
vt 0.2082 0.0445 0.0000
vt 0.2520 0.0398 0.0000
vt 0.2958 0.0445 0.0000
vt 0.3911 0.0599 0.0000
vt 0.3379 0.0579 0.0000
vt 0.3758 0.0799 0.0000
vt 0.4088 0.1093 0.0000
vt 0.4720 0.1793 0.0000
vt 0.4346 0.1448 0.0000
vt 0.4526 0.1847 0.0000
vt 0.4617 0.2277 0.0000
vt 0.4762 0.3224 0.0000
vt 0.4346 0.3542 0.0000
vt 0.5011 0.0036 0.0000
vt 0.4974 0.0405 0.0000
vt 0.4937 0.0036 0.0000
vt 0.4937 0.0405 0.0000
vt 0.5011 0.0405 0.0000
vt 0.5889 0.0682 0.0000
vt 0.5030 0.0043 0.0000
vt 0.5038 0.0577 0.0000
vt 0.5023 0.0577 0.0000
vt 0.5011 0.0577 0.0000
vt 0.4710 0.1658 0.0000
vt 0.4595 0.1702 0.0000
vt 0.4489 0.1225 0.0000
vt 0.4715 0.2150 0.0000
vt 0.4383 0.1291 0.0000
vt 0.4179 0.0846 0.0000
vt 0.4090 0.0934 0.0000
vt 0.3797 0.0538 0.0000
vt 0.3731 0.0643 0.0000
vt 0.3362 0.0317 0.0000
vt 0.3317 0.0432 0.0000
vt 0.2887 0.0190 0.0000
vt 0.2867 0.0313 0.0000
vt 0.2397 0.0166 0.0000
vt 0.2405 0.0288 0.0000
vt 0.1912 0.0242 0.0000
vt 0.1944 0.0361 0.0000
vt 0.1455 0.0415 0.0000
vt 0.1044 0.0682 0.0000
vt 0.1122 0.0777 0.0000
vt 0.0697 0.1027 0.0000
vt 0.1511 0.0528 0.0000
vt 0.0792 0.1105 0.0000
vt 0.0428 0.1435 0.0000
vt 0.0541 0.1492 0.0000
vt 0.0254 0.1891 0.0000
vt 0.0374 0.1922 0.0000
vt 0.0177 0.2373 0.0000
vt 0.0303 0.2380 0.0000
vt 0.0202 0.2859 0.0000
vt 0.0325 0.2840 0.0000
vt 0.0330 0.3331 0.0000
vt 0.0445 0.3285 0.0000
vt 0.0551 0.3764 0.0000
vt 0.0657 0.3698 0.0000
vt 0.0861 0.4144 0.0000
vt 0.0950 0.4056 0.0000
vt 0.1243 0.4452 0.0000
vt 0.1309 0.4347 0.0000
vt 0.1679 0.4672 0.0000
vt 0.1723 0.4557 0.0000
vt 0.2154 0.4799 0.0000
vt 0.2173 0.4677 0.0000
vt 0.2643 0.4824 0.0000
vt 0.2636 0.4699 0.0000
vt 0.3128 0.4748 0.0000
vt 0.3096 0.4628 0.0000
vt 0.3586 0.4574 0.0000
vt 0.3529 0.4462 0.0000
vt 0.3997 0.4308 0.0000
vt 0.3918 0.4212 0.0000
vt 0.4344 0.3963 0.0000
vt 0.4248 0.3884 0.0000
vt 0.4612 0.3554 0.0000
vt 0.4499 0.3498 0.0000
vt 0.4787 0.3099 0.0000
vt 0.4838 0.2130 0.0000
vt 0.4738 0.2610 0.0000
vt 0.4863 0.2617 0.0000
vt 0.4666 0.3067 0.0000
vt 0.2001 0.0070 0.0000
vt 0.2259 0.0031 0.0000
vt 0.1750 0.0139 0.0000
vt 0.2520 0.0016 0.0000
vt 0.2781 0.0031 0.0000
vt 0.1506 0.0232 0.0000
vt 0.3039 0.0070 0.0000
vt 0.3290 0.0139 0.0000
vt 0.3534 0.0232 0.0000
vt 0.3765 0.0349 0.0000
vt 0.3984 0.0491 0.0000
vt 0.4189 0.0653 0.0000
vt 0.4373 0.0836 0.0000
vt 0.4536 0.1039 0.0000
vt 0.4679 0.1257 0.0000
vt 0.4797 0.1487 0.0000
vt 0.4890 0.1729 0.0000
vt 0.4959 0.1979 0.0000
vt 0.4998 0.2236 0.0000
vt 0.4998 0.2754 0.0000
vt 0.5013 0.2495 0.0000
vt 0.4959 0.3011 0.0000
vt 0.4890 0.3260 0.0000
vt 0.4797 0.3503 0.0000
vt 0.4679 0.3733 0.0000
vt 0.4373 0.4153 0.0000
vt 0.4536 0.3950 0.0000
vt 0.3984 0.4498 0.0000
vt 0.3534 0.4758 0.0000
vt 0.3765 0.4640 0.0000
vt 0.3039 0.4919 0.0000
vt 0.3290 0.4851 0.0000
vt 0.2259 0.4958 0.0000
vt 0.2001 0.4919 0.0000
vt 0.2520 0.4973 0.0000
vt 0.1506 0.4758 0.0000
vt 0.1750 0.4851 0.0000
vt 0.1056 0.4498 0.0000
vt 0.0667 0.4153 0.0000
vt 0.1275 0.4640 0.0000
vt 0.0362 0.3733 0.0000
vt 0.0150 0.3260 0.0000
vt 0.0244 0.3503 0.0000
vt 0.0042 0.2754 0.0000
vt 0.0042 0.2236 0.0000
vt 0.0081 0.1979 0.0000
vt 0.0027 0.2495 0.0000
vt 0.0150 0.1729 0.0000
vt 0.0244 0.1487 0.0000
vt 0.0362 0.1257 0.0000
vt 0.0505 0.1039 0.0000
vt 0.0667 0.0836 0.0000
vt 0.0852 0.0653 0.0000
vt 0.1056 0.0491 0.0000
vt 0.1275 0.0349 0.0000
vt 0.0852 0.4337 0.0000
vt 0.0505 0.3950 0.0000
vt 0.0081 0.3011 0.0000
vt 0.4189 0.4337 0.0000
vt 0.2781 0.4958 0.0000
vt 0.4642 0.0046 0.0000
vt 0.4642 0.0112 0.0000
vt 0.4629 0.0112 0.0000
vt 0.4629 0.0046 0.0000
vt 0.4615 0.0112 0.0000
vt 0.4615 0.0046 0.0000
vt 0.4602 0.0046 0.0000
# 343 texture coords

o cauchooad
g cauchooad
usemtl cauchoo_cauchoo_Porsche_911_GT2_default
s 1
f 1/1/1 2/2/1 3/3/2 
f 4/4/3 3/3/2 2/2/1 
f 3/3/2 4/4/3 5/5/4 
f 6/6/5 4/4/3 7/7/5 
f 8/8/6 3/3/2 9/9/6 
f 2/2/7 7/7/7 4/4/3 
f 10/10/4 5/5/4 4/4/4 
f 10/10/8 4/4/3 6/6/8 
f 5/1/9 10/2/9 11/3/10 
f 12/4/11 11/3/10 10/2/9 
f 11/3/10 12/4/11 13/5/12 
f 14/6/13 12/4/11 6/7/13 
f 15/8/14 11/3/10 16/9/14 
f 10/2/15 6/7/15 12/4/11 
f 17/10/16 12/4/11 14/6/16 
f 18/11/17 19/12/18 20/13/19 
f 19/12/18 18/11/17 21/14/20 
f 22/15/21 21/14/20 18/11/17 
f 23/16/22 21/14/20 22/15/21 
f 24/17/23 25/18/24 22/15/21 
f 23/16/22 22/15/21 25/18/24 
f 26/3/25 27/8/25 28/1/25 
f 29/19/25 28/1/25 27/8/25 
f 30/1/26 31/2/26 32/3/27 
f 33/4/28 32/3/27 31/2/26 
f 32/3/27 33/4/28 34/5/29 
f 35/6/30 33/4/28 36/7/30 
f 37/8/31 32/3/27 38/9/31 
f 31/2/32 36/7/32 33/4/28 
f 39/10/33 33/4/28 35/6/33 
f 34/1/34 39/2/34 40/3/35 
f 41/4/36 40/3/35 39/2/34 
f 40/3/35 41/4/36 28/5/37 
f 42/6/38 41/4/36 35/7/38 
f 43/8/39 40/3/35 29/9/39 
f 39/2/40 35/7/40 41/4/36 
f 44/10/41 41/4/36 42/6/41 
f 45/20/42 46/21/42 47/22/43 
f 48/23/44 47/22/43 46/21/42 
f 48/23/44 46/21/45 49/24/46 
f 45/20/47 47/22/43 50/25/47 
f 51/26/45 49/24/46 46/21/45 
f 52/27/48 50/25/47 47/22/43 
f 53/28/49 49/24/46 54/29/50 
f 52/27/48 55/30/51 50/25/52 
f 55/30/51 56/31/53 57/32/54 
f 57/32/52 50/25/52 55/30/51 
f 56/31/53 58/33/55 59/34/56 
f 53/28/49 54/29/57 60/35/58 
f 61/36/59 62/37/60 58/33/55 
f 42/38/61 35/39/61 60/35/58 
f 61/36/59 63/40/62 62/37/63 
f 64/41/64 60/35/58 35/39/65 
f 65/42/66 6/43/67 63/40/62 
f 65/42/66 66/44/68 6/43/69 
f 7/45/67 63/40/62 6/43/67 
f 14/46/69 6/43/69 66/44/68 
f 67/47/70 64/41/64 36/48/71 
f 67/47/70 36/48/72 66/44/68 
f 14/46/72 66/44/68 36/48/72 
f 7/6/73 68/4/74 62/7/73 
f 69/3/75 68/4/74 1/5/76 
f 68/4/74 69/3/75 70/2/77 
f 71/8/78 69/3/75 72/9/78 
f 70/2/79 62/7/79 68/4/74 
f 1/5/78 72/9/78 69/3/75 
f 73/1/77 70/2/77 69/3/75 
f 69/3/75 71/8/80 73/1/80 
f 2/10/81 68/4/74 7/6/81 
f 74/49/82 75/50/83 76/51/84 
f 77/52/85 76/51/84 75/50/83 
f 76/51/84 77/52/85 9/53/86 
f 78/54/87 77/52/85 75/50/88 
f 8/55/89 77/52/85 79/56/90 
f 78/54/87 79/56/90 77/52/85 
f 8/55/91 79/56/90 72/57/91 
f 9/53/89 77/52/85 8/55/89 
f 80/58/92 72/57/93 79/56/90 
f 80/58/92 81/59/94 71/60/95 
f 81/59/94 80/58/92 82/61/96 
f 82/61/96 80/58/92 83/62/97 
f 79/56/90 83/62/97 80/58/92 
f 83/62/97 79/56/90 78/54/98 
f 71/60/99 81/59/94 84/63/99 
f 82/61/100 85/64/101 81/59/94 
f 86/65/102 81/59/94 85/64/101 
f 81/59/94 86/65/102 84/63/103 
f 84/63/104 86/65/102 87/66/104 
f 85/64/105 88/67/106 86/65/102 
f 89/68/107 86/65/102 88/67/106 
f 86/65/102 89/68/107 87/66/108 
f 87/66/109 89/68/107 90/69/109 
f 88/67/110 91/70/111 89/68/107 
f 92/71/112 89/68/107 91/70/111 
f 89/68/107 92/71/112 90/69/113 
f 90/69/114 92/71/112 93/72/114 
f 91/70/115 94/73/116 92/71/112 
f 95/74/117 92/71/112 94/73/116 
f 92/71/112 95/74/117 93/72/118 
f 93/72/119 95/74/117 96/75/119 
f 94/73/120 97/76/121 95/74/117 
f 98/77/122 95/74/117 97/76/121 
f 95/74/117 98/77/122 96/75/123 
f 96/75/124 98/77/122 99/78/124 
f 97/76/125 100/79/126 98/77/122 
f 101/80/127 98/77/122 100/79/126 
f 98/77/122 101/80/127 99/78/128 
f 99/78/129 101/80/127 102/81/129 
f 100/79/130 103/82/131 101/80/127 
f 104/83/132 101/80/127 103/82/131 
f 101/80/127 104/83/132 102/81/133 
f 102/81/134 104/83/132 105/84/134 
f 103/82/135 106/85/136 104/83/132 
f 107/86/137 104/83/132 106/85/136 
f 104/83/132 107/86/137 105/84/138 
f 105/84/139 107/86/137 108/87/139 
f 106/85/140 109/88/141 107/86/137 
f 110/89/142 107/86/137 109/88/141 
f 107/86/137 110/89/142 108/87/143 
f 108/87/144 110/89/142 111/90/144 
f 109/88/145 112/91/146 110/89/142 
f 113/92/147 110/89/142 112/91/146 
f 110/89/142 113/92/147 111/90/144 
f 111/90/148 113/92/147 114/93/148 
f 112/91/149 115/94/150 113/92/147 
f 116/95/151 113/92/147 115/94/150 
f 113/92/147 116/95/151 114/93/152 
f 114/93/153 116/95/151 117/96/153 
f 115/94/154 118/97/155 116/95/151 
f 119/98/156 116/95/151 118/97/155 
f 116/95/151 119/98/156 117/96/157 
f 117/96/158 119/98/156 120/99/158 
f 118/97/159 121/100/160 119/98/156 
f 122/101/161 119/98/156 121/100/160 
f 119/98/156 122/101/161 120/99/158 
f 120/99/162 122/101/161 123/102/162 
f 121/100/163 124/103/164 122/101/161 
f 125/104/165 122/101/161 124/103/164 
f 122/101/161 125/104/165 123/102/166 
f 123/102/167 125/104/165 126/105/167 
f 124/103/168 127/106/169 125/104/165 
f 128/107/170 125/104/165 127/106/169 
f 125/104/165 128/107/170 126/105/171 
f 126/105/172 128/107/170 129/108/172 
f 127/106/173 130/109/174 128/107/170 
f 131/110/175 128/107/170 130/109/174 
f 128/107/170 131/110/175 129/108/176 
f 129/108/177 131/110/175 132/111/177 
f 130/109/178 133/112/179 131/110/175 
f 134/113/180 131/110/175 133/112/179 
f 131/110/175 134/113/180 132/111/181 
f 132/111/182 134/113/180 27/114/182 
f 133/112/183 135/115/184 134/113/180 
f 136/116/185 134/113/180 135/115/184 
f 134/113/180 136/116/185 27/114/186 
f 27/114/187 136/116/185 29/117/187 
f 135/115/188 137/118/189 136/116/185 
f 138/119/190 136/116/185 137/118/189 
f 136/116/185 138/119/190 29/117/187 
f 29/117/191 138/119/190 43/120/191 
f 137/118/192 139/47/193 138/119/190 
f 140/121/194 138/119/190 139/47/193 
f 138/119/190 140/121/194 43/120/195 
f 43/120/196 140/121/194 38/122/196 
f 139/47/197 141/123/198 140/121/194 
f 142/124/199 140/121/194 141/123/198 
f 140/121/194 142/124/199 38/122/200 
f 38/122/201 142/124/199 37/125/201 
f 141/123/202 143/41/203 142/124/199 
f 144/126/204 142/124/199 143/41/203 
f 142/124/199 144/126/204 37/125/205 
f 37/125/206 144/126/204 145/127/206 
f 143/41/207 146/128/208 144/126/204 
f 147/129/209 144/126/204 146/128/208 
f 144/126/204 147/129/209 145/127/210 
f 145/127/211 147/129/209 148/130/211 
f 146/128/212 149/131/213 147/129/209 
f 150/132/214 147/129/209 149/131/213 
f 147/129/209 150/132/214 148/130/215 
f 148/130/216 150/132/214 16/133/216 
f 149/131/217 151/134/218 150/132/214 
f 152/135/219 150/132/214 151/134/218 
f 150/132/214 152/135/219 16/133/216 
f 16/133/220 152/135/219 15/136/220 
f 151/134/221 74/49/222 152/135/219 
f 76/51/84 152/135/219 74/49/222 
f 152/135/219 76/51/84 15/136/223 
f 15/136/224 76/51/84 9/53/224 
f 2/10/76 1/5/76 68/4/76 
f 153/137/225 154/138/226 155/139/227 
f 156/140/228 155/139/227 154/138/226 
f 157/141/229 158/142/230 154/138/226 
f 156/140/228 154/138/226 158/142/230 
f 159/143/231 153/137/225 160/144/232 
f 155/139/227 160/144/232 153/137/225 
f 84/19/233 73/1/233 71/8/233 
f 161/145/234 162/146/235 163/147/236 
f 164/148/237 163/147/236 162/146/235 
f 165/149/238 166/150/239 162/146/235 
f 164/148/237 162/146/235 166/150/239 
f 167/151/240 161/145/234 168/152/241 
f 163/147/236 168/152/241 161/145/234 
f 57/6/242 169/4/243 50/7/242 
f 170/3/244 169/4/243 171/5/245 
f 169/4/243 170/3/244 172/2/246 
f 105/8/247 170/3/244 102/9/247 
f 172/2/248 50/7/248 169/4/243 
f 171/5/247 102/9/247 170/3/244 
f 173/1/246 172/2/246 170/3/244 
f 170/3/244 105/8/249 173/1/249 
f 174/10/250 169/4/243 57/6/250 
f 174/10/245 171/5/245 169/4/245 
f 108/19/251 173/1/251 105/8/251 
f 175/153/252 176/154/253 177/155/254 
f 178/156/255 177/155/254 176/154/253 
f 179/157/256 180/158/257 176/154/253 
f 178/156/255 176/154/253 180/158/257 
f 181/159/258 175/153/252 182/160/259 
f 177/155/254 182/160/259 175/153/252 
f 45/6/260 183/4/261 46/7/260 
f 184/3/262 183/4/261 185/5/263 
f 183/4/261 184/3/262 186/2/264 
f 117/8/265 184/3/262 114/9/265 
f 186/2/266 46/7/266 183/4/261 
f 185/5/267 114/9/267 184/3/262 
f 187/1/264 186/2/264 184/3/262 
f 184/3/262 117/8/268 187/1/268 
f 188/10/269 183/4/261 45/6/269 
f 188/10/263 185/5/263 183/4/263 
f 189/161/270 190/162/271 191/163/272 
f 192/164/273 191/163/272 190/162/271 
f 193/165/274 194/166/275 190/162/271 
f 192/164/273 190/162/271 194/166/275 
f 195/167/276 189/161/270 196/168/277 
f 191/163/272 196/168/277 189/161/270 
f 120/19/278 187/1/278 117/8/278 
f 50/6/279 197/4/280 45/7/279 
f 172/10/281 197/4/280 50/6/281 
f 188/2/282 45/7/282 197/4/280 
f 185/1/283 188/2/283 198/3/284 
f 197/4/280 198/3/284 188/2/283 
f 198/3/284 197/4/280 173/5/285 
f 198/3/284 111/8/286 185/1/286 
f 111/8/287 198/3/284 108/9/287 
f 173/5/288 108/9/288 198/3/284 
f 172/10/285 173/5/285 197/4/285 
f 114/19/289 185/1/289 111/8/289 
f 199/2/290 200/7/290 201/4/291 
f 62/6/292 201/4/291 200/7/292 
f 70/10/293 201/4/291 62/6/293 
f 202/3/294 201/4/291 73/5/295 
f 201/4/291 202/3/294 199/2/296 
f 87/8/297 202/3/294 84/9/297 
f 203/1/296 199/2/296 202/3/294 
f 73/5/298 84/9/298 202/3/294 
f 202/3/294 87/8/299 203/1/299 
f 70/10/295 73/5/295 201/4/295 
f 90/19/300 203/1/300 87/8/300 
f 59/6/301 204/4/302 57/7/301 
f 205/3/303 204/4/302 206/5/304 
f 204/4/302 205/3/303 174/2/305 
f 99/8/306 205/3/303 96/9/306 
f 174/2/307 57/7/307 204/4/302 
f 206/5/306 96/9/306 205/3/303 
f 171/1/305 174/2/305 205/3/303 
f 205/3/303 99/8/308 171/1/308 
f 207/10/309 204/4/302 59/6/309 
f 207/10/304 206/5/304 204/4/304 
f 102/19/308 171/1/308 99/8/308 
f 200/6/310 208/4/311 59/7/310 
f 209/3/312 208/4/311 203/5/313 
f 208/4/311 209/3/312 207/2/314 
f 93/8/315 209/3/312 90/9/315 
f 207/2/316 59/7/316 208/4/311 
f 203/5/317 90/9/317 209/3/312 
f 206/1/314 207/2/314 209/3/312 
f 209/3/312 93/8/318 206/1/318 
f 199/10/319 208/4/311 200/6/319 
f 199/10/313 203/5/313 208/4/313 
f 96/19/318 206/1/318 93/8/318 
f 51/6/320 210/4/320 54/7/320 
f 211/2/320 54/7/320 210/4/320 
f 212/10/321 210/4/321 51/6/321 
f 210/4/322 213/3/322 211/2/322 
f 214/1/322 211/2/322 213/3/322 
f 212/10/323 215/5/323 210/4/323 
f 213/3/323 210/4/323 215/5/323 
f 213/3/324 129/8/324 214/1/324 
f 132/19/325 214/1/325 129/8/325 
f 215/5/326 126/9/326 213/3/326 
f 129/8/327 213/3/327 126/9/327 
f 216/169/328 217/170/329 218/171/330 
f 217/170/329 216/169/328 219/172/331 
f 220/173/332 219/172/331 216/169/328 
f 219/172/331 220/173/332 221/174/332 
f 222/175/204 218/171/330 217/170/333 
f 222/175/204 217/170/329 223/176/334 
f 217/170/329 224/177/332 223/176/332 
f 224/177/332 225/178/332 223/176/334 
f 226/179/332 225/178/332 224/177/332 
f 226/179/332 224/177/332 227/180/332 
f 224/177/332 228/181/332 227/180/332 
f 228/181/332 229/182/332 227/180/332 
f 230/183/332 229/182/332 228/181/332 
f 230/183/332 228/181/332 231/184/332 
f 228/181/332 232/185/332 231/184/332 
f 232/185/332 233/186/332 231/184/332 
f 234/187/332 233/186/332 232/185/332 
f 234/187/332 232/185/332 235/188/332 
f 232/185/332 236/189/331 235/188/332 
f 236/189/331 237/190/332 235/188/332 
f 238/191/332 237/190/332 236/189/332 
f 238/191/332 236/189/331 239/192/335 
f 236/189/331 240/193/328 239/192/336 
f 240/193/328 241/194/337 239/192/335 
f 242/195/338 241/194/337 240/193/339 
f 242/195/338 240/193/328 243/196/332 
f 240/193/328 244/197/332 243/196/332 
f 244/197/332 245/198/332 243/196/332 
f 246/199/332 245/198/332 244/197/332 
f 246/199/332 244/197/332 247/200/332 
f 244/197/332 248/201/332 247/200/332 
f 248/201/332 249/202/332 247/200/332 
f 250/203/332 249/202/332 248/201/332 
f 250/203/332 248/201/332 251/204/332 
f 248/201/332 252/205/332 251/204/332 
f 252/205/332 219/172/331 253/206/332 
f 219/172/331 221/174/332 253/206/332 
f 254/207/340 255/208/340 256/209/340 
f 46/6/341 257/4/342 51/7/341 
f 258/3/343 257/4/342 187/5/344 
f 257/4/342 258/3/343 212/2/345 
f 123/8/346 258/3/343 120/9/346 
f 212/2/341 51/7/341 257/4/342 
f 187/5/347 120/9/347 258/3/343 
f 215/1/345 212/2/345 258/3/343 
f 258/3/343 123/8/348 215/1/348 
f 186/10/349 257/4/342 46/6/349 
f 259/210/350 260/209/350 255/211/350 
f 186/10/344 187/5/344 257/4/344 
f 256/207/351 255/211/351 260/209/351 
f 126/19/348 215/1/348 123/8/348 
f 260/207/352 259/208/352 261/209/352 
f 36/6/353 262/4/354 14/7/353 
f 263/3/355 262/4/354 30/5/356 
f 262/4/354 263/3/355 17/2/357 
f 148/8/358 263/3/355 145/9/358 
f 17/2/359 14/7/359 262/4/354 
f 30/5/360 145/9/360 263/3/355 
f 13/1/357 17/2/357 263/3/355 
f 263/3/355 148/8/361 13/1/361 
f 31/10/362 262/4/354 36/6/362 
f 264/210/363 265/209/363 259/211/363 
f 31/10/356 30/5/356 262/4/356 
f 261/207/364 259/211/364 265/209/364 
f 16/19/365 13/1/365 148/8/365 
f 265/207/366 264/208/366 266/209/366 
f 3/3/2 8/8/367 1/1/367 
f 5/5/368 9/9/368 3/3/2 
f 72/19/369 1/1/369 8/8/369 
f 267/210/370 268/209/370 264/211/370 
f 17/10/12 13/5/12 12/4/12 
f 266/207/371 264/211/371 268/209/371 
f 11/3/10 15/8/372 5/1/372 
f 13/5/373 16/9/373 11/3/10 
f 9/19/374 5/1/374 15/8/374 
f 268/207/375 267/208/375 269/209/375 
f 54/6/376 270/4/376 42/7/376 
f 271/207/377 272/208/377 273/209/377 
f 44/2/378 42/7/378 270/4/378 
f 274/210/379 275/209/379 272/211/379 
f 211/10/380 270/4/380 54/6/380 
f 273/207/381 272/211/381 275/209/381 
f 270/4/382 26/3/382 44/2/382 
f 28/1/382 44/2/382 26/3/382 
f 211/10/383 214/5/383 270/4/383 
f 275/207/384 274/208/384 276/209/384 
f 26/3/383 270/4/383 214/5/383 
f 277/210/385 278/209/385 274/211/385 
f 214/5/386 132/9/386 26/3/386 
f 276/207/387 274/211/387 278/209/387 
f 27/8/388 26/3/388 132/9/388 
f 278/207/389 277/208/389 279/209/389 
f 39/10/29 34/5/29 33/4/29 
f 280/210/390 281/209/390 277/211/390 
f 32/3/27 37/8/391 30/1/391 
f 34/5/31 38/9/31 32/3/27 
f 145/19/392 30/1/392 37/8/392 
f 279/207/390 277/211/390 281/209/390 
f 44/10/37 28/5/37 41/4/37 
f 281/207/393 280/208/393 282/209/393 
f 40/3/35 43/8/394 34/1/394 
f 28/5/39 29/9/39 40/3/35 
f 38/19/394 34/1/394 43/8/394 
f 283/210/395 284/209/395 280/211/395 
f 35/39/71 36/48/71 64/41/64 
f 282/207/396 280/211/396 284/209/396 
f 42/38/57 60/35/58 54/29/57 
f 284/207/397 283/208/397 285/209/397 
f 51/26/50 54/29/50 49/24/46 
f 286/210/398 287/209/398 283/211/398 
f 59/34/54 57/32/54 56/31/53 
f 285/207/399 283/211/399 287/209/399 
f 200/212/56 59/34/56 58/33/55 
f 200/212/60 58/33/55 62/37/60 
f 7/45/63 62/37/63 63/40/62 
f 287/207/400 286/208/400 288/209/400 
f 72/57/401 80/58/92 71/60/401 
f 289/210/402 290/209/402 286/211/402 
f 288/207/403 286/211/403 290/209/403 
f 290/207/404 289/208/404 291/209/404 
f 292/213/405 255/214/406 293/213/407 
f 255/214/408 292/213/405 259/214/408 
f 294/214/409 293/213/407 255/214/409 
f 295/213/410 259/214/411 292/213/405 
f 293/213/407 294/214/412 296/213/413 
f 259/214/414 295/213/410 264/214/414 
f 297/214/415 296/213/413 294/214/415 
f 298/213/416 264/214/414 295/213/410 
f 296/213/413 297/214/417 299/213/418 
f 264/214/419 298/213/416 267/215/419 
f 300/214/420 299/213/418 297/214/420 
f 301/207/421 267/215/422 298/213/416 
f 299/213/418 300/214/423 302/207/424 
f 267/215/425 301/207/421 272/215/425 
f 303/215/426 302/207/424 300/214/426 
f 304/207/427 272/215/428 301/207/421 
f 302/207/424 303/215/429 305/207/430 
f 272/215/431 304/207/427 274/216/431 
f 289/215/432 305/207/430 303/215/432 
f 306/207/433 274/216/431 304/207/427 
f 305/207/430 289/215/434 307/207/435 
f 274/216/436 306/207/433 277/216/436 
f 286/216/437 307/207/435 289/215/437 
f 308/207/438 277/216/436 306/207/433 
f 307/207/435 286/216/439 309/207/440 
f 277/216/441 308/207/438 280/216/441 
f 283/216/442 309/207/440 286/216/442 
f 310/207/443 280/216/444 308/207/438 
f 309/207/440 283/216/445 310/207/443 
f 280/216/445 310/207/443 283/216/445 
f 311/217/446 312/218/447 313/219/448 
f 312/218/447 311/217/446 314/220/449 
f 313/219/450 315/221/451 316/222/452 
f 315/221/451 313/219/450 312/218/447 
f 316/222/453 317/223/454 318/224/455 
f 317/223/454 316/222/453 315/221/451 
f 318/224/456 319/225/457 320/226/458 
f 319/225/457 318/224/456 317/223/454 
f 320/226/459 321/227/460 322/228/461 
f 321/227/460 320/226/459 319/225/457 
f 322/228/462 323/229/463 324/230/464 
f 323/229/463 322/228/462 321/227/460 
f 324/230/465 325/231/466 326/232/467 
f 325/231/466 324/230/465 323/229/463 
f 326/232/468 327/233/469 328/234/470 
f 327/233/469 326/232/468 325/231/466 
f 329/235/471 330/236/472 331/237/473 
f 330/236/472 329/235/471 332/238/474 
f 331/237/475 333/239/476 334/240/477 
f 333/239/476 331/237/475 330/236/472 
f 334/240/478 335/241/479 336/242/480 
f 335/241/479 334/240/478 333/239/476 
f 336/242/481 337/243/482 338/244/483 
f 337/243/482 336/242/481 335/241/479 
f 338/244/484 339/245/485 340/246/486 
f 339/245/485 338/244/484 337/243/482 
f 340/246/487 341/247/488 342/248/489 
f 341/247/488 340/246/487 339/245/485 
f 342/248/490 343/249/491 344/250/492 
f 343/249/491 342/248/490 341/247/488 
f 344/250/493 345/251/494 346/252/495 
f 345/251/494 344/250/493 343/249/491 
f 346/252/496 347/253/497 348/254/498 
f 347/253/497 346/252/496 345/251/494 
f 348/254/499 349/255/500 350/256/501 
f 349/255/500 348/254/499 347/253/497 
f 350/256/502 351/257/503 352/258/504 
f 351/257/503 350/256/502 349/255/500 
f 352/258/505 353/259/506 354/260/507 
f 353/259/506 352/258/505 351/257/503 
f 354/260/508 355/261/509 356/262/510 
f 355/261/509 354/260/508 353/259/506 
f 356/262/511 357/263/512 358/264/513 
f 357/263/512 356/262/511 355/261/509 
f 358/264/514 359/265/515 360/266/516 
f 359/265/515 358/264/514 357/263/512 
f 360/266/517 361/267/518 362/268/519 
f 361/267/518 360/266/517 359/265/515 
f 362/268/520 363/269/521 364/270/522 
f 363/269/521 362/268/520 361/267/518 
f 364/270/523 365/271/524 366/272/525 
f 365/271/524 364/270/523 363/269/521 
f 367/273/526 314/220/449 311/217/527 
f 314/220/449 367/273/526 368/274/528 
f 369/275/529 368/274/528 367/273/526 
f 368/274/528 369/275/529 370/276/530 
f 366/272/531 370/276/530 369/275/529 
f 370/276/530 366/272/531 365/271/524 
f 371/277/532 372/278/532 326/232/533 
f 326/232/533 328/234/534 373/279/535 
f 324/230/536 326/232/533 372/278/537 
f 374/280/538 324/230/536 372/278/538 
f 326/232/533 373/279/539 371/277/539 
f 322/228/540 324/230/536 375/281/541 
f 376/282/542 373/279/542 328/234/534 
f 374/280/543 375/281/543 324/230/536 
f 377/283/544 378/284/544 322/228/540 
f 322/228/540 375/281/545 377/283/545 
f 320/226/546 322/228/540 378/284/547 
f 320/226/546 378/284/548 379/285/548 
f 379/285/549 380/286/549 320/226/546 
f 318/224/550 320/226/546 380/286/551 
f 381/287/552 382/288/552 318/224/550 
f 318/224/550 380/286/553 381/287/553 
f 316/222/554 318/224/550 382/288/555 
f 316/222/554 382/288/556 383/289/556 
f 313/219/557 316/222/554 384/290/558 
f 385/291/559 386/292/559 313/219/557 
f 313/219/557 384/290/560 385/291/560 
f 311/217/561 313/219/557 386/292/559 
f 311/217/561 386/292/562 387/293/562 
f 387/293/563 388/294/563 311/217/561 
f 367/273/564 311/217/561 388/294/563 
f 367/273/564 388/294/565 389/295/565 
f 367/273/564 389/295/566 369/275/567 
f 369/275/567 390/296/568 366/272/569 
f 391/297/570 369/275/567 389/295/570 
f 392/298/568 366/272/569 390/296/568 
f 369/275/567 391/297/571 390/296/571 
f 393/299/572 366/272/569 392/298/572 
f 366/272/569 393/299/573 364/270/574 
f 394/300/573 364/270/574 393/299/573 
f 364/270/574 395/301/575 362/268/576 
f 395/301/148 364/270/574 394/300/148 
f 362/268/576 396/302/577 360/266/578 
f 397/303/579 362/268/576 395/301/579 
f 360/266/578 398/304/580 358/264/581 
f 396/302/582 362/268/576 397/303/582 
f 358/264/581 399/305/583 356/262/584 
f 400/306/585 358/264/581 398/304/585 
f 356/262/584 401/307/586 354/260/587 
f 402/308/588 356/262/584 399/305/588 
f 352/258/589 354/260/587 403/309/590 
f 404/310/591 352/258/589 403/309/591 
f 405/311/592 403/309/592 354/260/587 
f 352/258/589 404/310/593 350/256/594 
f 350/256/594 406/312/595 348/254/596 
f 407/313/597 350/256/594 404/310/597 
f 348/254/596 408/314/598 346/252/599 
f 406/312/600 350/256/594 407/313/600 
f 346/252/599 409/315/601 344/250/602 
f 410/316/603 348/254/596 406/312/603 
f 344/250/602 411/317/604 342/248/605 
f 408/314/606 348/254/596 410/316/606 
f 342/248/605 412/318/607 340/246/608 
f 413/319/604 342/248/605 411/317/604 
f 340/246/608 414/320/609 338/244/610 
f 415/321/611 416/322/611 338/244/610 
f 417/323/612 338/244/610 414/320/612 
f 336/242/613 338/244/610 416/322/614 
f 338/244/610 417/323/615 415/321/615 
f 418/324/616 419/325/616 336/242/613 
f 336/242/613 416/322/617 418/324/617 
f 334/240/618 336/242/613 419/325/616 
f 334/240/618 419/325/619 420/326/619 
f 420/326/620 421/327/620 334/240/618 
f 331/237/621 334/240/618 421/327/622 
f 422/328/623 423/329/623 331/237/621 
f 331/237/621 421/327/624 422/328/624 
f 329/235/625 331/237/621 423/329/623 
f 329/235/625 423/329/626 424/330/626 
f 424/330/627 425/331/627 329/235/625 
f 328/234/534 329/235/625 425/331/628 
f 328/234/534 425/331/206 376/282/206 
f 303/210/629 426/209/629 289/211/629 
f 427/332/630 346/252/599 408/314/630 
f 409/315/631 346/252/599 427/332/631 
f 428/333/601 344/250/602 409/315/601 
f 411/317/632 344/250/602 428/333/632 
f 412/318/633 342/248/605 413/319/633 
f 291/207/634 289/211/634 426/209/634 
f 429/334/607 340/246/608 412/318/607 
f 414/320/635 340/246/608 429/334/635 
f 430/335/577 360/266/578 396/302/577 
f 398/304/636 360/266/578 430/335/636 
f 399/305/134 358/264/581 400/306/134 
f 426/207/637 303/208/637 431/209/637 
f 401/307/638 356/262/584 402/308/638 
f 300/210/639 432/209/639 303/211/639 
f 433/336/640 354/260/587 401/307/640 
f 405/311/641 354/260/587 433/336/641 
f 389/337/642 388/337/642 434/338/643 
f 434/338/643 435/338/644 390/337/645 
f 391/337/646 389/337/646 434/338/643 
f 392/337/645 390/337/645 435/338/644 
f 390/337/647 391/337/647 434/338/643 
f 435/338/644 436/338/648 395/337/649 
f 396/337/650 397/337/650 436/338/648 
f 397/337/649 395/337/649 436/338/648 
f 430/337/651 396/337/651 436/338/648 
f 436/338/648 437/339/652 398/337/653 
f 399/340/654 400/337/654 437/339/652 
f 400/337/655 398/337/655 437/339/652 
f 402/340/656 399/340/656 437/339/652 
f 437/339/652 438/339/657 401/340/658 
f 405/340/659 433/340/659 438/339/657 
f 433/340/660 401/340/660 438/339/657 
f 403/340/661 405/340/661 438/339/657 
f 438/339/657 439/341/662 404/340/663 
f 406/342/664 407/342/664 439/341/662 
f 407/342/665 404/340/665 439/341/662 
f 410/342/666 406/342/666 439/341/662 
f 439/341/662 440/341/667 408/342/668 
f 409/342/669 427/342/669 440/341/667 
f 427/342/670 408/342/670 440/341/667 
f 428/342/671 409/342/671 440/341/667 
f 440/341/667 441/341/672 411/342/673 
f 412/342/674 413/342/674 441/341/672 
f 413/342/673 411/342/673 441/341/672 
f 429/343/675 412/342/675 441/341/672 
f 441/341/672 442/341/676 414/343/677 
f 415/343/678 417/343/678 442/341/676 
f 417/343/679 414/343/679 442/341/676 
f 416/343/680 415/343/680 442/341/676 
f 442/341/676 443/341/681 418/342/682 
f 420/342/683 419/342/683 443/341/681 
f 419/342/684 418/342/684 443/341/681 
f 421/342/685 420/342/685 443/341/681 
f 443/341/681 444/341/686 422/342/687 
f 424/342/688 423/342/688 444/341/686 
f 423/342/687 422/342/687 444/341/686 
f 425/342/689 424/342/689 444/341/686 
f 444/341/686 445/339/690 376/342/691 
f 371/340/692 373/342/692 445/339/690 
f 373/342/691 376/342/691 445/339/690 
f 372/340/693 371/340/693 445/339/690 
f 445/339/690 446/339/694 374/340/695 
f 377/340/696 375/340/696 446/339/694 
f 375/340/697 374/340/697 446/339/694 
f 378/340/698 377/340/698 446/339/694 
f 446/339/694 447/338/699 379/340/700 
f 381/337/701 380/337/701 447/338/699 
f 380/337/702 379/340/702 447/338/699 
f 382/337/703 381/337/703 447/338/699 
f 447/338/699 448/338/704 383/337/705 
f 385/337/706 384/337/706 448/338/704 
f 384/337/707 383/337/707 448/338/704 
f 386/337/708 385/337/708 448/338/704 
f 448/338/704 434/338/643 387/337/709 
f 387/337/710 386/337/710 448/338/704 
f 388/337/711 387/337/711 434/338/643 
f 383/337/712 382/337/712 447/338/699 
f 431/207/639 303/211/639 432/209/639 
f 379/340/713 378/340/713 446/339/694 
f 432/207/714 300/208/714 449/209/714 
f 374/340/715 372/340/715 445/339/690 
f 297/210/716 450/209/716 300/211/716 
f 376/342/717 425/342/717 444/341/686 
f 449/207/718 300/211/718 450/209/718 
f 422/342/719 421/342/719 443/341/681 
f 450/207/720 297/208/720 451/209/720 
f 418/342/721 416/343/721 442/341/676 
f 294/210/722 452/209/722 297/211/722 
f 414/343/723 429/343/723 441/341/672 
f 451/207/722 297/211/722 452/209/722 
f 411/342/724 428/342/724 440/341/667 
f 452/207/725 294/208/725 453/209/725 
f 408/342/726 410/342/726 439/341/662 
f 255/210/727 254/209/727 294/211/727 
f 404/340/728 403/340/728 438/339/657 
f 453/207/729 294/211/729 254/209/729 
f 401/340/730 402/340/730 437/339/652 
f 272/210/731 271/209/731 267/211/731 
f 398/337/732 430/337/732 436/338/648 
f 269/207/733 267/211/733 271/209/733 
f 393/337/734 392/337/734 435/338/644 
f 395/337/735 394/337/735 435/338/644 
f 394/337/736 393/337/736 435/338/644 
# 679 faces

