# 3ds Max Wavefront OBJ Exporter v0.99 - (c)2007 guruware
# File Created: 01.04.2025 16:03:41

mtllib cofre.mtl

#
# object part_014
#

v  -1.9748 -0.3475 -3.1996
v  -2.2288 -0.2384 -2.2119
v  -1.9576 -0.3400 -3.2053
v  -1.7631 -0.4806 -3.9562
v  -1.7446 -0.4742 -3.9634
v  -1.6824 -0.5353 -4.1895
v  -1.6678 -0.5265 -4.1855
v  -1.5751 -0.5783 -4.4022
v  0.0695 -0.5559 -4.8346
v  0.0695 -0.5459 -4.8197
v  0.6984 -0.5679 -4.7885
v  -0.5619 -0.5581 -4.7728
v  -0.5592 -0.5681 -4.7875
v  -1.1322 -0.5821 -4.6538
v  -1.1283 -0.5933 -4.6687
v  -1.4213 -0.5884 -4.5352
v  -1.4293 -0.5988 -4.5474
v  -1.5632 -0.5672 -4.3953
v  0.0716 -0.2139 -2.1592
v  -1.1538 -0.1214 -0.0390
v  -2.0417 -0.3061 -2.1708
v  -2.6414 -0.1695 -0.5488
v  -2.4800 -0.1867 -1.2082
v  -0.5342 0.0158 0.0970
v  -1.3076 -0.0199 0.1957
v  -1.9402 -0.0746 0.3517
v  -2.6446 -0.2727 0.3960
v  -2.7788 -0.1806 0.0556
v  -2.8262 -0.2092 0.5501
v  -2.8074 -0.2144 0.8268
v  -2.7928 -0.2116 0.8165
v  -2.4455 -0.1443 0.5833
v  -2.7769 -0.2088 0.8062
v  1.3003 -0.1211 -0.0410
v  0.0731 -0.0776 -0.1650
v  0.6809 0.0159 0.0960
v  0.0733 0.0225 0.0786
v  2.0873 -0.0742 0.3486
v  1.4544 -0.0196 0.1935
v  2.7918 -0.2721 0.3918
v  2.5929 -0.1438 0.5794
v  2.9248 -0.2082 0.8016
v  2.9407 -0.2110 0.8119
v  2.9255 -0.1800 0.0510
v  2.7871 -0.1689 -0.5531
v  2.9737 -0.2086 0.5455
v  2.9553 -0.2138 0.8223
v  2.1849 -0.3056 -2.1742
v  1.9036 -0.4801 -3.9592
v  2.1164 -0.3470 -3.2028
v  2.3719 -0.2379 -2.2154
v  2.6247 -0.1861 -1.2123
v  1.5159 -0.6440 -4.3552
v  0.0697 -0.5734 -4.6119
v  1.2676 -0.5930 -4.6707
v  1.5688 -0.5985 -4.5497
v  1.7148 -0.5779 -4.4048
v  1.8225 -0.5349 -4.1923
v  -1.3761 -0.6443 -4.3529
v  2.9591 -0.2000 0.5414
v  2.9096 -0.1749 0.0532
v  2.9431 -0.1986 0.5416
v  2.8937 -0.1724 0.0549
v  2.7725 -0.1599 -0.5504
v  2.1477 -0.0984 -0.4659
v  1.9002 -0.1138 -1.4438
v  1.1751 -0.0346 -0.7307
v  2.5889 -0.1764 -1.2242
v  2.7566 -0.1588 -0.5489
v  2.6061 -0.1786 -1.2178
v  2.3546 -0.2291 -2.2208
v  0.0712 -0.1171 -2.6706
v  0.0719 -0.0430 -1.7471
v  0.9149 -0.1357 -2.6070
v  1.0138 -0.0643 -1.6839
v  1.6938 -0.1774 -2.4206
v  2.3360 -0.2284 -2.2261
v  2.0991 -0.3395 -3.2084
v  2.0806 -0.3388 -3.2137
v  0.0705 -0.2478 -3.6010
v  0.8161 -0.2616 -3.5339
v  1.5034 -0.2933 -3.3702
v  1.8850 -0.4737 -3.9663
v  1.8664 -0.4717 -3.9713
v  1.8079 -0.5261 -4.1883
v  1.7933 -0.5214 -4.1835
v  1.7029 -0.5668 -4.3978
v  1.6896 -0.5627 -4.3892
v  1.3622 -0.4415 -4.1247
v  0.7024 -0.5535 -4.7584
v  0.7492 -0.4108 -4.2619
v  1.2742 -0.5776 -4.6377
v  1.5516 -0.5833 -4.5247
v  1.5609 -0.5881 -4.5375
v  1.2716 -0.5818 -4.6557
v  0.7010 -0.5579 -4.7738
v  0.0699 -0.4021 -4.3325
v  0.0695 -0.5402 -4.8041
v  -0.6750 -0.2618 -3.5327
v  -0.6093 -0.4110 -4.2608
v  -0.5632 -0.5537 -4.7574
v  -0.7725 -0.1359 -2.6056
v  -2.1930 -0.2289 -2.2225
v  -1.5510 -0.1778 -2.4181
v  -1.3621 -0.2936 -3.3679
v  -2.4442 -0.1769 -1.2202
v  -1.7559 -0.1142 -1.4409
v  -0.8699 -0.0645 -1.6824
v  -2.6108 -0.1594 -0.5447
v  -2.6268 -0.1605 -0.5461
v  -2.0019 -0.0988 -0.4626
v  -1.0297 -0.0348 -0.7290
v  0.0726 -0.0068 -0.8303
v  -2.7629 -0.1756 0.0576
v  -2.7470 -0.1731 0.0593
v  -2.8116 -0.2007 0.5460
v  -2.7957 -0.1993 0.5462
v  -0.0560 -0.3506 -4.1694
v  0.1960 -0.3505 -4.1696
v  -0.0563 -0.4449 -4.4993
v  0.1958 -0.4448 -4.4996
v  -1.7260 -0.4721 -3.9685
v  -1.6532 -0.5218 -4.1809
v  -1.5499 -0.5631 -4.3866
v  -1.4120 -0.5836 -4.5224
v  -1.2220 -0.4418 -4.1227
v  -1.1349 -0.5779 -4.6357
v  -1.9390 -0.3392 -3.2105
v  -2.2115 -0.2297 -2.2173
v  -2.4615 -0.1792 -1.2138
# 130 vertices

vn -0.4261 0.8725 -0.2391
vn -0.4794 0.8545 -0.2001
vn -0.4477 0.8689 -0.2110
vn -0.4128 0.8582 -0.3051
vn -0.4267 0.8545 -0.2961
vn -0.4209 0.8399 -0.3428
vn -0.4137 0.8394 -0.3525
vn -0.4536 0.8112 -0.3692
vn -0.4039 0.8357 -0.3723
vn -0.4337 0.7929 -0.4280
vn -0.4792 0.8413 -0.2502
vn -0.4588 0.8439 -0.2783
vn -0.0196 0.8297 -0.5579
vn 0.0186 0.8297 -0.5579
vn 0.1050 0.8204 -0.5621
vn -0.0893 0.8223 -0.5620
vn -0.1247 0.8025 -0.5835
vn -0.1960 0.7728 -0.6036
vn -0.2222 0.7742 -0.5927
vn -0.2811 0.7912 -0.5432
vn -0.3252 0.7985 -0.5065
vn -0.4119 0.7867 -0.4599
vn -0.0083 -0.9951 0.0991
vn 0.1218 -0.9372 0.3268
vn -0.2253 -0.9739 0.0277
vn -0.4203 -0.9039 -0.0793
vn -0.3771 -0.9244 -0.0571
vn -0.3379 -0.9411 -0.0096
vn -0.4409 -0.8975 0.0075
vn -0.3909 -0.9187 0.0555
vn 0.0982 -0.8884 0.4484
vn 0.1470 -0.8693 0.4721
vn 0.2427 -0.8447 0.4770
vn 0.0110 -0.9876 0.1566
vn -0.4200 -0.9020 -0.1000
vn -0.3853 -0.9177 -0.0965
vn -0.3622 -0.9311 -0.0433
vn 0.0158 -0.9901 0.1399
vn 0.3560 -0.8987 0.2561
vn 0.3105 -0.9051 0.2903
vn 0.3341 -0.9089 0.2496
vn 0.3228 -0.9138 0.2467
vn -0.1211 -0.9372 0.3270
vn 0.0004 -0.9469 0.3216
vn -0.0510 -0.8965 0.4401
vn 0.0004 -0.9250 0.3800
vn 0.0519 -0.8965 0.4400
vn 0.0425 -0.9967 0.0681
vn -0.2417 -0.8448 0.4774
vn -0.1461 -0.8693 0.4722
vn -0.0973 -0.8884 0.4486
vn -0.0106 -0.9876 0.1566
vn -0.3098 -0.9052 0.2908
vn -0.3335 -0.9090 0.2501
vn -0.3222 -0.9138 0.2472
vn 0.3854 -0.9177 -0.0970
vn 0.3975 -0.9130 -0.0913
vn 0.3624 -0.9310 -0.0439
vn -0.0153 -0.9901 0.1399
vn -0.3554 -0.8987 0.2567
vn 0.2256 -0.9739 0.0273
vn 0.4648 -0.8800 -0.0985
vn 0.4074 -0.9109 0.0650
vn 0.4411 -0.8974 0.0068
vn 0.3381 -0.9411 -0.0101
vn 0.3772 -0.9243 -0.0577
vn 0.1748 -0.9844 -0.0189
vn 0.0001 -1.0000 -0.0013
vn 0.3588 -0.9328 0.0347
vn 0.0074 -0.9881 -0.1535
vn -0.0216 -0.9940 -0.1075
vn 0.1741 -0.9683 -0.1795
vn 0.3016 -0.9516 -0.0593
vn 0.2966 -0.9517 0.0793
vn -0.1746 -0.9845 -0.0186
vn -0.0074 -0.9881 -0.1535
vn 0.0175 -0.9956 -0.0930
vn 0.0001 -0.9970 -0.0783
vn -0.0133 -0.9969 -0.0783
vn -0.1741 -0.9683 -0.1792
vn -0.3015 -0.9517 -0.0588
vn -0.2962 -0.9517 0.0798
vn 0.1433 0.9884 0.0500
vn 0.1130 0.9925 0.0464
vn 0.1285 0.9907 0.0465
vn 0.1164 0.9931 0.0166
vn 0.1277 0.9910 0.0414
vn 0.1548 0.9872 0.0374
vn 0.1219 0.9925 0.0122
vn 0.1402 0.9900 0.0168
vn 0.0825 0.9957 0.0422
vn 0.1500 0.9887 -0.0096
vn 0.0974 0.9949 -0.0255
vn 0.0906 0.9940 -0.0612
vn 0.0542 0.9978 -0.0378
vn 0.1143 0.9913 -0.0653
vn 0.0961 0.9950 -0.0300
vn 0.1270 0.9897 -0.0660
vn 0.0684 0.9975 -0.0189
vn 0.1447 0.9893 -0.0187
vn 0.1620 0.9826 -0.0901
vn 0.0294 0.9935 -0.1096
vn -0.0002 0.9982 -0.0590
vn 0.0482 0.9933 -0.1051
vn 0.0499 0.9969 -0.0606
vn 0.0965 0.9889 -0.1125
vn 0.0925 0.9900 -0.1061
vn 0.0683 0.9928 -0.0986
vn 0.0771 0.9885 -0.1305
vn 0.1207 0.9826 -0.1411
vn 0.0338 0.9825 -0.1832
vn 0.0308 0.9898 -0.1392
vn 0.0941 0.9829 -0.1581
vn 0.0858 0.9868 -0.1377
vn 0.1177 0.9767 -0.1796
vn 0.0867 0.9824 -0.1653
vn 0.1483 0.9609 -0.2340
vn 0.1584 0.9559 -0.2474
vn 0.1950 0.9384 -0.2854
vn 0.1326 0.9692 -0.2075
vn 0.1648 0.9477 -0.2736
vn 0.2061 0.9346 -0.2899
vn 0.1644 0.9465 -0.2776
vn 0.1290 0.9549 -0.2675
vn 0.1289 0.9577 -0.2573
vn 0.1289 0.9564 -0.2620
vn 0.1230 0.9693 -0.2134
vn 0.0964 0.9586 -0.2676
vn 0.1014 0.9616 -0.2549
vn 0.1174 0.9564 -0.2675
vn 0.1286 0.9533 -0.2733
vn 0.1248 0.9547 -0.2699
vn 0.1179 0.9644 -0.2368
vn 0.0989 0.9532 -0.2858
vn 0.0946 0.9610 -0.2597
vn 0.0902 0.9681 -0.2335
vn 0.0899 0.9783 -0.1867
vn 0.0952 0.9734 -0.2084
vn 0.0343 0.9847 -0.1710
vn 0.0322 0.9899 -0.1378
vn 0.0364 0.9783 -0.2040
vn 0.0379 0.9693 -0.2430
vn 0.0388 0.9660 -0.2557
vn 0.0409 0.9589 -0.2808
vn 0.0415 0.9518 -0.3038
vn 0.0406 0.9585 -0.2823
vn 0.0432 0.9366 -0.3478
vn -0.0342 0.9826 -0.1826
vn -0.0384 0.9694 -0.2424
vn -0.0393 0.9662 -0.2548
vn -0.0431 0.9521 -0.3027
vn -0.0457 0.9365 -0.3477
vn -0.0488 0.9933 -0.1045
vn -0.0311 0.9900 -0.1377
vn -0.0395 0.9586 -0.2820
vn -0.0298 0.9945 -0.0998
vn -0.0350 0.9844 -0.1727
vn -0.0371 0.9778 -0.2061
vn -0.1068 0.9884 -0.1080
vn -0.0971 0.9890 -0.1117
vn -0.1220 0.9821 -0.1440
vn -0.1187 0.9905 -0.0697
vn -0.0894 0.9940 -0.0630
vn -0.0505 0.9970 -0.0594
vn -0.0980 0.9949 -0.0226
vn -0.0973 0.9947 -0.0331
vn -0.0929 0.9955 -0.0222
vn -0.0544 0.9978 -0.0376
vn 0.0034 0.9993 -0.0381
vn -0.0723 0.9970 -0.0241
vn -0.1255 0.9921 0.0109
vn -0.1239 0.9921 0.0181
vn -0.1404 0.9900 0.0171
vn -0.1211 0.9921 -0.0319
vn -0.1189 0.9921 0.0408
vn -0.1458 0.9882 0.0465
vn -0.1528 0.9871 0.0471
vn -0.1260 0.9910 0.0446
vn -0.0827 0.9956 0.0454
vn -0.0737 0.9966 -0.0382
vn -0.0305 0.9989 -0.0357
vn -0.0001 0.9995 -0.0322
vn 0.0302 0.9989 -0.0357
vn 0.0725 0.9969 -0.0311
vn 0.0915 0.9955 -0.0228
vn -0.0003 0.9615 -0.2748
vn -0.1669 0.9617 -0.2172
vn -0.1526 0.9575 -0.2446
vn -0.1751 0.9520 -0.2511
vn -0.1958 0.9382 -0.2852
vn -0.1655 0.9475 -0.2734
vn -0.1651 0.9465 -0.2774
vn -0.2069 0.9345 -0.2896
vn -0.1297 0.9548 -0.2673
vn -0.1263 0.9551 -0.2683
vn -0.1270 0.9557 -0.2654
vn -0.1255 0.9541 -0.2718
vn -0.1312 0.9545 -0.2678
vn -0.1263 0.9580 -0.2575
vn -0.1166 0.9569 -0.2658
vn -0.1163 0.9648 -0.2361
vn -0.0938 0.9631 -0.2520
vn -0.1038 0.9544 -0.2802
vn -0.1039 0.9635 -0.2465
vn -0.1013 0.9529 -0.2856
vn -0.0892 0.9684 -0.2330
vn -0.1350 0.9673 -0.2149
vn -0.1040 0.9800 -0.1698
vn -0.0964 0.9801 -0.1733
vn -0.0959 0.9732 -0.2087
vn -0.1296 0.9577 -0.2571
vn -0.0870 0.9826 -0.1644
vn -0.0715 0.9915 -0.1086
vn -0.1255 0.9893 -0.0742
vn -0.0871 0.9828 -0.1625
vn -0.0875 0.9859 -0.1431
vn 0.4099 0.8592 -0.3062
vn 0.4258 0.8721 -0.2411
vn 0.4277 0.8537 -0.2970
vn 0.4529 0.8112 -0.3700
vn 0.4154 0.8425 -0.3429
vn 0.4785 0.8418 -0.2497
vn 0.4580 0.8445 -0.2776
vn 0.4111 0.7866 -0.4607
vn 0.4889 0.7773 -0.3959
vn 0.4789 0.8547 -0.2002
vn 0.4475 0.8686 -0.2129
vn 0.3109 0.7849 -0.5360
vn 0.4041 0.7994 -0.4445
vn 0.2870 0.8164 -0.5011
vn 0.2199 0.7755 -0.5918
vn 0.1924 0.7736 -0.6036
vn 0.1235 0.8026 -0.5836
vn 0.0566 0.8253 -0.5619
vn 0.4117 0.8379 -0.3583
vn 0.4031 0.8357 -0.3730
vn 0.4203 0.8399 -0.3435
vn -0.4671 0.8660 -0.1790
vn -0.4352 0.8884 -0.1457
vn -0.4383 0.8880 -0.1392
vn -0.4718 0.8730 -0.1236
vn -0.4386 0.8934 -0.0977
vn -0.3737 0.9267 -0.0396
vn -0.3740 0.9273 -0.0082
vn -0.4411 0.8971 0.0231
vn -0.3947 0.9183 0.0320
vn -0.3327 0.9417 0.0512
vn -0.1556 0.9865 0.0509
vn 0.3967 0.9174 0.0334
vn 0.3370 0.9402 0.0500
vn 0.1700 0.9850 0.0298
vn 0.4385 0.8983 0.0292
vn 0.3727 0.9279 -0.0108
vn 0.3732 0.9268 -0.0427
vn 0.4384 0.8935 -0.0975
vn 0.4722 0.8730 -0.1222
vn 0.4384 0.8877 -0.1406
vn 0.4350 0.8883 -0.1474
vn 0.4666 0.8661 -0.1794
# 259 vertex normals

vt 0.0233 0.4930 0.0000
vt 0.0118 0.4930 0.0000
vt 0.3137 0.5667 0.0000
vt 0.3393 0.5285 0.0000
vt 0.3648 0.5674 0.0000
vt 0.3722 0.5297 0.0000
vt 0.3710 0.5461 0.0000
vt 0.3688 0.5676 0.0000
vt 0.3660 0.5890 0.0000
vt 0.3636 0.6035 0.0000
vt 0.3264 0.5272 0.0000
vt 0.3425 0.5234 0.0000
vt 0.3542 0.5168 0.0000
vt 0.3684 0.5106 0.0000
vt 0.3725 0.5168 0.0000
vt 0.3714 0.5065 0.0000
vt 0.3699 0.5010 0.0000
vt 0.3644 0.5094 0.0000
vt 0.3137 0.5328 0.0000
vt 0.3137 0.5275 0.0000
vt 0.3568 0.6130 0.0000
vt 0.3137 0.6178 0.0000
vt 0.3525 0.6202 0.0000
vt 0.3360 0.6218 0.0000
vt 0.3584 0.6169 0.0000
vt 0.3620 0.6130 0.0000
vt 0.3626 0.6086 0.0000
vt 0.3137 0.6212 0.0000
vt 0.3573 0.4197 0.0000
vt 0.3546 0.4169 0.0000
vt 0.3501 0.4109 0.0000
vt 0.3559 0.4140 0.0000
vt 0.3447 0.4029 0.0000
vt 0.3472 0.3984 0.0000
vt 0.3387 0.3854 0.0000
vt 0.3924 0.4103 0.0000
vt 0.3389 0.3938 0.0000
vt 0.3668 0.4163 0.0000
vt 0.3295 0.3775 0.0000
vt 0.3982 0.3699 0.0000
vt 0.3983 0.3889 0.0000
vt 0.3936 0.3718 0.0000
vt 0.3931 0.3908 0.0000
vt 0.3331 0.3729 0.0000
vt 0.3308 0.3574 0.0000
vt 0.3981 0.3512 0.0000
vt 0.3940 0.3528 0.0000
vt 0.3340 0.3536 0.0000
vt 0.3319 0.3420 0.0000
vt 0.3323 0.3376 0.0000
vt 0.3328 0.3332 0.0000
vt 0.3347 0.3385 0.0000
vt 0.3945 0.3284 0.0000
vt 0.3943 0.3382 0.0000
vt 0.3914 0.3312 0.0000
vt 0.3336 0.3306 0.0000
vt 0.3980 0.3364 0.0000
vt 0.3979 0.3271 0.0000
vt 0.4664 0.3460 0.0000
vt 0.4571 0.3291 0.0000
vt 0.4568 0.3194 0.0000
vt 0.4670 0.3649 0.0000
vt 0.4660 0.3702 0.0000
vt 0.4713 0.3684 0.0000
vt 0.4701 0.3493 0.0000
vt 0.5054 0.3895 0.0000
vt 0.5015 0.3934 0.0000
vt 0.4546 0.3807 0.0000
vt 0.5125 0.3948 0.0000
vt 0.5116 0.4008 0.0000
vt 0.4598 0.4009 0.0000
vt 0.3984 0.4078 0.0000
vt 0.5194 0.4092 0.0000
vt 0.5187 0.3993 0.0000
vt 0.5231 0.4073 0.0000
vt 0.5238 0.4037 0.0000
vt 0.5264 0.4067 0.0000
vt 0.5164 0.4135 0.0000
vt 0.4572 0.4180 0.0000
vt 0.3985 0.4172 0.0000
vt 0.3951 0.4178 0.0000
vt 0.3797 0.4206 0.0000
vt 0.9985 0.5972 0.0000
vt 0.9255 0.5972 0.0000
vt 0.9985 0.5016 0.0000
vt 0.9255 0.5016 0.0000
vt 0.4734 0.3526 0.0000
vt 0.4632 0.3350 0.0000
vt 0.4675 0.3330 0.0000
vt 0.4623 0.3264 0.0000
vt 0.4615 0.3237 0.0000
vt 0.4599 0.3215 0.0000
vt 0.4605 0.3319 0.0000
# 93 texture coords

o part_014
g part_014
usemtl 08___Default
s 1
f 1/1/1 2/1/2 3/2/3 
f 4/1/4 1/1/1 5/2/5 
f 4/1/4 5/2/6 6/1/7 
f 7/2/8 6/1/7 5/2/5 
f 6/1/7 7/2/9 8/1/10 
f 3/2/11 5/2/5 1/1/12 
f 9/1/13 10/2/14 11/1/15 
f 10/2/14 9/1/13 12/2/16 
f 13/1/17 12/2/16 9/1/13 
f 12/2/16 13/1/17 14/2/18 
f 15/1/19 14/2/18 13/1/17 
f 14/2/18 15/1/19 16/2/20 
f 17/1/21 16/2/20 15/1/19 
f 16/2/20 17/1/21 18/2/22 
f 8/1/10 18/2/22 17/1/21 
f 18/2/22 8/1/10 7/2/8 
f 19/3/23 20/4/24 21/5/25 
f 22/6/26 23/7/27 21/5/25 
f 2/8/28 21/5/25 23/7/27 
f 21/5/25 2/8/28 1/9/29 
f 1/9/29 4/10/30 21/5/25 
f 24/11/31 25/12/32 20/4/24 
f 26/13/33 20/4/24 25/12/32 
f 27/14/34 20/4/24 26/13/33 
f 20/4/24 27/14/34 21/5/25 
f 21/5/25 27/14/34 22/6/35 
f 22/6/35 27/14/34 28/15/36 
f 28/15/36 27/14/34 29/16/37 
f 29/16/37 27/14/34 30/17/38 
f 31/17/39 30/17/38 27/14/34 
f 26/13/33 32/18/40 27/14/34 
f 33/17/41 27/14/34 32/18/40 
f 31/17/42 27/14/34 33/17/41 
f 19/3/23 34/4/43 35/19/44 
f 36/11/45 35/19/44 34/4/43 
f 37/20/46 35/19/44 36/11/45 
f 24/11/47 35/19/44 37/20/46 
f 20/4/24 35/19/44 24/11/47 
f 19/3/48 35/19/44 20/4/24 
f 38/13/49 39/12/50 34/4/43 
f 36/11/51 34/4/43 39/12/50 
f 34/4/43 40/14/52 38/13/49 
f 38/13/49 40/14/52 41/18/53 
f 41/18/53 40/14/52 42/17/54 
f 43/17/55 42/17/54 40/14/52 
f 44/15/56 40/14/52 45/6/57 
f 46/16/58 40/14/52 44/15/56 
f 47/17/59 40/14/52 46/16/58 
f 40/14/52 47/17/59 43/17/60 
f 40/14/52 48/5/61 45/6/62 
f 49/10/63 50/9/64 48/5/61 
f 51/8/65 48/5/61 50/9/64 
f 52/7/66 48/5/61 51/8/65 
f 45/6/57 48/5/61 52/7/66 
f 53/21/67 48/5/61 54/22/68 
f 48/5/61 53/21/67 49/10/69 
f 53/21/67 54/22/68 55/23/70 
f 11/24/71 55/23/70 54/22/68 
f 55/23/70 56/25/72 53/21/67 
f 57/26/73 53/21/67 56/25/72 
f 58/27/74 53/21/67 57/26/73 
f 53/21/67 58/27/74 49/10/63 
f 59/21/75 15/23/76 54/22/68 
f 13/24/77 54/22/68 15/23/76 
f 9/28/78 54/22/68 13/24/77 
f 54/22/68 9/28/78 11/24/79 
f 15/23/76 59/21/75 17/25/80 
f 17/25/80 59/21/75 8/26/81 
f 8/26/81 59/21/75 6/27/82 
f 6/27/82 59/21/75 4/10/30 
f 4/10/30 59/21/75 21/5/25 
f 54/22/68 21/5/25 59/21/75 
f 21/5/25 54/22/68 19/3/23 
f 48/5/61 19/3/23 54/22/68 
f 19/3/23 48/5/61 34/4/43 
f 40/14/52 34/4/43 48/5/61 
f 43/29/83 60/30/84 42/29/85 
f 60/30/84 61/31/86 62/30/87 
f 61/31/88 63/31/89 62/30/87 
f 41/32/90 62/30/87 63/31/89 
f 42/29/85 62/30/87 41/32/90 
f 62/30/87 42/29/85 60/30/91 
f 61/31/86 64/33/92 63/31/89 
f 65/34/93 66/35/94 67/36/95 
f 66/35/94 65/34/93 68/37/96 
f 69/33/97 68/37/96 65/34/93 
f 68/37/96 69/33/97 70/37/98 
f 70/37/98 69/33/97 64/33/99 
f 64/33/99 69/33/97 63/31/89 
f 65/34/93 63/31/89 69/33/97 
f 63/31/89 65/34/93 41/32/90 
f 38/38/100 41/32/90 65/34/93 
f 70/37/98 71/39/101 68/37/96 
f 72/40/102 73/41/103 74/42/104 
f 75/43/105 74/42/104 73/41/103 
f 74/42/104 75/43/105 76/44/106 
f 66/35/94 76/44/106 75/43/105 
f 76/44/106 66/35/94 77/39/107 
f 68/37/96 77/39/107 66/35/94 
f 71/39/108 77/39/107 68/37/96 
f 77/39/107 71/39/108 78/45/109 
f 77/39/107 79/45/110 76/44/106 
f 80/46/111 72/40/102 81/47/112 
f 76/44/106 82/48/113 74/42/114 
f 82/48/113 76/44/106 79/45/115 
f 77/39/107 78/45/116 79/45/115 
f 83/49/117 79/45/115 78/45/116 
f 84/49/118 83/49/117 85/50/119 
f 83/49/117 84/49/118 79/45/115 
f 82/48/120 79/45/115 84/49/118 
f 86/50/121 84/49/118 85/50/122 
f 85/50/119 87/51/123 86/50/121 
f 88/51/124 86/50/121 87/51/125 
f 89/52/126 86/50/121 88/51/124 
f 86/50/121 89/52/126 84/49/118 
f 82/48/127 84/49/118 89/52/126 
f 90/53/128 91/54/129 92/55/130 
f 89/52/126 92/55/130 91/54/129 
f 92/55/130 89/52/126 93/56/131 
f 88/51/124 93/56/131 89/52/126 
f 93/56/131 88/51/124 94/56/132 
f 87/51/123 94/56/132 88/51/124 
f 93/56/131 94/56/132 92/55/130 
f 95/55/133 92/55/130 94/56/133 
f 96/53/134 90/53/128 95/55/135 
f 92/55/136 95/55/135 90/53/128 
f 91/54/129 81/47/137 89/52/138 
f 74/42/104 82/48/113 81/47/137 
f 89/52/138 81/47/137 82/48/113 
f 74/42/104 81/47/139 72/40/140 
f 81/47/139 91/54/141 80/46/111 
f 80/46/111 91/54/142 97/57/143 
f 90/53/144 97/57/143 91/54/142 
f 97/57/143 90/53/144 98/58/145 
f 96/53/146 98/58/145 90/53/144 
f 10/58/147 98/58/145 96/53/147 
f 99/59/148 97/57/149 100/60/150 
f 98/58/151 100/60/150 97/57/149 
f 100/60/150 98/58/151 101/61/151 
f 10/58/152 101/61/151 98/58/151 
f 99/59/148 102/62/153 80/46/154 
f 12/61/155 101/61/151 10/58/155 
f 72/40/156 80/46/157 102/62/153 
f 80/46/157 97/57/158 99/59/148 
f 103/63/159 104/64/160 105/65/161 
f 106/66/162 104/64/160 103/63/159 
f 107/67/163 104/64/160 106/66/162 
f 104/64/160 107/67/163 102/62/153 
f 108/68/164 102/62/153 107/67/163 
f 102/62/153 108/68/164 72/40/156 
f 73/41/103 72/40/156 108/68/164 
f 109/69/165 106/66/162 110/69/166 
f 106/66/162 109/69/165 107/67/163 
f 111/70/167 107/67/163 109/69/165 
f 107/67/163 111/70/167 108/68/164 
f 112/71/168 108/68/164 111/70/167 
f 108/68/164 112/71/168 73/41/103 
f 113/72/169 73/41/103 112/71/168 
f 73/41/103 113/72/169 75/43/105 
f 67/36/95 75/43/105 113/72/169 
f 75/43/105 67/36/95 66/35/94 
f 111/70/167 26/73/170 112/71/168 
f 110/69/166 114/74/171 109/69/165 
f 115/74/172 109/69/165 114/74/171 
f 109/69/165 115/74/172 111/70/167 
f 32/75/173 111/70/167 115/74/172 
f 111/70/167 32/75/173 26/73/174 
f 114/74/171 116/76/175 115/74/172 
f 31/77/176 33/77/177 117/76/178 
f 32/75/173 117/76/178 33/77/177 
f 115/74/172 117/76/178 32/75/173 
f 117/76/178 115/74/172 116/76/179 
f 116/76/175 31/77/179 117/76/178 
f 26/73/174 25/78/180 112/71/168 
f 24/79/181 112/71/168 25/78/180 
f 112/71/168 24/79/181 113/72/169 
f 37/80/182 113/72/169 24/79/181 
f 36/81/183 113/72/169 37/80/182 
f 113/72/169 36/81/183 67/36/95 
f 39/82/184 67/36/95 36/81/183 
f 67/36/95 39/82/184 65/34/93 
f 38/38/185 65/34/93 39/82/184 
f 118/83/186 119/84/186 120/85/186 
f 121/86/186 120/85/186 119/84/186 
f 3/87/187 122/88/188 5/88/189 
f 7/89/190 5/88/189 122/88/188 
f 7/89/190 123/89/191 18/90/192 
f 123/89/191 7/89/193 122/88/188 
f 18/90/192 124/90/194 16/91/195 
f 125/91/196 16/91/197 124/90/194 
f 16/91/195 125/91/196 14/92/198 
f 124/90/194 126/93/199 125/91/196 
f 127/92/200 125/91/196 126/93/199 
f 125/91/196 127/92/200 14/92/201 
f 127/92/202 126/93/199 101/61/203 
f 100/60/204 101/61/203 126/93/199 
f 101/61/203 12/61/205 127/92/200 
f 14/92/206 127/92/202 12/61/206 
f 105/65/207 126/93/199 128/87/208 
f 128/87/208 103/63/159 105/65/209 
f 126/93/210 105/65/209 100/60/204 
f 123/89/191 124/90/194 18/90/211 
f 124/90/194 123/89/191 126/93/199 
f 122/88/188 126/93/199 123/89/191 
f 126/93/199 122/88/188 128/87/208 
f 3/87/212 128/87/208 122/88/188 
f 129/63/213 128/87/208 3/87/212 
f 128/87/208 129/63/213 103/63/159 
f 130/66/214 103/63/159 129/63/213 
f 103/63/159 130/66/214 106/66/162 
f 110/69/166 106/66/162 130/66/214 
f 100/60/210 105/65/209 99/59/215 
f 104/64/160 99/59/215 105/65/209 
f 99/59/215 104/64/160 102/62/216 
f 83/2/217 78/2/218 49/1/219 
f 85/2/220 83/2/217 58/1/221 
f 50/1/222 49/1/219 78/2/223 
f 87/2/224 85/2/220 57/1/225 
f 78/2/218 71/2/226 50/1/227 
f 56/1/228 87/2/224 57/1/229 
f 87/2/224 56/1/228 94/2/230 
f 94/2/230 56/1/228 95/2/231 
f 55/1/232 95/2/231 56/1/228 
f 95/2/231 55/1/232 96/2/233 
f 11/1/15 96/2/233 55/1/232 
f 96/2/233 11/1/234 10/2/14 
f 58/1/235 57/1/229 85/2/236 
f 49/1/219 58/1/235 83/2/237 
f 3/2/11 2/1/2 129/2/238 
f 23/1/239 129/2/238 2/1/2 
f 129/2/238 23/1/239 130/2/240 
f 22/1/241 130/2/240 23/1/239 
f 130/2/240 22/1/241 110/2/242 
f 28/1/243 110/2/242 22/1/241 
f 110/2/242 28/1/243 114/2/244 
f 29/1/245 114/2/244 28/1/243 
f 114/2/244 29/1/245 116/2/246 
f 30/1/247 116/2/246 29/1/245 
f 116/2/246 30/1/247 31/2/248 
f 46/1/249 43/2/250 47/1/251 
f 43/2/250 46/1/249 60/2/252 
f 44/1/253 60/2/252 46/1/249 
f 60/2/252 44/1/253 61/2/254 
f 45/1/255 61/2/254 44/1/253 
f 61/2/254 45/1/255 64/2/256 
f 52/1/257 64/2/256 45/1/255 
f 64/2/256 52/1/257 70/2/258 
f 51/1/259 70/2/258 52/1/257 
f 70/2/258 51/1/259 71/2/226 
f 50/1/222 71/2/226 51/1/259 
# 250 faces

