# 3ds Max Wavefront OBJ Exporter v0.99 - (c)2007 guruware
# File Created: 29.03.2025 15:30:43

mtllib rinizq.mtl

#
# object part_028
#

v  27.1424 -0.3638 4.2335
v  27.0523 -0.3559 4.2760
v  27.1239 -0.2245 4.2083
v  27.0416 -0.2073 4.2495
v  27.0336 0.0063 4.2030
v  27.1172 -0.0056 4.1552
v  27.0376 0.2358 4.1685
v  27.1264 0.1960 4.1021
v  27.0443 -0.4421 4.2057
v  27.1410 -0.4447 4.1220
v  27.0495 -0.4832 4.1301
v  27.1464 -0.4182 4.1884
v  27.0509 -0.3824 4.2680
v  27.0508 -0.4819 4.1022
v  27.1224 -0.3784 3.9974
v  27.0414 -0.4116 3.9696
v  27.0346 -0.3015 3.7799
v  27.1182 -0.2603 3.8063
v  27.0451 -0.1980 3.5729
v  27.1327 -0.1463 3.6312
v  27.3485 -1.2177 4.6071
v  27.3487 -1.0117 4.8542
v  27.2066 -1.1551 4.5843
v  27.2067 -0.9782 4.7963
v  27.3469 -1.2177 4.2867
v  27.2050 -1.1551 4.3082
v  27.3467 -1.0117 4.0396
v  27.2048 -0.9782 4.0977
v  27.3488 -0.6944 4.9091
v  27.3486 -0.4168 4.7489
v  27.2068 -0.7066 4.8436
v  27.2066 -0.4671 4.7063
v  27.3484 -0.3054 4.4469
v  27.2064 -0.3725 4.4470
v  27.3468 -0.4168 4.1448
v  27.2049 -0.4671 4.1877
v  27.0257 0.2159 4.2256
v  27.0377 0.2623 4.2508
v  27.0257 0.1827 4.2203
v  27.0394 0.2358 4.7244
v  27.0393 0.2623 4.6435
v  27.0274 0.2159 4.6674
v  27.0274 0.1827 4.6727
v  27.0694 -0.9449 4.1420
v  27.0841 -0.9502 4.2083
v  27.2432 -0.8693 4.1817
v  27.0627 -0.8958 4.0995
v  27.0747 -0.8295 4.1048
v  27.0920 -0.7870 4.1552
v  27.1093 -0.7923 4.2202
v  27.1146 -0.8427 4.2627
v  27.1027 -0.9077 4.2574
v  27.0642 -0.5389 4.1964
v  27.0801 -0.6026 4.2110
v  27.2433 -0.5522 4.2811
v  27.0522 -0.4832 4.2309
v  27.0589 -0.4673 4.2946
v  27.0815 -0.5018 4.3503
v  27.0921 -0.5655 4.3648
v  27.1067 -0.6212 4.3317
v  27.0987 -0.6371 4.2680
v  27.1506 -0.7737 4.4470
v  27.0814 -0.6888 4.1831
v  27.0869 -0.4965 4.4471
v  27.0949 -0.5628 4.5240
v  27.1082 -0.6199 4.5585
v  27.1003 -0.6344 4.6222
v  27.0829 -0.4898 4.4763
v  27.0816 -0.4898 4.4166
v  27.0831 -0.7140 4.7270
v  27.0831 -0.6875 4.7111
v  27.1110 -0.7910 4.6633
v  27.1162 -0.8414 4.6209
v  27.1056 -0.9064 4.6262
v  27.0660 -0.7711 4.8530
v  27.0567 -0.8215 4.8743
v  27.0594 -0.8069 4.8968
v  27.0766 -0.8295 4.7788
v  27.0765 -0.7446 4.7668
v  27.0951 -0.7870 4.7297
v  27.0646 -0.8945 4.7841
v  27.0474 -0.8998 4.8371
v  27.0501 -0.9860 4.8226
v  27.0502 -0.7737 5.0467
v  27.0712 -0.9435 4.7416
v  27.0398 -0.7631 5.2643
v  27.0371 -0.7485 5.2630
v  27.0502 -0.7857 5.0467
v  27.1069 -0.9966 4.5068
v  27.0764 -0.9860 4.6381
v  27.0871 -0.9488 4.6766
v  27.0685 -0.9847 4.6899
v  27.0553 -1.0138 4.7748
v  27.0527 -1.0112 4.8318
v  27.0777 -0.9979 4.6103
v  27.0422 -1.1266 4.9327
v  27.0344 -1.2725 5.0932
v  27.0357 -1.2619 5.1025
v  27.0422 -1.1160 4.9393
v  27.0723 -0.4607 4.3741
v  27.0179 -0.3678 4.4047
v  27.0576 -0.3864 4.3224
v  27.0125 -0.3280 4.3609
v  27.0417 -0.2033 4.2614
v  27.0204 0.0129 4.2362
v  27.0310 0.0103 4.2190
v  27.0112 -0.1927 4.2906
v  27.0232 -0.3771 4.4471
v  27.0193 -0.3678 4.4883
v  27.0737 -0.4607 4.5187
v  27.0153 -0.3280 4.5321
v  27.0591 -0.3864 4.5705
v  27.0433 -0.2033 4.6328
v  27.0327 0.0103 4.6753
v  27.0221 0.0129 4.6567
v  27.0127 -0.1927 4.6024
v  27.3467 -0.6944 3.9831
v  27.2048 -0.7066 4.0488
v  27.0948 -1.7355 4.4245
v  27.0073 -1.7010 4.4365
v  27.0192 -1.6838 4.4286
v  27.0086 -1.7010 4.4578
v  27.0272 -1.6732 4.4471
v  27.0206 -1.6838 4.4657
v  27.0962 -1.7355 4.4696
v  27.0816 -1.7567 4.4604
v  27.1042 -1.7674 4.4471
v  27.0803 -1.7567 4.4338
v  27.0478 -1.4264 5.2656
v  27.0278 -1.4437 5.2073
v  27.0398 -1.4967 5.2152
v  27.0394 -1.7541 4.8159
v  27.0395 -1.7276 4.8982
v  27.0275 -1.7037 4.8504
v  27.0331 -1.4145 5.1927
v  27.0275 -1.6798 4.8265
v  27.0314 -1.5418 4.7231
v  27.0208 -1.5339 4.7403
v  27.0420 -1.3442 4.6329
v  27.0101 -1.3362 4.6634
v  27.0101 -1.1837 4.6408
v  27.0128 -1.1266 4.6528
v  27.0565 -1.1598 4.5745
v  27.0698 -1.0696 4.5731
v  27.0764 -1.0218 4.5890
v  27.0141 -1.0948 4.6806
v  27.0115 -1.0775 4.7204
v  27.0089 -1.0842 4.7788
v  27.0237 -1.2871 5.0799
v  27.0528 -1.1651 4.9061
v  27.0375 -1.7541 4.0797
v  27.0256 -1.7037 4.0452
v  27.0375 -1.7276 3.9974
v  27.0451 -1.4264 3.6286
v  27.0372 -1.4967 3.6790
v  27.0253 -1.4450 3.6870
v  27.0256 -1.6811 4.0691
v  27.0306 -1.4145 3.7016
v  27.0320 -1.2739 3.8024
v  27.0214 -1.2871 3.8144
v  27.0401 -1.1266 3.9616
v  27.0083 -1.1531 3.9789
v  27.0070 -1.0842 4.1168
v  27.0097 -1.0789 4.1752
v  27.0535 -1.0152 4.1195
v  27.0668 -0.9847 4.2043
v  27.0748 -0.9860 4.2561
v  27.0124 -1.0948 4.2137
v  27.0762 -0.9993 4.2839
v  27.0749 -1.0218 4.3052
v  27.0111 -1.1266 4.2429
v  27.0682 -1.0696 4.3211
v  27.0550 -1.1598 4.3198
v  27.0085 -1.1850 4.2548
v  27.0403 -1.3442 4.2627
v  27.0190 -1.5339 4.1553
v  27.0296 -1.5418 4.1712
v  27.0085 -1.3362 4.2322
v  27.0310 -1.5485 4.1858
v  27.0403 -1.3482 4.2747
v  27.0523 -1.2128 4.3410
v  27.1054 -0.9966 4.3861
v  27.0868 -1.0576 4.3609
v  27.0723 -1.1173 4.3861
v  27.0510 -1.1956 4.3622
v  27.0683 -1.1425 4.4471
v  27.0511 -1.1837 4.4471
v  27.0525 -1.1956 4.5334
v  27.0737 -1.1173 4.5068
v  27.0538 -1.2128 4.5546
v  27.0883 -1.0576 4.5320
v  27.0327 -1.5471 4.7085
v  27.0419 -1.3468 4.6209
v  27.0481 -0.9860 4.0730
v  27.0508 -1.0112 4.0637
v  27.1187 -0.9714 4.4471
v  27.0455 -0.9011 4.0571
v  27.0547 -0.8228 4.0200
v  27.0814 -0.7154 4.1672
v  27.0747 -0.7459 4.1274
v  27.0627 -0.7724 4.0412
v  27.0574 -0.8082 3.9961
v  27.0480 -0.7737 3.8475
v  27.0345 -0.7485 3.6313
v  27.0372 -0.7645 3.6300
v  27.0480 -0.7870 3.8475
v  27.1226 -1.3588 4.3171
v  27.1146 -1.5670 4.2308
v  27.1439 -1.2314 4.3781
v  27.1238 -1.7607 4.1565
v  27.1453 -1.2301 4.5160
v  27.1532 -1.2128 4.4470
v  27.1242 -1.3574 4.5784
v  27.1163 -1.5657 4.6633
v  27.1256 -1.7607 4.7389
v  27.0370 -0.7273 3.4005
v  27.0251 -0.6782 3.4376
v  27.0370 -0.6411 3.4005
v  27.0371 -0.2670 3.5212
v  27.0252 -0.2577 3.5742
v  27.0264 -0.6941 3.4681
v  27.0305 -0.2630 3.6074
v  27.0320 -0.3147 3.7719
v  27.0214 -0.3307 3.7639
v  27.0414 -0.4209 3.9616
v  27.0096 -0.4461 3.9417
v  27.0096 -0.5549 4.0492
v  27.0136 -0.6092 4.0731
v  27.0561 -0.5363 4.1168
v  27.0694 -0.6092 4.1712
v  27.0787 -0.6570 4.1858
v  27.0163 -0.6517 4.0691
v  27.0176 -0.6875 4.0478
v  27.0149 -0.7180 3.9974
v  27.0239 -0.7313 3.6339
v  27.0161 -0.7432 3.8462
v  27.1276 -0.8308 3.8501
v  27.1194 -0.8135 3.6259
v  27.1462 -0.8494 3.9907
v  27.1246 -0.8016 3.4176
v  27.1423 -0.9807 4.0345
v  27.1476 -0.9091 4.0292
v  27.1223 -1.0789 3.9323
v  27.0401 -1.1160 3.9550
v  27.0333 -1.2619 3.7918
v  27.1182 -1.2248 3.7599
v  27.1313 -1.3561 3.5980
v  27.0478 -0.1967 5.3214
v  27.0279 -0.2577 5.3200
v  27.0399 -0.2657 5.3718
v  27.0400 -0.7260 5.4925
v  27.0400 -0.6398 5.4938
v  27.0280 -0.6782 5.4567
v  27.0332 -0.2630 5.2869
v  27.0293 -0.6928 5.4262
v  27.0265 -0.7300 5.2603
v  27.0184 -0.7419 5.0481
v  27.0170 -0.7167 4.8969
v  27.0196 -0.6875 4.8465
v  27.0182 -0.6504 4.8239
v  27.0792 -0.6570 4.7084
v  27.0156 -0.6079 4.8213
v  27.0712 -0.6079 4.7230
v  27.0567 -0.5363 4.7774
v  27.0116 -0.5549 4.8438
v  27.0435 -0.4209 4.9327
v  27.0238 -0.3307 5.1303
v  27.0344 -0.3147 5.1210
v  27.0117 -0.4447 4.9513
v  27.0370 -0.3015 5.1131
v  27.0435 -0.4102 4.9247
v  27.0527 -0.4819 4.7920
v  27.0818 -0.6000 4.6779
v  27.0659 -0.5363 4.6939
v  27.0513 -0.4832 4.7642
v  27.0539 -0.4806 4.6594
v  27.0605 -0.4646 4.5957
v  27.0526 -0.3824 4.6249
v  27.0460 -0.4421 4.6872
v  27.0539 -0.3559 4.6182
v  27.0830 -0.4991 4.5400
v  27.0354 0.0063 4.6899
v  27.0433 -0.2073 4.6435
v  27.1244 -0.3771 4.8968
v  27.1206 -0.2590 5.0878
v  27.1429 -0.4434 4.7721
v  27.1353 -0.1463 5.2629
v  27.1481 -0.4182 4.7044
v  27.1441 -0.3638 4.6593
v  27.1256 -0.2245 4.6845
v  27.1190 -0.0056 4.7376
v  27.1283 0.1960 4.7906
v  27.2488 -1.0576 4.4470
v  27.2463 -0.8679 4.7030
v  27.2449 -0.5495 4.6088
v  27.3534 -1.0922 5.2329
v  27.3528 -0.7678 4.4498
v  27.3533 -1.3672 5.0492
v  27.3530 -1.5509 4.7742
v  27.3528 -1.6155 4.4498
v  27.3525 -1.5509 4.1254
v  27.3523 -1.3672 3.8503
v  27.3522 -1.0922 3.6666
v  27.3521 -0.7678 3.6021
v  27.3522 -0.4434 3.6666
v  27.3523 -0.1683 3.8503
v  27.3525 0.0154 4.1254
v  27.3528 0.0800 4.4498
v  27.3530 0.0154 4.7742
v  27.3533 -0.1683 5.0492
v  27.3534 -0.4434 5.2329
v  27.3535 -0.7678 5.2975
v  27.4237 -0.4434 5.2329
v  27.4230 -0.7678 4.4497
v  27.4235 -0.1683 5.0491
v  27.4233 0.0154 4.7741
v  27.4230 0.0800 4.4497
v  27.4228 0.0154 4.1253
v  27.4226 -0.1683 3.8503
v  27.4224 -0.4434 3.6665
v  27.4224 -0.7678 3.6020
v  27.4224 -1.0922 3.6665
v  27.4226 -1.3672 3.8503
v  27.4228 -1.5509 4.1253
v  27.4230 -1.6155 4.4497
v  27.4233 -1.5509 4.7741
v  27.4235 -1.3672 5.0491
v  27.4237 -1.0922 5.2329
v  27.4237 -0.7678 5.2974
v  27.4260 -0.7768 3.6032
v  27.4260 -1.0651 3.6551
v  27.3464 -0.7768 3.6033
v  27.3464 -1.0651 3.6552
v  27.4261 -1.3183 3.8015
v  27.3465 -1.3183 3.8016
v  27.4283 -1.5060 4.8679
v  27.4285 -1.3183 5.0921
v  27.3487 -1.5060 4.8679
v  27.3489 -1.3183 5.0922
v  27.4263 -1.5060 4.0258
v  27.4265 -1.6067 4.3004
v  27.3467 -1.5060 4.0259
v  27.3469 -1.6067 4.3004
v  27.4281 -1.6067 4.5933
v  27.3485 -1.6067 4.5933
v  27.4286 -1.0651 5.2386
v  27.3490 -1.0651 5.2386
v  27.4287 -0.7768 5.2904
v  27.3491 -0.7768 5.2905
v  27.4260 -0.4885 3.6551
v  27.3464 -0.4885 3.6552
v  27.4286 -0.4885 5.2386
v  27.3490 -0.4885 5.2386
v  27.4285 -0.2337 5.0921
v  27.3489 -0.2337 5.0922
v  27.4283 -0.0461 4.8679
v  27.3487 -0.0461 4.8679
v  27.4281 0.0546 4.5933
v  27.3485 0.0546 4.5933
v  27.4265 0.0546 4.3004
v  27.3469 0.0546 4.3004
v  27.4263 -0.0461 4.0258
v  27.3467 -0.0461 4.0259
v  27.4261 -0.2337 3.8015
v  27.3465 -0.2337 3.8016
v  27.1206 -1.2248 5.1342
v  27.1245 -1.0789 4.9631
v  27.1429 -0.9807 4.8609
v  27.1340 -1.3548 5.2961
v  27.1496 -0.9091 4.8649
v  27.1483 -0.8494 4.9034
v  27.1298 -0.8295 5.0427
v  27.1221 -0.8122 5.2682
v  27.1275 -0.8016 5.4752
v  27.1027 0.0169 4.2600
v  27.0987 -0.1808 4.3211
v  27.1372 0.2079 4.2454
v  27.1147 -0.3041 4.3887
v  27.1254 -0.3360 4.4205
v  27.1267 -0.3360 4.4723
v  27.1161 -0.3041 4.5041
v  27.1003 -0.1808 4.5731
v  27.1043 0.0169 4.6328
v  27.1388 0.2079 4.6474
v  27.1049 -0.3532 3.7519
v  27.1433 -0.2802 3.5755
v  27.0971 -0.4713 3.9218
v  27.1118 -0.5747 4.0186
v  27.1211 -0.6145 4.0385
v  27.1224 -0.6636 4.0226
v  27.1144 -0.6835 3.9828
v  27.1010 -0.7114 3.8448
v  27.1062 -0.7074 3.6379
v  27.1378 -0.6623 3.4508
v  27.1138 -0.5734 4.8756
v  27.1230 -0.6132 4.8557
v  27.0979 -0.4699 4.9711
v  27.1244 -0.6623 4.8716
v  27.1165 -0.6835 4.9114
v  27.1033 -0.7101 5.0494
v  27.1460 -0.2789 5.3186
v  27.1074 -0.3519 5.1409
v  27.1088 -0.7061 5.2563
v  27.1408 -0.6610 5.4420
v  27.1012 -1.5233 4.1340
v  27.0947 -1.3269 4.2003
v  27.1383 -1.6864 4.0332
v  27.1079 -1.1876 4.2176
v  27.1172 -1.1439 4.2109
v  27.1172 -1.1133 4.1685
v  27.1079 -1.1200 4.1247
v  27.0945 -1.1797 3.9974
v  27.1037 -1.3044 3.8315
v  27.1434 -1.4503 3.7081
v  27.1060 -1.3031 5.0626
v  27.1459 -1.4490 5.1873
v  27.1097 -1.1200 4.7708
v  27.1190 -1.1120 4.7257
v  27.1189 -1.1425 4.6832
v  27.1096 -1.1876 4.6766
v  27.0964 -1.3269 4.6938
v  27.1031 -1.5233 4.7615
v  27.1416 -1.6851 4.8623
v  27.1103 -0.4421 5.4593
v  27.1102 -0.6742 5.3929
v  27.1102 -0.8719 5.3929
v  27.1102 -0.4806 5.3518
v  27.1101 -0.2988 5.2709
v  27.1508 -0.8361 4.6633
v  27.1468 -0.8865 4.6566
v  27.1468 -0.8149 4.7110
v  27.1376 -0.8984 4.7455
v  27.1402 -0.9183 4.6978
v  27.1415 -0.8467 4.7522
v  27.1493 -0.5827 4.5651
v  27.1467 -0.6039 4.6115
v  27.1440 -0.5310 4.5598
v  27.1362 -0.5230 4.6500
v  27.1415 -0.5747 4.6540
v  27.1388 -0.5005 4.6023
v  27.1371 -0.9197 4.1857
v  27.1438 -0.8878 4.2282
v  27.1344 -0.8998 4.1380
v  27.1451 -0.8162 4.1738
v  27.1477 -0.8361 4.2215
v  27.1384 -0.8480 4.1326
v  27.1385 -0.5747 4.2308
v  27.1451 -0.6039 4.2733
v  27.1345 -0.5230 4.2361
v  27.1425 -0.5310 4.3250
v  27.1465 -0.5827 4.3210
v  27.1372 -0.5005 4.2826
v  27.1519 -1.0059 4.4470
v  27.1413 -1.0842 4.4908
v  27.1466 -1.0324 4.4908
v  27.1413 -1.1107 4.4471
v  27.1399 -1.0842 4.4019
v  27.1452 -1.0324 4.4019
v  27.0975 -1.7873 4.4723
v  27.0338 -1.6997 4.4471
v  27.0962 -1.7873 4.4219
v  27.1241 -1.7475 4.4882
v  27.1413 -1.7687 4.4471
v  27.1227 -1.7475 4.4059
v  27.0348 -1.7382 4.0120
v  27.1091 -1.6878 4.0345
v  27.0347 -1.6267 3.8197
v  27.1093 -1.7528 4.2335
v  27.0213 -1.4928 5.3267
v  27.0213 -1.3972 5.3970
v  27.0371 -1.4861 5.2298
# 471 vertices

vn -0.3947 0.3666 -0.8425
vn -0.4320 -0.2160 -0.8756
vn -0.4712 -0.2064 -0.8575
vn -0.4427 0.0489 -0.8953
vn -0.4718 -0.1958 -0.8597
vn -0.4961 -0.1806 -0.8493
vn -0.5526 -0.1692 -0.8161
vn -0.5061 -0.1197 -0.8541
vn -0.6375 -0.1686 -0.7518
vn -0.3288 0.7646 -0.5543
vn -0.3932 0.9115 -0.1204
vn -0.3942 0.8909 -0.2255
vn -0.2775 0.7781 -0.5635
vn -0.3930 0.5008 -0.7712
vn -0.4367 0.8673 0.2390
vn -0.3854 0.9224 0.0259
vn -0.4653 0.7573 0.4583
vn -0.4223 0.7725 0.4742
vn -0.4664 0.7627 0.4482
vn -0.4918 0.7578 0.4287
vn -0.5527 0.7288 0.4042
vn -0.5015 0.7837 0.3665
vn -0.6445 0.6639 0.3793
vn -0.4036 -0.7027 0.5859
vn -0.4047 -0.7019 0.5861
vn -0.4030 -0.9152 0.0020
vn -0.4056 -0.7024 -0.5850
vn -0.4021 -0.7023 -0.5875
vn -0.3987 -0.7022 -0.5899
vn -0.4255 0.1583 0.8910
vn -0.4024 0.4562 0.7937
vn -0.4209 0.2634 0.8680
vn -0.4001 0.4556 0.7952
vn -0.4024 -0.1570 0.9019
vn -0.4041 -0.1559 0.9013
vn -0.4001 0.8598 0.3173
vn -0.4029 0.8592 0.3154
vn -0.4057 0.8586 0.3135
vn -0.4060 0.8581 -0.3143
vn -0.4030 0.8600 -0.3131
vn -0.3999 0.8618 -0.3120
vn -0.9754 0.1654 -0.1457
vn -0.9504 0.2963 -0.0949
vn -0.9661 0.2516 -0.0585
vn -0.9806 0.0311 -0.1936
vn -0.9753 0.1642 0.1477
vn -0.9663 0.2505 0.0600
vn -0.9508 0.2941 0.0972
vn -0.9803 0.0311 0.1952
vn -0.4249 0.8901 0.1651
vn -0.9851 0.0829 0.1508
vn -0.4312 0.2966 0.8521
vn -0.4091 0.5644 0.7170
vn -0.4544 -0.3188 0.8318
vn -0.4922 -0.7827 0.3811
vn -0.5390 -0.7844 -0.3071
vn -0.5522 -0.2288 -0.8017
vn -0.5139 0.4865 -0.7066
vn -0.4608 0.7502 -0.4742
vn -0.4193 0.1017 0.9022
vn -0.9846 -0.1512 0.0873
vn -0.4078 -0.7468 0.5254
vn -0.3915 -0.5435 0.7425
vn -0.4206 -0.9060 -0.0479
vn -0.4650 -0.5998 -0.6512
vn -0.4869 0.0445 -0.8723
vn -0.5303 0.6654 -0.5254
vn -0.5086 0.8320 0.2216
vn -0.4554 0.6881 0.5649
vn -0.9732 -0.2113 0.0907
vn -0.9649 -0.1263 0.2303
vn -0.9999 -0.0137 0.0015
vn -0.9581 0.2480 0.1433
vn -0.9826 0.1067 0.1518
vn -0.9658 -0.1153 0.2322
vn -0.9461 -0.1524 0.2859
vn -0.9645 -0.2633 0.0186
vn -0.9749 -0.2149 0.0576
vn -0.9752 -0.2207 0.0181
vn -0.9753 -0.2153 -0.0490
vn -0.9752 -0.2003 -0.0940
vn -0.9754 -0.1550 -0.1567
vn -0.9732 -0.2143 -0.0832
vn -0.9761 -0.2073 0.0653
vn -0.9682 -0.2186 0.1216
vn -0.9584 -0.1325 -0.2526
vn -0.9522 -0.1585 -0.2613
vn -0.9435 -0.1707 -0.2841
vn -0.9730 -0.0923 -0.2113
vn -0.9829 0.0974 -0.1563
vn -0.9795 0.1487 -0.1357
vn -0.9908 0.0852 -0.1047
vn -0.9696 0.1695 -0.1764
vn -0.9954 0.0907 -0.0309
vn -0.9702 0.0446 -0.2381
vn -0.9594 -0.0801 -0.2703
vn -0.9451 -0.1291 -0.3003
vn -0.9654 0.0814 -0.2478
vn -0.9466 0.1333 -0.2935
vn -0.9517 0.0227 -0.3062
vn -0.9931 0.0856 -0.0797
vn -0.9981 -0.0243 -0.0570
vn -0.9640 0.1878 -0.1884
vn -0.9883 0.0252 -0.1503
vn -0.9949 -0.0915 -0.0433
vn -0.9825 -0.1823 -0.0382
vn -0.9985 -0.0000 -0.0545
vn -0.9298 0.2422 -0.2772
vn -0.9425 0.2550 -0.2162
vn -0.9529 0.2666 -0.1444
vn -0.9097 0.3780 -0.1722
vn -0.9146 0.3739 -0.1540
vn -0.9321 0.3230 -0.1639
vn -0.9939 0.0608 -0.0916
vn -0.9979 -0.0407 -0.0503
vn -0.8583 0.4559 -0.2355
vn -0.9985 0.0493 -0.0244
vn -0.9976 0.0492 -0.0479
vn -0.9950 0.0933 0.0363
vn -0.9985 0.0549 0.0055
vn -0.9987 0.0272 -0.0429
vn -0.8588 -0.3957 -0.3254
vn -0.8737 -0.4480 -0.1894
vn -0.8354 -0.3272 -0.4415
vn -0.7965 -0.2526 -0.5494
vn -0.7733 -0.2204 -0.5945
vn -0.7885 -0.3956 -0.4709
vn -0.8405 -0.4480 -0.3048
vn -0.7873 -0.1471 -0.5988
vn -0.8530 -0.1423 -0.5021
vn -0.7138 -0.2412 -0.6575
vn -0.8833 -0.4682 -0.0227
vn -0.8737 -0.4686 -0.1304
vn -0.8843 -0.4667 0.0174
vn -0.8822 -0.4705 0.0196
vn -0.8822 -0.4686 0.0464
vn -0.8738 -0.4433 0.1998
vn -0.8735 -0.4686 0.1318
vn -0.7957 -0.3850 0.4676
vn -0.8470 -0.4292 0.3137
vn -0.8583 -0.3957 0.3267
vn -0.8392 -0.3268 0.4348
vn -0.7860 -0.2181 0.5784
vn -0.8059 -0.2523 0.5356
vn -0.8679 -0.1379 0.4772
vn -0.8019 -0.1428 0.5802
vn -0.7264 -0.2389 0.6445
vn -0.9808 -0.1266 0.1482
vn -0.9923 -0.0333 0.1196
vn -0.9870 -0.1343 0.0885
vn -0.9785 -0.1639 0.1252
vn -0.9867 -0.1612 0.0231
vn -0.9863 -0.1275 0.1043
vn -0.9803 -0.0793 0.1811
vn -0.9843 -0.1747 0.0267
vn -0.9669 -0.2405 0.0858
vn -0.9679 -0.2131 0.1336
vn -0.9916 -0.0452 0.1214
vn -0.9970 -0.0272 0.0731
vn -0.9981 -0.0607 -0.0088
vn -0.9953 -0.0623 0.0737
vn -0.9865 -0.0778 -0.1443
vn -0.9962 -0.0565 -0.0662
vn -0.9985 -0.0510 0.0177
vn -0.4228 0.2650 -0.8666
vn -0.4039 0.4597 -0.7909
vn -0.4023 0.4609 -0.7911
vn -0.4242 0.0476 -0.9043
vn -0.4049 -0.1610 -0.9001
vn -0.4064 -0.1618 -0.8993
vn -1.0000 0.0006 0.0029
vn -1.0000 -0.0007 0.0026
vn -1.0000 0.0017 0.0041
vn -1.0000 0.0057 0.0056
vn -1.0000 0.0025 0.0031
vn -1.0000 0.0042 0.0034
vn -1.0000 0.0070 0.0034
vn -0.2343 -0.2695 -0.9341
vn -0.6977 -0.2727 -0.6625
vn -0.3460 0.8774 -0.3322
vn -0.9612 -0.0361 0.2735
vn 0.0305 0.9859 -0.1645
vn -0.3110 0.2726 0.9105
vn 0.1421 0.2797 0.9495
vn -0.5026 -0.6348 0.5869
vn 0.6360 0.5199 -0.5703
vn -0.2368 -0.2665 0.9343
vn -0.6056 -0.7948 0.0383
vn -0.5163 -0.6470 -0.5610
vn 0.4405 0.7019 -0.5597
vn 0.6937 0.7151 0.0856
vn 0.6578 0.5378 -0.5273
vn -0.9500 0.0679 0.3047
vn -0.9203 -0.1533 0.3599
vn -0.9586 -0.1601 0.2354
vn -0.9762 -0.2158 -0.0217
vn -0.9674 -0.2331 0.0988
vn -0.9525 -0.2895 0.0941
vn -0.9296 0.2854 0.2334
vn -0.9809 -0.1380 -0.1371
vn -0.8725 -0.1636 -0.4604
vn -0.7942 -0.2301 -0.5624
vn -0.7735 -0.1733 -0.6097
vn -0.7041 -0.1989 -0.6817
vn -0.7796 0.0231 -0.6259
vn -0.8625 0.2167 -0.4572
vn -0.8349 0.1498 -0.5296
vn -0.8252 -0.0053 -0.5648
vn -0.7910 -0.1271 -0.5985
vn -0.8454 0.1166 -0.5213
vn -0.8638 0.2633 -0.4295
vn -0.8771 0.3123 -0.3649
vn -0.8829 0.3764 -0.2807
vn -0.8830 0.3805 -0.2747
vn -0.8761 0.4383 -0.2008
vn -0.8628 0.4998 -0.0763
vn -0.8637 0.4828 -0.1446
vn -0.8431 0.5351 0.0529
vn -0.8206 0.5401 0.1867
vn -0.7830 0.5351 0.3170
vn -0.9824 0.1293 0.1345
vn -0.9896 0.1219 0.0760
vn -0.8336 0.5518 0.0255
vn -0.9891 0.1435 0.0325
vn -0.8799 0.3721 0.2954
vn -0.9725 -0.2240 -0.0635
vn -0.9759 -0.2174 0.0209
vn -0.9527 -0.2895 -0.0926
vn -0.9662 -0.2385 -0.0979
vn -0.9507 0.0600 -0.3042
vn -0.9590 -0.1611 -0.2332
vn -0.9189 -0.1562 -0.3622
vn -0.9809 -0.1412 0.1341
vn -0.9339 0.2730 -0.2307
vn -0.8596 0.3962 -0.3228
vn -0.7866 0.4646 -0.4067
vn -0.7677 0.5276 -0.3638
vn -0.7051 0.5820 -0.4052
vn -0.7778 0.6050 -0.1702
vn -0.8626 0.4999 0.0778
vn -0.8293 0.5587 -0.0124
vn -0.8211 0.5391 -0.1874
vn -0.7821 0.5384 -0.3137
vn -0.8458 0.5304 -0.0578
vn -0.8655 0.4792 0.1462
vn -0.8763 0.4355 0.2061
vn -0.8815 0.3797 0.2808
vn -0.8808 0.3822 0.2794
vn -0.8756 0.3192 0.3627
vn -0.8598 0.2184 0.4616
vn -0.8605 0.2644 0.4354
vn -0.8406 0.1159 0.5292
vn -0.8188 -0.0052 0.5741
vn -0.7829 -0.1262 0.6092
vn -0.7661 -0.1766 0.6179
vn -0.7765 0.0215 0.6298
vn -0.8306 0.1474 0.5371
vn -0.7844 -0.2366 0.5734
vn -0.8572 -0.1775 0.4834
vn -0.7030 -0.1993 0.6827
vn -0.9954 0.0095 0.0957
vn -0.9982 0.0249 0.0551
vn -0.9979 0.0479 0.0446
vn -0.9981 0.0579 0.0204
vn -0.9986 0.0472 -0.0253
vn -0.9916 0.1151 0.0589
vn -0.9969 0.0663 0.0417
vn -0.9236 0.2329 0.3045
vn -0.9413 0.2538 0.2224
vn -0.9208 0.2947 0.2554
vn -0.9127 0.2506 0.3228
vn -0.9291 0.2453 0.2769
vn -0.9570 0.2442 0.1562
vn -0.9855 0.1679 0.0232
vn -0.9472 0.3204 0.0088
vn -0.9222 0.3867 0.0074
vn -0.9209 0.3861 -0.0536
vn -0.9201 0.3858 0.0683
vn -0.9585 0.2441 -0.1474
vn -0.9855 0.1689 -0.0150
vn -0.9918 0.1144 -0.0566
vn -0.9982 0.0503 0.0315
vn -0.9319 0.2436 -0.2688
vn -0.9159 0.2498 -0.3140
vn -0.9267 0.2280 -0.2989
vn -0.9251 0.2801 -0.2565
vn -0.9970 0.0656 -0.0412
vn -0.9980 0.0497 -0.0400
vn -0.9983 0.0264 -0.0510
vn -0.9956 0.0104 -0.0936
vn -0.9980 0.0612 -0.0125
vn -0.9929 0.0695 0.0964
vn -0.9852 0.0396 0.1667
vn -0.9979 -0.0404 0.0507
vn -0.9575 0.2136 0.1936
vn -0.9243 0.3489 0.1547
vn -0.9072 0.3935 0.1487
vn -0.9096 0.3765 0.1756
vn -0.9872 0.1590 0.0099
vn -0.8769 0.4161 0.2405
vn -0.9441 0.1367 0.2999
vn -0.9217 0.1543 0.3560
vn -0.9040 0.2659 0.3349
vn -0.9272 0.0407 0.3725
vn -0.9659 0.0153 0.2584
vn -0.9802 0.1243 0.1544
vn -0.9467 -0.1767 0.2694
vn -0.9559 -0.1308 0.2628
vn -0.9354 -0.1600 0.3155
vn -0.9512 -0.1134 0.2870
vn -0.9920 0.0577 0.1126
vn -0.9964 0.0806 0.0263
vn -0.9979 -0.0286 0.0577
vn -0.9957 0.0534 0.0754
vn -0.9850 -0.1675 0.0417
vn -0.9954 -0.0841 0.0458
vn -0.9984 0.0000 0.0564
vn -0.4324 -0.5575 0.7087
vn -0.4643 -0.3486 0.8141
vn -0.4612 -0.3373 0.8207
vn -0.4905 -0.3551 0.7958
vn -0.5532 -0.3425 0.7594
vn -0.5015 -0.4094 0.7622
vn -0.3841 -0.7813 0.4919
vn -0.4112 -0.3370 0.8469
vn -0.6474 -0.2997 0.7008
vn -0.3254 -0.9455 0.0075
vn -0.3856 -0.8055 -0.4501
vn -0.3831 -0.8522 -0.3564
vn -0.2747 -0.9615 0.0112
vn -0.3885 -0.8483 0.3599
vn -0.4640 -0.3371 -0.8192
vn -0.4188 -0.3422 -0.8411
vn -0.4323 -0.5592 -0.7074
vn -0.3775 -0.7303 -0.5694
vn -0.4657 -0.3478 -0.8137
vn -0.4919 -0.3528 -0.7960
vn -0.5543 -0.3425 -0.7586
vn -0.5026 -0.4111 -0.7605
vn -0.6481 -0.3021 -0.6991
vn -0.9780 -0.0982 -0.1838
vn -0.9523 -0.0000 -0.3053
vn -0.9670 0.0216 -0.2537
vn -0.9484 0.3155 -0.0302
vn -0.9589 0.1736 -0.2246
vn -0.9182 0.3003 -0.2584
vn -0.9793 -0.1939 -0.0578
vn -0.9282 0.3139 0.1996
vn -0.8571 0.4303 0.2833
vn -0.7876 0.5265 0.3202
vn -0.7701 0.5037 0.3915
vn -0.7098 0.5582 0.4297
vn -0.7823 0.3385 0.5229
vn -0.8654 0.0651 0.4968
vn -0.8333 0.1697 0.5262
vn -0.8261 0.3346 0.4535
vn -0.7864 0.4576 0.4149
vn -0.8508 0.2054 0.4838
vn -0.8691 -0.0183 0.4942
vn -0.8764 -0.0763 0.4755
vn -0.8793 -0.1835 0.4395
vn -0.8783 -0.1814 0.4423
vn -0.8713 -0.2796 0.4032
vn -0.8566 -0.3823 0.3465
vn -0.8652 -0.3173 0.3882
vn -0.8437 -0.4687 0.2617
vn -0.8162 -0.5540 0.1640
vn -0.7744 -0.6295 0.0633
vn -0.7573 -0.6525 0.0260
vn -0.7694 -0.5987 0.2227
vn -0.8245 -0.4634 0.3246
vn -0.7774 -0.6279 -0.0373
vn -0.8522 -0.5231 -0.0080
vn -0.6922 -0.7213 0.0240
vn -0.4426 -0.8412 -0.3107
vn -0.4783 -0.8745 -0.0808
vn -0.4735 -0.8782 -0.0681
vn -0.5023 -0.8606 -0.0837
vn -0.5569 -0.8265 -0.0815
vn -0.5126 -0.8476 -0.1368
vn -0.3919 -0.6927 -0.6054
vn -0.4223 -0.9043 -0.0633
vn -0.6389 -0.7669 -0.0597
vn -0.3239 -0.2859 -0.9018
vn -0.3866 0.1694 -0.9065
vn -0.3808 0.0527 -0.9231
vn -0.2735 -0.2987 -0.9143
vn -0.3959 -0.5850 -0.7078
vn -0.4608 0.6736 -0.5778
vn -0.4186 0.6943 -0.5854
vn -0.4318 0.4875 -0.7588
vn -0.3768 0.2852 -0.8813
vn -0.4619 0.6658 -0.5860
vn -0.4872 0.6442 -0.5896
vn -0.5497 0.6118 -0.5688
vn -0.4975 0.5927 -0.6335
vn -0.6445 0.5673 -0.5126
vn -0.9505 0.3093 0.0313
vn -0.9200 0.2945 0.2585
vn -0.9590 0.1717 0.2255
vn -0.9769 -0.1054 0.1859
vn -0.9656 0.0212 0.2593
vn -0.9503 -0.0048 0.3112
vn -0.9307 0.3078 -0.1975
vn -0.9775 -0.2033 0.0556
vn -0.8685 -0.4957 0.0052
vn -0.7939 -0.6070 0.0363
vn -0.7679 -0.6399 -0.0276
vn -0.7075 -0.7064 -0.0217
vn -0.7715 -0.5978 -0.2178
vn -0.8533 -0.3928 -0.3430
vn -0.8173 -0.4793 -0.3199
vn -0.8091 -0.5647 -0.1627
vn -0.7686 -0.6357 -0.0713
vn -0.8374 -0.4851 -0.2517
vn -0.8639 -0.3203 -0.3887
vn -0.8700 -0.2829 -0.4038
vn -0.8793 -0.1922 -0.4358
vn -0.8761 -0.2032 -0.4373
vn -0.8789 -0.0776 -0.4706
vn -0.8669 0.0693 -0.4937
vn -0.8701 0.0057 -0.4929
vn -0.8536 0.1939 -0.4836
vn -0.8299 0.3295 -0.4502
vn -0.7896 0.4585 -0.4078
vn -0.7646 0.5096 -0.3947
vn -0.7755 0.3405 -0.5317
vn -0.8369 0.1599 -0.5234
vn -0.7844 0.5310 -0.3207
vn -0.8664 0.4159 -0.2763
vn -0.6891 0.5745 -0.4416
vn -0.9850 0.1255 -0.1185
vn -0.9960 0.0537 -0.0713
vn -0.9983 0.0017 -0.0574
vn -0.9990 -0.0280 -0.0363
vn -0.9981 -0.0621 0.0017
vn -0.9938 -0.0985 -0.0509
vn -0.9973 -0.0626 -0.0379
vn -0.9599 -0.1092 -0.2581
vn -0.9509 -0.1479 -0.2719
vn -0.9604 -0.1181 -0.2522
vn -0.9713 -0.1259 -0.2020
vn -0.9787 -0.1620 -0.1258
vn -0.9887 -0.1472 -0.0288
vn -0.9862 -0.1552 -0.0584
vn -0.9811 -0.1268 -0.1463
vn -0.9903 -0.0414 -0.1325
vn -0.9863 -0.1292 -0.1026
vn -0.9829 -0.1820 -0.0287
vn -0.9816 -0.0753 -0.1757
vn -0.9918 -0.0426 -0.1202
vn -0.9970 -0.0240 -0.0733
vn -0.9674 -0.2178 -0.1293
vn -0.9644 -0.2524 -0.0796
vn -0.9956 -0.0625 -0.0699
vn -0.9980 -0.0612 0.0127
vn -0.9957 -0.0575 0.0730
vn -0.9842 -0.0801 0.1579
vn -0.9985 -0.0506 -0.0186
vn -0.4434 0.8633 -0.2410
vn -0.4672 0.7613 -0.4495
vn -0.4692 0.7550 -0.4581
vn -0.4952 0.7564 -0.4273
vn -0.5536 0.7288 -0.4029
vn -0.5072 0.7801 -0.3663
vn -0.3990 0.9139 0.0744
vn -0.4322 0.7680 -0.4725
vn -0.6386 0.6703 -0.3780
vn -0.4048 0.8870 0.2224
vn -0.3308 0.7679 0.5485
vn -0.2766 0.7847 0.5547
vn -0.3908 0.3970 0.8305
vn -0.3922 0.4825 0.7831
vn -0.4671 -0.2045 0.8602
vn -0.4200 -0.2156 0.8815
vn -0.4369 0.0317 0.8990
vn -0.3840 0.2420 0.8910
vn -0.4701 -0.1921 0.8614
vn -0.4947 -0.1806 0.8501
vn -0.5513 -0.1692 0.8170
vn -0.5047 -0.1197 0.8550
vn -0.6363 -0.1686 0.7528
vn -0.5020 -0.7564 -0.4193
vn -0.5527 -0.8334 0.0013
vn -0.9842 0.1770 0.0009
vn -0.5119 -0.5186 0.6849
vn -0.4663 0.1176 0.8768
vn -0.4339 0.6809 0.5901
vn -0.4258 0.9048 0.0012
vn -0.4029 0.8556 -0.3251
vn -0.4209 0.4382 -0.7942
vn -0.4570 -0.2174 -0.8625
vn -0.4794 -0.8754 -0.0621
vn -0.5367 -0.7866 0.3053
vn -0.9830 0.0846 -0.1631
vn -0.5528 -0.2333 0.8000
vn -0.5054 0.1519 0.8494
vn -0.4365 -0.5925 -0.6771
vn -0.4679 0.8703 0.1537
vn -0.4611 0.7550 0.4662
vn -0.4227 0.8891 -0.1757
vn -0.4250 0.2972 -0.8550
vn -0.4075 0.0001 -0.9132
vn -0.4033 0.5670 -0.7182
vn -0.4503 -0.2951 0.8427
vn -0.4943 0.0388 0.8684
vn -0.9838 -0.1498 -0.0984
vn -0.5344 0.6736 0.5106
vn -0.4923 0.8598 0.1359
vn -0.4118 -0.8399 0.3534
vn -0.4613 0.4246 -0.7790
vn -0.4537 0.6824 -0.5731
vn -0.4187 0.1206 -0.9001
vn -0.4086 -0.7468 -0.5248
vn -0.3883 -0.8838 -0.2611
vn -0.3927 -0.5435 -0.7419
vn -1.0000 -0.0001 0.0010
vn 1.0000 0.0001 -0.0008
vn -0.0008 -0.1771 -0.9842
vn -0.0007 -0.5006 -0.8657
vn 0.0005 -0.7669 0.6417
vn -0.0003 -0.9389 -0.3443
vn -0.0000 -1.0000 0.0000
vn 0.0003 -0.9389 0.3443
vn -0.0005 -0.7669 -0.6417
vn 0.0007 -0.5006 0.8657
vn 0.0008 -0.1771 0.9842
vn -0.0008 0.1771 -0.9842
vn 0.0008 0.1771 0.9842
vn 0.0007 0.4984 0.8670
vn 0.0005 0.7669 0.6417
vn 0.0003 0.9389 0.3443
vn 0.0000 1.0000 -0.0000
vn -0.0003 0.9389 -0.3443
vn -0.0005 0.7669 -0.6417
vn -0.0007 0.4984 -0.8670
vn -0.4965 0.5927 0.6342
vn -0.5508 0.6107 0.5688
vn -0.4886 0.6426 0.5902
vn -0.4648 0.6700 0.5789
vn -0.4682 0.6615 0.5858
vn -0.4364 0.4837 0.7587
vn -0.3857 0.2093 0.8986
vn -0.4228 0.6905 0.5869
vn -0.6493 0.5658 0.5083
vn -0.3842 0.0606 0.9213
vn -0.3272 -0.2759 0.9038
vn -0.2756 -0.2875 0.9173
vn -0.3992 -0.6580 0.6385
vn -0.4015 -0.5724 0.7150
vn -0.4758 -0.8767 0.0703
vn -0.4341 -0.8981 0.0708
vn -0.4485 -0.8339 0.3217
vn -0.3967 -0.7485 0.5314
vn -0.4772 -0.8750 0.0813
vn -0.5018 -0.8608 0.0848
vn -0.5595 -0.8249 0.0811
vn -0.5124 -0.8475 0.1384
vn -0.6463 -0.7610 0.0561
vn -0.2690 0.1688 0.9482
vn -0.3041 0.2146 0.9282
vn -0.3149 0.3531 0.8810
vn -0.2381 0.0204 0.9710
vn -0.2157 -0.0190 0.9763
vn -0.1836 -0.1553 0.9707
vn -0.3434 0.3689 0.8637
vn -0.3483 0.2543 0.9022
vn -0.3453 0.5144 0.7849
vn -0.3191 0.5668 0.7596
vn -0.3293 0.4327 0.8392
vn -0.3375 0.6067 0.7197
vn -0.3296 0.8037 0.4955
vn -0.3474 0.8819 0.3188
vn -0.2851 0.9585 0.0075
vn -0.3699 0.9290 0.0032
vn -0.4087 0.8795 0.2438
vn -0.3146 0.8303 -0.4600
vn -0.3083 0.9211 -0.2376
vn -0.3226 0.5679 -0.7572
vn -0.3026 0.6916 -0.6558
vn -0.3374 0.3437 -0.8763
vn -0.3343 0.4295 -0.8389
vn -0.3113 0.1773 -0.9336
vn -0.3376 0.2550 -0.9061
vn -0.2397 0.0204 -0.9706
vn -0.2705 0.1668 -0.9481
vn -0.2173 -0.0190 -0.9759
vn -0.1852 -0.1552 -0.9704
vn -0.3108 0.3556 -0.8815
vn -0.2808 0.2827 -0.9172
vn -0.3426 0.5184 -0.7835
vn -0.3385 0.4257 -0.8391
vn -0.3426 0.6050 -0.7188
vn -0.2454 -0.9167 -0.3154
vn -0.2788 -0.8448 -0.4567
vn -0.3191 -0.8274 -0.4622
vn -0.2209 -0.9359 -0.2745
vn -0.1848 -0.9746 -0.1263
vn -0.3386 -0.7233 -0.6019
vn -0.3440 -0.7770 -0.5272
vn -0.3176 -0.7258 -0.6102
vn -0.2901 -0.7794 -0.5553
vn -0.3187 -0.5400 -0.7790
vn -0.3304 -0.6634 -0.6714
vn -0.3420 -0.5791 -0.7401
vn -0.3430 -0.6673 -0.6611
vn -0.3095 -0.1708 -0.9354
vn -0.2985 -0.4020 -0.8656
vn -0.3569 0.2702 -0.8942
vn -0.3025 0.0703 -0.9506
vn -0.3363 -0.4827 -0.8086
vn -0.3432 0.5467 -0.7638
vn -0.3949 0.4577 -0.7966
vn -0.3359 0.7038 -0.6260
vn -0.2863 0.2887 -0.9136
vn -0.3287 0.8871 -0.3241
vn -0.3530 0.8992 -0.2584
vn -0.3525 0.8634 -0.3610
vn -0.3156 0.9462 -0.0709
vn -0.3494 0.9326 -0.0904
vn -0.3441 0.9257 -0.1571
vn -0.3503 0.9358 0.0398
vn -0.3051 0.9484 0.0860
vn -0.2690 0.9535 0.1357
vn -0.2359 0.9282 0.2878
vn -0.2119 0.9204 0.3284
vn -0.1767 0.8694 0.4614
vn -0.9487 -0.0194 -0.3155
vn -0.9782 -0.0176 -0.2068
vn -0.9868 -0.0074 -0.1620
vn -0.9204 -0.0253 -0.3901
vn -0.8534 -0.0222 -0.5208
vn -0.3449 -0.5776 0.7399
vn -0.3388 -0.4829 0.8075
vn -0.3256 -0.2083 0.9223
vn -0.3092 -0.7268 0.6134
vn -0.3427 -0.7041 0.6220
vn -0.3422 -0.0248 0.9393
vn -0.2788 0.2894 0.9157
vn -0.3183 -0.5331 0.7839
vn -0.3299 -0.6592 0.6758
vn -0.3699 0.2656 0.8903
vn -0.4065 0.0315 0.9131
vn -0.3476 -0.7800 0.5204
vn -0.2978 -0.8169 0.4939
vn -0.3215 0.6781 0.6610
vn -0.3124 0.4847 0.8170
vn -0.3260 0.8912 0.3152
vn -0.3107 0.8295 0.4641
vn -0.3433 0.9373 0.0597
vn -0.3329 0.9296 0.1581
vn -0.3175 0.9403 -0.1227
vn -0.3503 0.9358 -0.0392
vn -0.2314 -0.9203 0.3156
vn -0.2096 -0.9386 0.2740
vn -0.1740 -0.9763 0.1285
vn -0.2618 -0.8496 0.4578
vn -0.2411 0.9302 -0.2767
vn -0.2699 0.9533 -0.1356
vn -0.2197 0.9243 -0.3121
vn -0.1910 0.8823 -0.4301
vn -0.3155 0.9466 0.0671
vn -0.2793 0.9601 -0.0111
vn -0.3484 0.8980 0.2687
vn -0.3493 0.9258 0.1447
vn -0.3418 0.8558 0.3883
vn -0.9503 -0.0184 0.3108
vn -0.9263 -0.0227 0.3760
vn -0.9767 -0.0177 0.2141
vn -0.9841 -0.0094 0.1771
vn -0.9466 0.3082 -0.0947
vn -0.9744 0.2161 -0.0621
vn -0.9840 0.1743 -0.0368
vn -0.9196 0.3731 -0.1230
vn -0.8617 0.4826 -0.1568
vn -0.9512 -0.3021 0.0631
vn -0.9282 -0.3635 0.0796
vn -0.8691 -0.4794 0.1220
vn -0.9774 -0.2087 0.0326
vn -0.9839 -0.1764 0.0295
vn -0.9495 -0.3075 -0.0623
vn -0.9789 -0.2023 -0.0291
vn -0.9864 -0.1622 -0.0255
vn -0.9222 -0.3783 -0.0804
vn -0.8535 -0.5056 -0.1262
vn -0.9926 -0.1143 0.0416
vn -0.9971 -0.0761 -0.0014
vn -0.9675 -0.1284 0.2177
vn -0.9548 -0.1234 0.2704
vn -0.9598 -0.0998 0.2624
vn -0.9956 -0.0900 0.0275
vn -0.9985 -0.0063 0.0552
vn -0.9960 0.0532 0.0721
vn -0.9848 0.1258 0.1194
vn -0.9989 -0.0304 0.0366
vn -0.9446 0.3133 0.0981
vn -0.9160 0.3803 0.1277
vn -0.8563 0.4904 0.1618
vn -0.9735 0.2195 0.0646
vn -0.9839 0.1747 0.0377
vn -0.9574 -0.1630 0.2384
vn -0.9858 -0.0962 0.1380
vn -0.9960 -0.0639 0.0624
vn -0.9225 -0.2104 0.3236
vn -0.8567 -0.2886 0.4276
vn -0.2680 0.4162 -0.8689
vn -0.3052 0.3675 -0.8785
vn -0.3174 0.2246 -0.9213
vn -0.2382 0.5589 -0.7943
vn -0.2174 0.5986 -0.7710
vn -0.1814 0.7149 -0.6752
vn -0.3547 0.2036 -0.9125
vn -0.3590 0.3219 -0.8761
vn -0.3564 0.0407 -0.9335
vn -0.3311 -0.0195 -0.9434
vn -0.3439 0.1385 -0.9287
vn -0.3513 -0.0671 -0.9339
vn -0.3412 -0.3645 -0.8665
vn -0.3518 -0.5463 -0.7602
vn -0.2940 -0.7763 -0.5577
vn -0.3637 -0.7677 -0.5276
vn -0.4027 -0.6095 -0.6829
vn -0.3104 -0.9422 -0.1260
vn -0.3064 -0.8870 -0.3456
vn -0.3202 -0.9100 0.2635
vn -0.2984 -0.9492 0.1001
vn -0.3433 -0.7956 0.4991
vn -0.3328 -0.8446 0.4194
vn -0.3183 -0.6961 0.6435
vn -0.3508 -0.7396 0.5744
vn -0.2410 -0.5772 0.7802
vn -0.2730 -0.6979 0.6621
vn -0.2184 -0.5391 0.8134
vn -0.1789 -0.3989 0.8994
vn -0.3156 -0.8071 0.4990
vn -0.2807 -0.7745 0.5669
vn -0.3474 -0.8808 0.3217
vn -0.3483 -0.8341 0.4276
vn -0.3418 -0.9157 0.2115
vn -0.9985 0.0466 0.0280
vn -0.9987 0.0507 -0.0006
vn -0.9960 0.0850 -0.0280
vn -0.9987 0.0272 0.0442
vn -0.9976 0.0467 0.0517
vn -0.9538 0.1690 -0.2484
vn -0.9164 0.2392 -0.3208
vn -0.8552 0.3077 -0.4172
vn -0.9827 0.0957 -0.1583
vn -0.9951 0.0241 -0.0964
vn -0.9567 0.1611 0.2423
vn -0.9817 0.0977 0.1635
vn -0.9938 0.0323 0.1060
vn -0.9249 0.2237 0.3075
vn -0.8759 0.2820 0.3914
vn -0.2621 -0.6963 -0.6682
vn -0.2740 -0.7099 -0.6488
vn -0.3035 -0.8083 -0.5045
vn -0.2303 -0.5841 -0.7783
vn -0.2067 -0.5490 -0.8098
vn -0.1700 -0.4161 -0.8933
vn -0.3198 -0.9068 -0.2746
vn -0.3394 -0.8817 -0.3277
vn -0.3420 -0.9109 -0.2308
vn -0.3277 -0.9418 0.0746
vn -0.3393 -0.9001 0.2732
vn -0.2776 -0.7800 0.5608
vn -0.3580 -0.7561 0.5479
vn -0.3965 -0.8516 0.3428
vn -0.3076 -0.4141 0.8567
vn -0.3006 -0.6208 0.7241
vn -0.3171 -0.0225 0.9481
vn -0.2961 -0.1825 0.9376
vn -0.3394 0.2322 0.9115
vn -0.3299 0.1380 0.9339
vn -0.3121 0.4034 0.8602
vn -0.3457 0.3241 0.8806
vn -0.2370 0.5529 0.7988
vn -0.2656 0.4199 0.8678
vn -0.2166 0.5882 0.7792
vn -0.1853 0.6948 0.6949
vn -0.3098 0.2271 0.9233
vn -0.2740 0.3050 0.9121
vn -0.3434 0.0401 0.9383
vn -0.3433 0.1476 0.9276
vn -0.3396 -0.0678 0.9381
vn -0.9602 -0.1600 -0.2290
vn -0.9290 -0.2049 -0.3082
vn -0.8703 -0.2796 -0.4055
vn -0.9860 -0.0968 -0.1359
vn -0.9956 -0.0664 -0.0657
vn -0.9879 0.0943 -0.1234
vn -0.9911 0.0847 -0.1026
vn -0.9922 0.0835 -0.0930
vn -0.9933 0.0814 -0.0822
vn -0.9920 0.0881 -0.0910
vn -0.9945 0.0845 -0.0622
vn -0.9879 -0.1123 -0.1070
vn -0.9915 -0.1035 -0.0788
vn -0.9922 -0.0876 -0.0892
vn -0.9939 -0.0854 -0.0704
vn -0.9931 -0.1058 -0.0506
vn -0.9950 -0.0580 -0.0819
vn -0.9921 0.0857 0.0916
vn -0.9920 0.0870 0.0919
vn -0.9918 0.0880 0.0926
vn -0.9918 0.0859 0.0942
vn -0.9916 -0.0861 0.0965
vn -0.9929 -0.0869 0.0808
vn -0.9931 -0.0785 0.0876
vn -0.9941 -0.0769 0.0769
vn -0.9946 -0.0814 0.0646
vn -0.9948 -0.0560 0.0849
vn -0.9947 0.1014 0.0144
vn -0.9931 0.1012 -0.0590
vn -0.9931 0.1019 -0.0579
vn -0.9910 0.1010 0.0878
vn -0.9910 0.1017 0.0867
vn -0.8114 -0.5840 0.0220
vn -0.5610 0.8278 0.0063
vn 0.0852 0.7371 0.6704
vn -0.4409 -0.0636 0.8953
vn 0.5288 0.8239 -0.2038
vn 0.5309 0.8267 0.1866
vn -0.4463 -0.0601 -0.8929
vn -0.5963 0.7327 0.3280
vn -0.5995 0.7179 0.3538
vn -0.5942 0.6958 0.4035
vn -0.6042 0.7717 0.1988
vn -0.9818 0.1131 -0.1528
vn -0.9812 0.1268 -0.1458
# 830 vertex normals

vt 0.2050 0.3402 0.0000
vt 0.2141 0.3417 0.0000
vt 0.1994 0.3708 0.0000
vt 0.2082 0.3745 0.0000
vt 0.1981 0.4217 0.0000
vt 0.1878 0.4193 0.0000
vt 0.1905 0.4724 0.0000
vt 0.1757 0.4638 0.0000
vt 0.1989 0.3226 0.0000
vt 0.1802 0.3221 0.0000
vt 0.1819 0.3136 0.0000
vt 0.1949 0.3278 0.0000
vt 0.2124 0.3361 0.0000
vt 0.1760 0.3138 0.0000
vt 0.1528 0.3368 0.0000
vt 0.1464 0.3295 0.0000
vt 0.1046 0.3537 0.0000
vt 0.1103 0.3630 0.0000
vt 0.0588 0.3767 0.0000
vt 0.0716 0.3879 0.0000
vt 0.1740 0.6679 0.0000
vt 0.1112 0.7217 0.0000
vt 0.1796 0.6842 0.0000
vt 0.1259 0.7304 0.0000
vt 0.2558 0.6679 0.0000
vt 0.2501 0.6842 0.0000
vt 0.3185 0.7217 0.0000
vt 0.3039 0.7304 0.0000
vt 0.0970 0.8045 0.0000
vt 0.1379 0.8771 0.0000
vt 0.1137 0.8013 0.0000
vt 0.1488 0.8638 0.0000
vt 0.2149 0.9057 0.0000
vt 0.2149 0.8884 0.0000
vt 0.2919 0.8771 0.0000
vt 0.2810 0.8638 0.0000
vt 0.2030 0.4679 0.0000
vt 0.2085 0.4785 0.0000
vt 0.2018 0.4606 0.0000
vt 0.3133 0.4724 0.0000
vt 0.2953 0.4785 0.0000
vt 0.3007 0.4679 0.0000
vt 0.3020 0.4606 0.0000
vt 0.1848 0.2116 0.0000
vt 0.1991 0.2106 0.0000
vt 0.1932 0.2284 0.0000
vt 0.1752 0.2226 0.0000
vt 0.1765 0.2370 0.0000
vt 0.1875 0.2465 0.0000
vt 0.2018 0.2453 0.0000
vt 0.2114 0.2343 0.0000
vt 0.2102 0.2199 0.0000
vt 0.1966 0.3013 0.0000
vt 0.2001 0.2874 0.0000
vt 0.2154 0.2984 0.0000
vt 0.2043 0.3138 0.0000
vt 0.2183 0.3172 0.0000
vt 0.2306 0.3097 0.0000
vt 0.2341 0.2955 0.0000
vt 0.2264 0.2832 0.0000
vt 0.2124 0.2798 0.0000
vt 0.2520 0.2495 0.0000
vt 0.1937 0.2683 0.0000
vt 0.2520 0.3109 0.0000
vt 0.2690 0.2960 0.0000
vt 0.2766 0.2837 0.0000
vt 0.2906 0.2803 0.0000
vt 0.2587 0.3123 0.0000
vt 0.2454 0.3123 0.0000
vt 0.3138 0.2627 0.0000
vt 0.3103 0.2686 0.0000
vt 0.3000 0.2456 0.0000
vt 0.2904 0.2346 0.0000
vt 0.2916 0.2201 0.0000
vt 0.3418 0.2500 0.0000
vt 0.3465 0.2387 0.0000
vt 0.3514 0.2421 0.0000
vt 0.3253 0.2373 0.0000
vt 0.3226 0.2558 0.0000
vt 0.3143 0.2468 0.0000
vt 0.3266 0.2228 0.0000
vt 0.3381 0.2216 0.0000
vt 0.3349 0.2028 0.0000
vt 0.3847 0.2495 0.0000
vt 0.3170 0.2118 0.0000
vt 0.4324 0.2517 0.0000
vt 0.4322 0.2551 0.0000
vt 0.3844 0.2468 0.0000
vt 0.2653 0.2003 0.0000
vt 0.2943 0.2025 0.0000
vt 0.3027 0.2108 0.0000
vt 0.3057 0.2030 0.0000
vt 0.3244 0.1964 0.0000
vt 0.3369 0.1971 0.0000
vt 0.2882 0.1998 0.0000
vt 0.3593 0.1717 0.0000
vt 0.3948 0.1391 0.0000
vt 0.3970 0.1418 0.0000
vt 0.3608 0.1741 0.0000
vt 0.2360 0.3187 0.0000
vt 0.2427 0.3393 0.0000
vt 0.2247 0.3351 0.0000
vt 0.2331 0.3478 0.0000
vt 0.2109 0.3755 0.0000
vt 0.2055 0.4234 0.0000
vt 0.2016 0.4224 0.0000
vt 0.2173 0.3779 0.0000
vt 0.2520 0.3371 0.0000
vt 0.2611 0.3393 0.0000
vt 0.2678 0.3187 0.0000
vt 0.2707 0.3478 0.0000
vt 0.2793 0.3351 0.0000
vt 0.2929 0.3755 0.0000
vt 0.3025 0.4224 0.0000
vt 0.2983 0.4234 0.0000
vt 0.2865 0.3779 0.0000
vt 0.3328 0.8045 0.0000
vt 0.3160 0.8013 0.0000
vt 0.0418 0.0185 0.0000
vt 0.4329 0.1054 0.0000
vt 0.4201 0.1015 0.0000
vt 0.4218 0.0897 0.0000
vt 0.3335 0.0330 0.0000
vt 0.3517 0.0388 0.0000
vt 0.3411 0.0440 0.0000
vt 0.4167 0.1081 0.0000
vt 0.3357 0.0494 0.0000
vt 0.3130 0.0799 0.0000
vt 0.3167 0.0817 0.0000
vt 0.2931 0.1235 0.0000
vt 0.2998 0.1254 0.0000
vt 0.2946 0.1590 0.0000
vt 0.2975 0.1714 0.0000
vt 0.2803 0.1643 0.0000
vt 0.2798 0.1842 0.0000
vt 0.2835 0.1947 0.0000
vt 0.3037 0.1785 0.0000
vt 0.3123 0.1824 0.0000
vt 0.3251 0.1810 0.0000
vt 0.3918 0.1362 0.0000
vt 0.3537 0.1629 0.0000
vt 0.1708 0.0330 0.0000
vt 0.1632 0.0440 0.0000
vt 0.1526 0.0386 0.0000
vt 0.0714 0.1051 0.0000
vt 0.0822 0.0897 0.0000
vt 0.0842 0.1012 0.0000
vt 0.1683 0.0491 0.0000
vt 0.0874 0.1081 0.0000
vt 0.1095 0.1391 0.0000
vt 0.1122 0.1362 0.0000
vt 0.1447 0.1717 0.0000
vt 0.1487 0.1658 0.0000
vt 0.1789 0.1810 0.0000
vt 0.1920 0.1822 0.0000
vt 0.1797 0.1964 0.0000
vt 0.1986 0.2028 0.0000
vt 0.2097 0.2025 0.0000
vt 0.2006 0.1785 0.0000
vt 0.2161 0.1998 0.0000
vt 0.2205 0.1947 0.0000
vt 0.2067 0.1714 0.0000
vt 0.2242 0.1842 0.0000
vt 0.2240 0.1641 0.0000
vt 0.2094 0.1587 0.0000
vt 0.2112 0.1235 0.0000
vt 0.1875 0.0817 0.0000
vt 0.1912 0.0799 0.0000
vt 0.2045 0.1252 0.0000
vt 0.1942 0.0785 0.0000
vt 0.2139 0.1228 0.0000
vt 0.2284 0.1526 0.0000
vt 0.2387 0.2003 0.0000
vt 0.2331 0.1869 0.0000
vt 0.2387 0.1736 0.0000
vt 0.2331 0.1563 0.0000
vt 0.2520 0.1680 0.0000
vt 0.2520 0.1590 0.0000
vt 0.2710 0.1565 0.0000
vt 0.2653 0.1736 0.0000
vt 0.2756 0.1526 0.0000
vt 0.2707 0.1869 0.0000
vt 0.3098 0.0787 0.0000
vt 0.2904 0.1228 0.0000
vt 0.1693 0.2028 0.0000
vt 0.1671 0.1971 0.0000
vt 0.2520 0.2059 0.0000
vt 0.1659 0.2216 0.0000
vt 0.1575 0.2387 0.0000
vt 0.1902 0.2624 0.0000
vt 0.1811 0.2556 0.0000
vt 0.1622 0.2500 0.0000
vt 0.1526 0.2419 0.0000
vt 0.1194 0.2495 0.0000
vt 0.0719 0.2549 0.0000
vt 0.0714 0.2514 0.0000
vt 0.1196 0.2465 0.0000
vt 0.2232 0.1203 0.0000
vt 0.2043 0.0743 0.0000
vt 0.2368 0.1484 0.0000
vt 0.1878 0.0315 0.0000
vt 0.2673 0.1484 0.0000
vt 0.2520 0.1526 0.0000
vt 0.2810 0.1206 0.0000
vt 0.3000 0.0746 0.0000
vt 0.3165 0.0315 0.0000
vt 0.0209 0.2597 0.0000
vt 0.0290 0.2705 0.0000
vt 0.0207 0.2788 0.0000
vt 0.0475 0.3615 0.0000
vt 0.0591 0.3635 0.0000
vt 0.0357 0.2671 0.0000
vt 0.0665 0.3623 0.0000
vt 0.1029 0.3508 0.0000
vt 0.1009 0.3473 0.0000
vt 0.1447 0.3273 0.0000
vt 0.1405 0.3219 0.0000
vt 0.1642 0.2977 0.0000
vt 0.1693 0.2859 0.0000
vt 0.1792 0.3018 0.0000
vt 0.1910 0.2859 0.0000
vt 0.1942 0.2752 0.0000
vt 0.1686 0.2764 0.0000
vt 0.1637 0.2683 0.0000
vt 0.1526 0.2619 0.0000
vt 0.0724 0.2590 0.0000
vt 0.1191 0.2563 0.0000
vt 0.1201 0.2370 0.0000
vt 0.0706 0.2407 0.0000
vt 0.1511 0.2326 0.0000
vt 0.0246 0.2431 0.0000
vt 0.1607 0.2037 0.0000
vt 0.1597 0.2194 0.0000
vt 0.1381 0.1822 0.0000
vt 0.1432 0.1739 0.0000
vt 0.1073 0.1416 0.0000
vt 0.1002 0.1499 0.0000
vt 0.0645 0.1208 0.0000
vt 0.4452 0.3769 0.0000
vt 0.4447 0.3635 0.0000
vt 0.4565 0.3615 0.0000
vt 0.4831 0.2600 0.0000
vt 0.4834 0.2791 0.0000
vt 0.4750 0.2708 0.0000
vt 0.4376 0.3625 0.0000
vt 0.4683 0.2673 0.0000
vt 0.4317 0.2593 0.0000
vt 0.3849 0.2566 0.0000
vt 0.3514 0.2619 0.0000
vt 0.3401 0.2686 0.0000
vt 0.3354 0.2766 0.0000
vt 0.3096 0.2754 0.0000
vt 0.3345 0.2859 0.0000
vt 0.3128 0.2862 0.0000
vt 0.3249 0.3021 0.0000
vt 0.3399 0.2979 0.0000
vt 0.3593 0.3275 0.0000
vt 0.4031 0.3473 0.0000
vt 0.4012 0.3510 0.0000
vt 0.3635 0.3221 0.0000
vt 0.3992 0.3539 0.0000
vt 0.3573 0.3297 0.0000
vt 0.3281 0.3141 0.0000
vt 0.3032 0.2879 0.0000
vt 0.3064 0.3018 0.0000
vt 0.3221 0.3138 0.0000
vt 0.2990 0.3143 0.0000
vt 0.2847 0.3177 0.0000
vt 0.2914 0.3361 0.0000
vt 0.3052 0.3226 0.0000
vt 0.2897 0.3417 0.0000
vt 0.2724 0.3101 0.0000
vt 0.3057 0.4217 0.0000
vt 0.2956 0.3745 0.0000
vt 0.3512 0.3371 0.0000
vt 0.3935 0.3632 0.0000
vt 0.3236 0.3224 0.0000
vt 0.4322 0.3882 0.0000
vt 0.3089 0.3280 0.0000
vt 0.2990 0.3402 0.0000
vt 0.3044 0.3708 0.0000
vt 0.3162 0.4193 0.0000
vt 0.3281 0.4638 0.0000
vt 0.2520 0.1869 0.0000
vt 0.3086 0.2287 0.0000
vt 0.2877 0.2989 0.0000
vt 0.0175 0.7032 0.0000
vt 0.2170 0.7859 0.0000
vt 0.0643 0.6332 0.0000
vt 0.1343 0.5864 0.0000
vt 0.2170 0.5699 0.0000
vt 0.2996 0.5864 0.0000
vt 0.3697 0.6332 0.0000
vt 0.4165 0.7032 0.0000
vt 0.4330 0.7859 0.0000
vt 0.4165 0.8685 0.0000
vt 0.3697 0.9386 0.0000
vt 0.2996 0.9854 0.0000
vt 0.2170 0.9982 0.0000
vt 0.1343 0.9854 0.0000
vt 0.0643 0.9386 0.0000
vt 0.0175 0.8685 0.0000
vt 0.0010 0.7859 0.0000
vt 0.1880 0.7390 0.0000
vt 0.1880 0.8288 0.0000
vt 0.2417 0.7390 0.0000
vt 0.2417 0.8288 0.0000
vt 0.4039 0.1499 0.0000
vt 0.3660 0.1822 0.0000
vt 0.3436 0.2037 0.0000
vt 0.4395 0.1210 0.0000
vt 0.3443 0.2196 0.0000
vt 0.3529 0.2328 0.0000
vt 0.3837 0.2370 0.0000
vt 0.4334 0.2409 0.0000
vt 0.4794 0.2434 0.0000
vt 0.2107 0.4242 0.0000
vt 0.2242 0.3804 0.0000
vt 0.2060 0.4557 0.0000
vt 0.2392 0.3532 0.0000
vt 0.2461 0.3461 0.0000
vt 0.2520 0.3451 0.0000
vt 0.2577 0.3461 0.0000
vt 0.2646 0.3532 0.0000
vt 0.2798 0.3804 0.0000
vt 0.2931 0.4242 0.0000
vt 0.2929 0.4677 0.0000
vt 0.0984 0.3424 0.0000
vt 0.0571 0.3559 0.0000
vt 0.1361 0.3163 0.0000
vt 0.1573 0.2935 0.0000
vt 0.1617 0.2847 0.0000
vt 0.1612 0.2788 0.0000
vt 0.1583 0.2737 0.0000
vt 0.1494 0.2693 0.0000
vt 0.1189 0.2634 0.0000
vt 0.0731 0.2641 0.0000
vt 0.0416 0.2695 0.0000
vt 0.3468 0.2938 0.0000
vt 0.3421 0.2849 0.0000
vt 0.3679 0.3165 0.0000
vt 0.3428 0.2791 0.0000
vt 0.3458 0.2739 0.0000
vt 0.3546 0.2695 0.0000
vt 0.3852 0.2637 0.0000
vt 0.4339 0.3569 0.0000
vt 0.4053 0.3427 0.0000
vt 0.4309 0.2644 0.0000
vt 0.4723 0.2781 0.0000
vt 0.1826 0.0841 0.0000
vt 0.1976 0.1272 0.0000
vt 0.1679 0.0557 0.0000
vt 0.2013 0.1580 0.0000
vt 0.1998 0.1678 0.0000
vt 0.1959 0.1722 0.0000
vt 0.1905 0.1746 0.0000
vt 0.1809 0.1732 0.0000
vt 0.1526 0.1599 0.0000
vt 0.1162 0.1323 0.0000
vt 0.0906 0.0971 0.0000
vt 0.3881 0.1325 0.0000
vt 0.4105 0.1098 0.0000
vt 0.3234 0.1732 0.0000
vt 0.3135 0.1746 0.0000
vt 0.3084 0.1722 0.0000
vt 0.3042 0.1680 0.0000
vt 0.3027 0.1582 0.0000
vt 0.3066 0.1274 0.0000
vt 0.3214 0.0841 0.0000
vt 0.3473 0.0489 0.0000
vt 0.4762 0.3224 0.0000
vt 0.4617 0.2712 0.0000
vt 0.4617 0.2277 0.0000
vt 0.4526 0.3143 0.0000
vt 0.4346 0.3542 0.0000
vt 0.4533 0.4851 0.0000
vt 0.4506 0.4631 0.0000
vt 0.4738 0.4936 0.0000
vt 0.4888 0.4584 0.0000
vt 0.4683 0.4496 0.0000
vt 0.4915 0.4804 0.0000
vt 0.4523 0.4577 0.0000
vt 0.4725 0.4484 0.0000
vt 0.4504 0.4799 0.0000
vt 0.4888 0.4834 0.0000
vt 0.4907 0.4611 0.0000
vt 0.4686 0.4927 0.0000
vt 0.4747 0.4491 0.0000
vt 0.4925 0.4626 0.0000
vt 0.4541 0.4577 0.0000
vt 0.4895 0.4846 0.0000
vt 0.4516 0.4618 0.0000
vt 0.4698 0.4489 0.0000
vt 0.4536 0.4839 0.0000
vt 0.4902 0.4584 0.0000
vt 0.4720 0.4924 0.0000
vt 0.4528 0.4591 0.0000
vt 0.4531 0.4814 0.0000
vt 0.0669 0.0029 0.0000
vt 0.0537 0.0220 0.0000
vt 0.0406 0.0029 0.0000
vt 0.0751 0.0291 0.0000
vt 0.0537 0.0452 0.0000
vt 0.0325 0.0291 0.0000
vt 0.1455 0.0415 0.0000
vt 0.1511 0.0528 0.0000
vt 0.1044 0.0682 0.0000
vt 0.1944 0.0361 0.0000
vt 0.4373 0.0836 0.0000
vt 0.4536 0.1039 0.0000
vt 0.4179 0.0846 0.0000
# 411 texture coords

o part_028
g part_028
usemtl 02___Default
s 1
f 1/1/1 2/2/2 3/3/3 
f 2/2/4 4/4/5 3/3/3 
f 5/5/6 3/3/3 4/4/5 
f 3/3/3 5/5/6 6/6/7 
f 7/7/8 6/6/7 5/5/6 
f 8/8/9 6/6/7 7/7/9 
f 9/9/10 10/10/11 11/11/12 
f 10/10/11 9/9/10 12/12/13 
f 12/12/13 9/9/10 1/1/1 
f 13/13/14 1/1/1 9/9/10 
f 1/1/1 13/13/14 2/2/4 
f 14/14/15 11/11/12 10/10/16 
f 10/10/11 15/15/17 14/14/18 
f 15/15/17 16/16/19 14/14/15 
f 16/16/19 15/15/17 17/17/20 
f 18/18/21 17/17/20 15/15/17 
f 17/17/20 18/18/21 19/19/22 
f 20/20/23 19/19/23 18/18/21 
f 21/21/24 22/22/24 23/23/24 
f 24/24/25 23/23/24 22/22/24 
f 25/25/26 21/21/26 26/26/26 
f 23/23/26 26/26/26 21/21/26 
f 27/27/27 25/25/28 28/28/28 
f 26/26/29 28/28/28 25/25/28 
f 29/29/30 30/30/31 31/31/32 
f 32/32/33 31/31/32 30/30/31 
f 31/31/32 24/24/34 29/29/34 
f 22/22/35 29/29/30 24/24/35 
f 30/30/36 33/33/37 32/32/37 
f 34/34/38 32/32/37 33/33/37 
f 33/33/39 35/35/40 34/34/40 
f 36/36/41 34/34/40 35/35/40 
f 7/7/42 37/37/43 38/38/44 
f 39/39/45 37/37/45 7/7/42 
f 40/40/46 41/41/47 42/42/48 
f 40/40/46 42/42/49 43/43/49 
f 44/44/50 45/45/50 46/46/51 
f 46/46/51 47/47/52 44/44/53 
f 47/47/52 46/46/51 48/48/54 
f 48/48/54 46/46/51 49/49/55 
f 49/49/55 46/46/51 50/50/56 
f 50/50/56 46/46/51 51/51/57 
f 51/51/57 46/46/51 52/52/58 
f 45/45/59 52/52/58 46/46/51 
f 53/53/60 54/54/60 55/55/61 
f 55/55/61 56/56/62 53/53/63 
f 56/56/62 55/55/61 57/57/64 
f 57/57/64 55/55/61 58/58/65 
f 58/58/65 55/55/61 59/59/66 
f 59/59/66 55/55/61 60/60/67 
f 60/60/67 55/55/61 61/61/68 
f 54/54/69 61/61/68 55/55/61 
f 60/60/70 61/61/71 62/62/72 
f 52/52/73 62/62/72 51/51/74 
f 51/51/74 62/62/72 50/50/75 
f 61/61/71 50/50/75 62/62/72 
f 50/50/75 61/61/71 63/63/76 
f 60/60/70 62/62/77 59/59/78 
f 59/59/78 62/62/72 64/64/79 
f 65/65/80 64/64/79 62/62/72 
f 65/65/80 62/62/72 66/66/81 
f 67/67/82 66/66/81 62/62/72 
f 64/64/79 65/65/83 68/68/80 
f 64/64/79 69/69/84 59/59/85 
f 67/67/86 70/70/87 71/71/88 
f 70/70/87 67/67/86 72/72/89 
f 62/62/72 72/72/89 67/67/86 
f 72/72/89 62/62/72 73/73/90 
f 73/73/90 62/62/72 74/74/91 
f 75/75/92 76/76/93 77/77/94 
f 76/76/93 75/75/92 78/78/95 
f 79/79/96 78/78/95 75/75/92 
f 78/78/95 79/79/96 80/80/97 
f 70/70/87 80/80/97 79/79/96 
f 80/80/97 70/70/87 72/72/89 
f 78/78/95 81/81/98 76/76/93 
f 82/82/99 81/81/98 83/83/100 
f 75/75/92 77/77/101 84/84/102 
f 85/85/103 83/83/104 81/81/98 
f 84/84/102 86/86/105 87/87/106 
f 86/86/105 84/84/102 88/88/107 
f 77/77/94 88/88/107 84/84/102 
f 82/82/99 76/76/93 81/81/108 
f 62/62/72 89/89/109 74/74/110 
f 90/90/111 74/74/110 89/89/109 
f 74/74/110 90/90/111 91/91/112 
f 92/92/113 91/91/112 90/90/111 
f 91/91/112 92/92/113 85/85/103 
f 93/93/114 85/85/103 92/92/113 
f 85/85/103 93/93/114 83/83/104 
f 94/94/115 83/83/104 93/93/114 
f 95/95/116 90/90/111 89/89/109 
f 93/93/114 96/96/117 94/94/118 
f 97/97/119 98/98/120 96/96/117 
f 99/99/121 96/96/117 98/98/120 
f 96/96/117 99/99/121 94/94/115 
f 100/100/122 101/101/123 102/102/124 
f 102/102/124 103/103/125 104/104/126 
f 103/103/127 102/102/128 101/101/123 
f 104/104/126 105/105/129 106/106/130 
f 105/105/129 104/104/126 107/107/131 
f 103/103/127 107/107/131 104/104/126 
f 69/69/132 101/101/123 100/100/133 
f 101/101/123 69/69/132 108/108/134 
f 64/64/135 108/108/134 69/69/132 
f 68/68/136 108/108/134 64/64/135 
f 108/108/134 68/68/136 109/109/137 
f 110/110/138 109/109/137 68/68/136 
f 111/111/139 109/109/137 112/112/140 
f 110/110/141 112/112/142 109/109/137 
f 112/112/142 113/113/143 111/111/144 
f 114/114/145 115/115/146 113/113/143 
f 116/116/147 113/113/143 115/115/146 
f 113/113/143 116/116/147 111/111/139 
f 57/57/148 13/13/149 56/56/150 
f 53/53/151 56/56/150 11/11/152 
f 9/9/153 56/56/150 13/13/154 
f 56/56/150 9/9/153 11/11/155 
f 59/59/78 69/69/84 58/58/156 
f 100/100/157 58/58/156 69/69/84 
f 58/58/156 100/100/157 57/57/148 
f 102/102/158 57/57/148 100/100/157 
f 57/57/148 102/102/158 13/13/149 
f 2/2/159 13/13/149 102/102/158 
f 102/102/158 104/104/160 2/2/161 
f 106/106/162 5/5/163 104/104/160 
f 4/4/164 104/104/160 5/5/163 
f 104/104/160 4/4/164 2/2/159 
f 117/117/165 36/36/166 35/35/167 
f 36/36/166 117/117/165 118/118/168 
f 27/27/169 118/118/168 117/117/165 
f 118/118/168 27/27/169 28/28/170 
f 31/31/171 118/118/171 24/24/172 
f 28/28/171 24/24/172 118/118/171 
f 24/24/172 28/28/171 23/23/173 
f 26/26/174 23/23/173 28/28/171 
f 36/36/175 118/118/171 31/31/172 
f 32/32/176 36/36/175 31/31/171 
f 36/36/175 32/32/176 34/34/177 
f 119/119/178 120/119/179 121/119/180 
f 122/119/181 121/119/180 120/119/179 
f 121/119/180 122/119/181 123/119/182 
f 124/119/183 123/119/182 122/119/181 
f 123/119/182 124/119/183 125/119/184 
f 126/119/185 125/119/184 124/119/183 
f 123/119/182 127/119/186 121/119/180 
f 122/119/181 126/119/187 124/119/183 
f 120/119/179 128/119/188 122/119/181 
f 126/119/185 122/119/181 128/119/189 
f 128/119/189 120/119/179 119/119/190 
f 119/119/190 121/119/180 127/119/191 
f 127/119/191 123/119/182 125/119/192 
f 129/120/193 130/121/194 131/122/195 
f 132/123/196 133/124/197 134/125/198 
f 135/126/199 130/121/199 129/120/193 
f 132/123/196 134/125/200 136/127/200 
f 137/128/201 138/129/202 139/130/203 
f 140/131/204 139/130/203 138/129/202 
f 139/130/203 140/131/204 141/132/205 
f 141/132/205 142/133/206 143/134/207 
f 143/134/208 139/130/203 141/132/209 
f 144/135/210 143/134/208 142/133/206 
f 144/135/211 142/133/206 145/136/212 
f 146/137/213 145/136/212 142/133/206 
f 145/136/212 146/137/213 95/95/214 
f 95/95/214 146/137/213 90/90/215 
f 147/138/216 90/90/215 146/137/213 
f 90/90/215 147/138/216 92/92/217 
f 92/92/218 147/138/216 93/93/219 
f 93/93/219 148/139/220 96/96/221 
f 148/139/222 93/93/223 147/138/216 
f 96/96/221 149/140/224 97/97/225 
f 149/140/224 96/96/221 150/141/226 
f 148/139/222 150/141/226 96/96/221 
f 151/142/227 152/143/228 153/144/229 
f 154/145/230 155/146/231 156/147/232 
f 157/148/233 152/143/233 151/142/227 
f 154/145/230 156/147/234 158/149/234 
f 159/150/235 160/151/236 161/152/237 
f 162/153/238 161/152/237 160/151/236 
f 161/152/237 162/153/238 163/154/239 
f 163/154/239 164/155/240 165/156/241 
f 165/156/242 161/152/237 163/154/243 
f 166/157/244 165/156/242 164/155/240 
f 166/157/245 164/155/240 167/158/246 
f 168/159/247 167/158/246 164/155/240 
f 167/158/246 168/159/247 169/160/248 
f 169/160/248 168/159/247 170/161/249 
f 171/162/250 170/161/249 168/159/247 
f 170/161/249 171/162/250 172/163/251 
f 172/163/252 171/162/250 173/164/253 
f 173/164/253 174/165/254 175/166/255 
f 174/165/256 173/164/257 171/162/250 
f 175/166/255 176/167/258 177/168/259 
f 176/167/258 175/166/255 178/169/260 
f 174/165/256 178/169/260 175/166/255 
f 177/168/261 179/170/262 175/166/263 
f 180/171/264 175/166/263 179/170/262 
f 175/166/263 180/171/264 181/172/265 
f 173/164/266 175/166/263 181/172/267 
f 170/161/268 182/173/269 169/160/270 
f 182/173/269 170/161/268 183/174/271 
f 172/163/272 183/174/271 170/161/268 
f 183/174/271 172/163/272 184/175/273 
f 173/164/266 184/175/273 172/163/272 
f 184/175/273 173/164/266 185/176/274 
f 181/172/265 185/176/274 173/164/266 
f 184/175/273 185/176/274 186/177/275 
f 187/178/276 186/177/275 185/176/277 
f 186/177/275 187/178/276 188/179/278 
f 189/180/279 186/177/275 188/179/280 
f 143/134/281 188/179/280 190/181/282 
f 188/179/280 143/134/281 189/180/279 
f 144/135/283 189/180/279 143/134/281 
f 189/180/279 144/135/283 191/182/284 
f 145/136/285 191/182/284 144/135/283 
f 191/182/284 145/136/285 89/89/109 
f 95/95/286 89/89/109 145/136/285 
f 143/134/281 190/181/287 139/130/288 
f 139/130/288 192/183/289 137/128/290 
f 192/183/289 139/130/288 193/184/291 
f 190/181/282 193/184/291 139/130/288 
f 165/156/292 194/185/293 195/186/294 
f 194/185/293 165/156/292 44/44/295 
f 166/157/296 44/44/295 165/156/292 
f 44/44/295 166/157/296 45/45/297 
f 167/158/298 45/45/297 166/157/296 
f 45/45/297 167/158/298 52/52/73 
f 182/173/269 52/52/73 167/158/298 
f 52/52/73 182/173/269 62/62/72 
f 196/187/299 62/62/72 182/173/269 
f 89/89/109 62/62/72 196/187/299 
f 167/158/298 169/160/300 182/173/269 
f 44/44/295 47/47/301 194/185/293 
f 197/188/302 47/47/301 198/189/303 
f 47/47/301 197/188/302 194/185/304 
f 48/48/305 198/189/306 47/47/301 
f 199/190/307 50/50/75 63/63/308 
f 50/50/75 199/190/307 49/49/309 
f 200/191/310 49/49/309 199/190/307 
f 49/49/309 200/191/310 48/48/305 
f 201/192/311 48/48/305 200/191/310 
f 48/48/305 201/192/311 198/189/306 
f 202/193/312 198/189/306 201/192/311 
f 201/192/311 203/194/313 202/193/314 
f 204/195/315 205/196/316 203/194/313 
f 206/197/317 203/194/313 205/196/316 
f 203/194/313 206/197/317 202/193/312 
f 181/172/318 180/171/319 207/198/320 
f 179/170/321 207/198/320 180/171/319 
f 207/198/320 179/170/321 208/199/322 
f 151/142/323 208/199/322 179/170/321 
f 209/200/324 181/172/325 207/198/320 
f 210/201/326 208/199/322 151/142/326 
f 187/178/327 211/202/328 188/179/329 
f 211/202/328 187/178/327 212/203/330 
f 212/203/330 187/178/327 209/200/324 
f 185/176/331 209/200/324 187/178/327 
f 209/200/324 185/176/331 181/172/318 
f 211/202/328 213/204/332 190/181/333 
f 190/181/334 188/179/329 211/202/335 
f 213/204/332 193/184/336 190/181/334 
f 193/184/336 213/204/332 192/183/337 
f 214/205/338 192/183/337 213/204/332 
f 192/183/337 214/205/338 132/123/339 
f 215/206/340 132/123/340 214/205/338 
f 216/207/341 217/208/342 218/209/343 
f 19/19/344 219/210/345 220/211/346 
f 221/212/347 217/208/347 216/207/341 
f 19/19/344 220/211/348 222/213/348 
f 223/214/349 224/215/350 225/216/351 
f 226/217/352 225/216/351 224/215/350 
f 225/216/351 226/217/352 227/218/353 
f 227/218/353 228/219/354 229/220/355 
f 229/220/356 225/216/351 227/218/357 
f 230/221/358 229/220/356 228/219/354 
f 230/221/359 228/219/354 231/222/360 
f 232/223/361 231/222/360 228/219/354 
f 231/222/360 232/223/361 63/63/362 
f 63/63/362 232/223/361 199/190/363 
f 233/224/364 199/190/363 232/223/361 
f 199/190/363 233/224/364 200/191/365 
f 200/191/366 233/224/364 201/192/367 
f 201/192/367 234/225/368 203/194/369 
f 234/225/370 201/192/371 233/224/364 
f 203/194/369 235/226/372 204/195/373 
f 235/226/372 203/194/369 236/227/374 
f 234/225/370 236/227/374 203/194/369 
f 202/193/375 206/197/376 237/228/377 
f 205/196/378 237/228/377 206/197/376 
f 237/228/377 205/196/378 238/229/379 
f 216/207/380 238/229/379 205/196/378 
f 239/230/381 202/193/382 237/228/377 
f 240/231/383 238/229/379 216/207/383 
f 197/188/384 241/232/385 194/185/386 
f 241/232/385 197/188/384 242/233/387 
f 242/233/387 197/188/384 239/230/381 
f 198/189/388 239/230/381 197/188/384 
f 239/230/381 198/189/388 202/193/375 
f 241/232/385 243/234/389 195/186/390 
f 195/186/391 194/185/386 241/232/392 
f 243/234/389 244/235/393 195/186/391 
f 244/235/393 243/234/389 245/236/394 
f 246/237/395 245/236/394 243/234/389 
f 245/236/394 246/237/395 154/145/396 
f 247/238/397 154/145/397 246/237/395 
f 248/239/398 249/240/399 250/241/400 
f 251/242/401 252/243/402 253/244/403 
f 254/245/404 249/240/404 248/239/398 
f 251/242/401 253/244/405 255/246/405 
f 87/87/406 256/247/407 84/84/408 
f 257/248/409 84/84/408 256/247/407 
f 84/84/408 257/248/409 258/249/410 
f 258/249/410 259/250/411 75/75/412 
f 75/75/413 84/84/408 258/249/414 
f 79/79/415 75/75/413 259/250/411 
f 79/79/416 259/250/411 70/70/417 
f 260/251/418 70/70/417 259/250/411 
f 70/70/417 260/251/418 71/71/419 
f 71/71/419 260/251/418 261/252/420 
f 262/253/421 261/252/420 260/251/418 
f 261/252/420 262/253/421 263/254/422 
f 263/254/423 262/253/421 264/255/424 
f 264/255/424 265/256/425 266/257/426 
f 265/256/427 264/255/428 262/253/421 
f 266/257/426 267/258/429 268/259/430 
f 267/258/429 266/257/426 269/260/431 
f 265/256/427 269/260/431 266/257/426 
f 268/259/432 270/261/433 266/257/434 
f 271/262/435 266/257/434 270/261/433 
f 266/257/434 271/262/435 272/263/436 
f 264/255/437 266/257/434 272/263/438 
f 261/252/439 67/67/86 71/71/440 
f 67/67/86 261/252/439 273/264/441 
f 263/254/442 273/264/441 261/252/439 
f 273/264/441 263/254/442 274/265/443 
f 264/255/437 274/265/443 263/254/442 
f 274/265/443 264/255/437 275/266/444 
f 272/263/436 275/266/444 264/255/437 
f 274/265/443 275/266/444 276/267/445 
f 277/268/446 276/267/445 278/269/447 
f 279/270/448 276/267/445 275/266/449 
f 279/270/448 278/269/447 276/267/450 
f 112/112/451 278/269/447 280/271/452 
f 278/269/447 112/112/451 277/268/446 
f 110/110/453 277/268/446 112/112/451 
f 277/268/446 110/110/453 281/272/454 
f 68/68/80 281/272/454 110/110/453 
f 281/272/454 68/68/80 65/65/80 
f 112/112/451 280/271/455 113/113/456 
f 113/113/456 282/273/457 114/114/458 
f 282/273/457 113/113/456 283/274/459 
f 280/271/452 283/274/459 113/113/456 
f 272/263/460 271/262/461 284/275/462 
f 270/261/463 284/275/462 271/262/461 
f 284/275/462 270/261/463 285/276/464 
f 248/239/465 285/276/464 270/261/463 
f 286/277/466 272/263/467 284/275/462 
f 287/278/468 285/276/464 248/239/468 
f 286/277/466 275/266/469 272/263/460 
f 275/266/469 286/277/466 279/270/470 
f 288/279/471 279/270/470 286/277/466 
f 289/280/472 279/270/470 288/279/471 
f 279/270/470 289/280/472 278/269/473 
f 289/280/472 290/281/474 280/271/475 
f 280/271/476 278/269/473 289/280/477 
f 290/281/474 283/274/478 280/271/476 
f 283/274/478 290/281/474 282/273/479 
f 291/282/480 282/273/479 290/281/474 
f 282/273/479 291/282/480 40/40/481 
f 292/283/482 40/40/482 291/282/480 
f 89/89/483 196/187/484 293/284/485 
f 182/173/486 293/284/485 196/187/484 
f 183/174/487 293/284/485 182/173/486 
f 184/175/488 293/284/485 183/174/487 
f 186/177/489 293/284/485 184/175/488 
f 293/284/485 186/177/489 189/180/490 
f 293/284/485 189/180/491 191/182/491 
f 293/284/485 191/182/492 89/89/492 
f 80/80/493 72/72/494 294/285/495 
f 73/73/496 294/285/495 72/72/494 
f 294/285/495 73/73/496 74/74/497 
f 294/285/495 78/78/498 80/80/498 
f 91/91/499 294/285/495 74/74/500 
f 294/285/495 91/91/499 85/85/501 
f 294/285/495 81/81/502 78/78/503 
f 81/81/502 294/285/495 85/85/504 
f 281/272/505 65/65/506 295/286/507 
f 66/66/508 295/286/507 65/65/506 
f 295/286/507 66/66/508 67/67/509 
f 295/286/507 277/268/510 281/272/510 
f 273/264/511 295/286/507 67/67/512 
f 295/286/507 273/264/511 274/265/513 
f 295/286/507 276/267/514 277/268/515 
f 276/267/514 295/286/507 274/265/516 
f 296/287/517 297/288/517 298/289/517 
f 298/289/517 297/288/517 299/290/517 
f 299/290/517 297/288/517 300/291/517 
f 300/291/517 297/288/517 301/292/517 
f 301/292/517 297/288/517 302/293/517 
f 303/294/517 302/293/517 297/288/517 
f 297/288/517 304/295/517 303/294/517 
f 304/295/517 297/288/517 305/296/517 
f 305/296/517 297/288/517 306/297/517 
f 306/297/517 297/288/517 307/298/517 
f 307/298/517 297/288/517 308/299/517 
f 308/299/517 297/288/517 309/300/517 
f 309/300/517 297/288/517 310/301/517 
f 310/301/517 297/288/517 311/302/517 
f 311/302/517 297/288/517 312/303/517 
f 312/303/517 297/288/517 296/287/517 
f 313/302/518 314/288/518 315/301/518 
f 315/301/518 314/288/518 316/300/518 
f 316/300/518 314/288/518 317/299/518 
f 317/299/518 314/288/518 318/298/518 
f 318/298/518 314/288/518 319/297/518 
f 320/296/518 319/297/518 314/288/518 
f 320/296/518 314/288/518 321/295/518 
f 321/295/518 314/288/518 322/294/518 
f 322/294/518 314/288/518 323/293/518 
f 323/293/518 314/288/518 324/292/518 
f 324/292/518 314/288/518 325/291/518 
f 325/291/518 314/288/518 326/290/518 
f 326/290/518 314/288/518 327/289/518 
f 327/289/518 314/288/518 328/287/518 
f 328/287/518 314/288/518 329/303/518 
f 329/303/518 314/288/518 313/302/518 
f 330/304/519 331/305/519 332/306/519 
f 333/307/519 332/306/519 331/305/519 
f 331/304/520 334/305/520 333/306/520 
f 335/307/520 333/306/520 334/305/520 
f 336/304/521 337/305/521 338/306/521 
f 339/307/521 338/306/521 337/305/521 
f 340/304/522 341/305/522 342/306/522 
f 343/307/522 342/306/522 341/305/522 
f 341/304/523 344/305/523 343/306/523 
f 345/307/523 343/306/523 344/305/523 
f 344/304/524 336/305/524 345/306/524 
f 338/307/524 345/306/524 336/305/524 
f 334/304/525 340/305/525 335/306/525 
f 342/307/525 335/306/525 340/305/525 
f 337/304/526 346/305/526 339/306/526 
f 347/307/526 339/306/526 346/305/526 
f 346/304/527 348/305/527 347/306/527 
f 349/307/527 347/306/527 348/305/527 
f 350/304/528 330/305/528 351/306/528 
f 332/307/528 351/306/528 330/305/528 
f 348/304/529 352/305/529 349/306/529 
f 353/307/529 349/306/529 352/305/529 
f 352/304/530 354/305/530 353/306/530 
f 355/307/530 353/306/530 354/305/530 
f 354/304/531 356/305/531 355/306/531 
f 357/307/531 355/306/531 356/305/531 
f 356/304/532 358/305/532 357/306/532 
f 359/307/532 357/306/532 358/305/532 
f 358/304/533 360/305/533 359/306/533 
f 361/307/533 359/306/533 360/305/533 
f 360/304/534 362/305/534 361/306/534 
f 363/307/534 361/306/534 362/305/534 
f 362/304/535 364/305/535 363/306/535 
f 365/307/535 363/306/535 364/305/535 
f 364/304/536 350/305/536 365/306/536 
f 351/307/536 365/306/536 350/305/536 
f 129/120/537 366/308/538 98/98/539 
f 367/309/540 98/98/539 366/308/538 
f 98/98/539 367/309/540 99/99/541 
f 94/94/542 99/99/541 367/309/540 
f 368/310/543 94/94/544 367/309/540 
f 369/311/545 366/308/538 129/120/545 
f 368/310/543 83/83/546 94/94/542 
f 83/83/546 368/310/543 82/82/547 
f 370/312/548 82/82/547 368/310/543 
f 371/313/549 82/82/547 370/312/548 
f 82/82/547 371/313/549 76/76/550 
f 371/313/549 372/314/551 77/77/552 
f 77/77/553 76/76/550 371/313/554 
f 372/314/551 88/88/555 77/77/553 
f 88/88/555 372/314/551 86/86/556 
f 373/315/557 86/86/556 372/314/551 
f 86/86/556 373/315/557 251/242/558 
f 374/316/559 251/242/559 373/315/557 
f 375/317/560 105/105/561 376/318/562 
f 105/105/561 375/317/560 39/39/563 
f 377/319/564 39/39/563 375/317/560 
f 39/39/563 377/319/564 37/37/565 
f 107/107/566 376/318/567 105/105/561 
f 376/318/562 107/107/566 378/320/568 
f 103/103/569 378/320/570 107/107/566 
f 378/320/568 103/103/571 379/321/572 
f 379/321/572 101/101/573 380/322/574 
f 101/101/573 379/321/572 103/103/569 
f 101/101/573 108/108/575 380/322/576 
f 108/108/575 109/109/577 380/322/578 
f 109/109/577 111/111/579 380/323/580 
f 111/111/579 116/116/581 381/324/582 
f 116/116/581 115/115/583 382/325/584 
f 43/43/585 383/326/586 115/115/583 
f 383/326/586 43/43/585 384/327/587 
f 42/42/588 384/327/587 43/43/585 
f 383/326/586 382/325/589 115/115/590 
f 382/325/589 381/324/591 116/116/592 
f 381/324/591 380/323/593 111/111/593 
f 222/213/594 385/328/595 224/215/596 
f 385/328/595 222/213/594 386/329/597 
f 220/211/598 386/329/597 222/213/594 
f 226/217/599 224/215/596 387/330/600 
f 385/328/595 387/330/601 224/215/602 
f 227/218/603 226/217/599 388/331/604 
f 387/330/601 388/331/605 226/217/606 
f 228/219/607 227/218/603 389/332/608 
f 232/223/609 228/219/607 389/333/610 
f 388/331/605 389/332/611 227/218/611 
f 233/224/612 232/223/609 389/333/613 
f 390/334/614 233/224/612 389/333/615 
f 233/224/612 390/334/614 234/225/616 
f 391/335/617 234/225/618 390/334/614 
f 392/336/619 236/227/620 391/335/617 
f 234/225/616 391/335/621 236/227/620 
f 236/227/620 392/336/622 235/226/623 
f 393/337/624 235/226/623 392/336/619 
f 235/226/623 393/337/624 221/212/625 
f 394/338/626 221/212/625 393/337/624 
f 221/212/625 394/338/626 217/208/627 
f 106/106/628 7/7/629 5/5/630 
f 7/7/629 106/106/628 39/39/631 
f 105/105/632 39/39/631 106/106/628 
f 395/339/633 265/256/634 396/340/635 
f 397/341/636 269/260/637 395/339/633 
f 396/340/635 262/253/638 398/342/639 
f 262/253/638 396/340/635 265/256/640 
f 265/256/640 395/339/641 269/260/637 
f 262/253/638 260/251/642 398/342/643 
f 269/260/637 397/341/644 267/258/645 
f 260/251/642 259/250/646 398/342/647 
f 259/250/646 258/249/648 398/343/649 
f 258/249/648 257/248/650 399/344/651 
f 257/248/650 256/247/652 400/345/653 
f 254/245/654 401/346/655 249/240/656 
f 401/346/655 254/245/654 402/347/657 
f 267/258/645 402/347/657 254/245/654 
f 402/347/657 267/258/645 397/341/636 
f 255/246/658 403/348/659 256/247/652 
f 403/348/659 255/246/658 404/349/660 
f 253/244/661 404/349/660 255/246/658 
f 403/348/659 400/345/662 256/247/663 
f 400/345/662 399/344/664 257/248/665 
f 399/344/664 398/343/666 258/249/666 
f 114/114/667 43/43/668 115/115/359 
f 43/43/668 114/114/667 40/40/669 
f 282/273/670 40/40/669 114/114/667 
f 268/259/671 248/239/672 270/261/673 
f 248/239/672 268/259/671 254/245/674 
f 267/258/675 254/245/674 268/259/671 
f 87/87/676 255/246/677 256/247/678 
f 255/246/677 87/87/676 251/242/679 
f 86/86/680 251/242/679 87/87/676 
f 204/195/681 216/207/682 205/196/683 
f 216/207/682 204/195/681 221/212/684 
f 235/226/685 221/212/684 204/195/681 
f 229/220/686 11/11/152 14/14/687 
f 11/11/152 229/220/686 53/53/151 
f 230/221/688 53/53/151 229/220/686 
f 53/53/151 230/221/688 54/54/689 
f 231/222/690 54/54/689 230/221/688 
f 54/54/689 231/222/690 61/61/71 
f 63/63/308 61/61/71 231/222/690 
f 229/220/686 14/14/691 225/216/692 
f 225/216/692 17/17/693 223/214/694 
f 17/17/693 225/216/692 16/16/695 
f 14/14/687 16/16/695 225/216/692 
f 223/214/696 222/213/697 224/215/698 
f 222/213/697 223/214/696 19/19/699 
f 17/17/700 19/19/699 223/214/696 
f 177/168/701 151/142/702 179/170/703 
f 151/142/702 177/168/701 157/148/704 
f 176/167/705 157/148/704 177/168/701 
f 405/350/706 176/167/707 406/351/708 
f 176/167/707 405/350/706 157/148/709 
f 407/352/710 157/148/709 405/350/706 
f 157/148/709 407/352/710 152/143/711 
f 178/169/712 406/351/713 176/167/707 
f 406/351/708 178/169/712 408/353/714 
f 174/165/715 408/353/716 178/169/712 
f 408/353/714 174/165/717 409/354/718 
f 409/354/718 171/162/719 410/355/720 
f 171/162/719 409/354/718 174/165/715 
f 171/162/719 168/159/721 410/355/722 
f 168/159/721 164/155/723 410/355/724 
f 164/155/723 163/154/725 410/356/726 
f 163/154/725 162/153/727 411/357/728 
f 162/153/727 160/151/729 412/358/730 
f 158/149/731 413/359/732 160/151/729 
f 413/359/732 158/149/731 414/360/733 
f 156/147/734 414/360/733 158/149/731 
f 413/359/732 412/358/735 160/151/736 
f 412/358/735 411/357/737 162/153/738 
f 411/357/737 410/356/739 163/154/739 
f 161/152/740 245/236/741 159/150/742 
f 245/236/741 161/152/740 244/235/743 
f 195/186/294 244/235/743 161/152/740 
f 165/156/292 195/186/744 161/152/740 
f 159/150/745 158/149/746 160/151/747 
f 158/149/746 159/150/745 154/145/748 
f 245/236/749 154/145/748 159/150/745 
f 97/97/750 129/120/751 98/98/752 
f 129/120/751 97/97/750 135/126/753 
f 149/140/754 135/126/753 97/97/750 
f 415/361/755 149/140/756 150/141/757 
f 149/140/756 415/361/755 135/126/758 
f 416/362/759 135/126/758 415/361/755 
f 135/126/758 416/362/759 130/121/760 
f 150/141/757 148/139/761 417/363/762 
f 417/363/762 148/139/763 418/364/764 
f 418/364/764 147/138/765 419/365/766 
f 147/138/765 418/364/764 148/139/761 
f 147/138/765 146/137/767 419/365/768 
f 146/137/767 142/133/769 419/365/770 
f 142/133/769 141/132/771 419/366/772 
f 141/132/771 140/131/773 420/367/774 
f 140/131/773 138/129/775 421/368/776 
f 136/127/777 422/369/778 138/129/775 
f 422/369/778 136/127/777 423/370/779 
f 134/125/780 423/370/779 136/127/777 
f 422/369/778 421/368/781 138/129/782 
f 421/368/781 420/367/783 140/131/784 
f 420/367/783 419/366/785 141/132/785 
f 137/128/786 136/127/787 138/129/788 
f 136/127/787 137/128/786 132/123/789 
f 192/183/790 132/123/789 137/128/786 
f 424/371/517 425/372/517 426/373/517 
f 427/374/517 425/372/517 424/371/517 
f 427/374/517 424/371/517 428/375/517 
f 429/376/791 430/377/792 431/378/793 
f 432/379/794 430/377/792 433/380/795 
f 430/377/792 432/379/794 431/378/793 
f 434/381/796 431/378/793 432/379/794 
f 435/382/797 436/383/798 437/384/799 
f 438/385/800 436/383/798 439/386/801 
f 436/383/798 438/385/800 437/384/799 
f 440/387/802 437/384/799 438/385/800 
f 441/388/803 442/389/804 443/390/803 
f 444/387/804 442/389/804 445/391/805 
f 442/389/804 444/387/804 443/390/803 
f 446/384/806 443/390/803 444/387/804 
f 447/392/807 448/393/808 449/394/809 
f 450/381/810 448/393/808 451/395/811 
f 448/393/808 450/381/810 449/394/809 
f 452/378/812 449/394/809 450/381/810 
f 453/396/813 454/395/814 455/381/815 
f 454/395/814 453/396/813 456/383/813 
f 456/383/813 453/396/813 457/397/816 
f 458/398/817 457/397/816 453/396/813 
f 459/399/818 460/400/819 461/401/818 
f 462/402/820 460/400/819 459/399/821 
f 460/400/819 462/402/820 463/403/822 
f 464/404/823 460/400/819 463/403/823 
f 461/401/824 460/400/819 464/404/824 
f 465/405/825 466/406/826 467/407/827 
f 466/406/826 465/405/825 468/408/828 
f 469/409/829 470/410/829 471/411/830 
# 660 faces

